<?xml version="1.0" encoding="utf-8"?>
<!-- Generator: Adobe Illustrator 19.0.0, SVG Export Plug-In . SVG Version: 6.00 Build 0)  -->
<svg version="1.1" id="Layer_1" xmlns="http://www.w3.org/2000/svg" xmlns:xlink="http://www.w3.org/1999/xlink" x="0px" y="0px"
	 viewBox="0 0 1000 124.3" style="enable-background:new 0 0 1000 124.3;" xml:space="preserve">
<style type="text/css">
	.st0{fill:#74B62E;}
	.st1{fill:#AA6B50;}
	.st2{fill:#4C2C17;}
	.st3{fill:#5D8C1A;}
	.st4{fill:#86CA37;}
	.st5{fill:#9A7944;}
	.st6{fill:#ACF357;}
	.st7{fill:#536C0E;}
	.st8{fill:#68AA22;}
	.st9{fill:#EFA3A3;}
	.st10{fill:none;stroke:#FFFFFF;stroke-miterlimit:10;}
</style>
<g id="XMLID_217_">
	<polygon id="XMLID_320_" class="st0" points="995.5,110.1 995.5,88.6 990.1,109.7 985.2,101.1 981.4,110.4 972,106.8 966.6,111.9 
		955.4,97.8 956.8,111.9 948.2,108.3 946.4,111.9 944.6,107.9 941,113.3 932.8,91.3 932.8,113 925.5,106.1 920.8,114 911.7,99.6 
		911.7,114.5 905.2,110.4 905.2,113 899.5,108.3 899.5,116 888.1,101.4 892.8,115.5 888.9,110.1 888.9,114.5 885.3,103.8 
		881.8,115.8 877,113.3 874,116.4 883.1,86.1 868.5,110.1 868.5,88.6 863.7,109.7 859,101.1 855.4,110.4 846,106.8 840.6,111.9 
		829.5,97.8 830.9,111.9 822.3,108.3 820.5,111.9 818.7,107.9 814.6,113.3 805.8,91.3 805.8,113 799.1,106.1 794,114 784.7,99.6 
		784.7,114.5 778.2,110.4 778.2,113 772.5,108.3 772.5,116 761.7,101.4 766.1,115.5 761.9,110.1 761.9,114.5 758.8,103.8 
		755.6,115.8 751,113.3 746.9,117.6 741.7,100.2 745.8,86.1 730.9,110.1 730.9,88.6 726.4,109.7 721.9,101.1 718.4,110.4 709,106.8 
		706.9,112.2 681.7,97.8 694,111.9 685.3,108.3 683.5,111.9 681.7,107.9 677.7,113.3 669.1,91.3 669.1,113 662.2,106.1 657.2,114 
		647.9,99.6 647.9,114.5 641.4,110.4 641.4,113 635.7,108.3 635.7,116 624.8,101.4 629.3,115.5 625.1,110.1 625.1,114.5 
		622.5,105.5 628.5,86.1 614.5,110.1 614.5,88.6 609.1,109.7 604.9,102.2 603.1,96.7 603.1,103.7 600.4,110.4 591,106.8 
		585.6,111.9 574.4,97.8 575.8,111.9 567.2,108.3 565.4,111.9 563.6,107.9 560.1,113.3 551.9,91.3 551.9,113 544.5,106.1 539.8,114 
		530.7,99.6 530.7,114.5 524.2,110.4 524.2,113 518.5,108.3 518.5,116 507.1,101.4 511.8,115.5 507.9,110.1 507.9,114.5 
		504.3,103.8 500.8,115.8 496,113.3 491.9,117.6 488.6,111.9 496.6,86.1 482.7,110.1 482.7,88.6 477.3,109.7 472.3,101.1 
		468.6,110.4 459.1,106.8 453.7,111.9 442.5,97.8 444,111.9 435.3,108.3 433.5,111.9 431.7,107.9 428.2,113.3 420,91.3 420,113 
		412.7,106.1 407.9,114 398.8,99.6 398.8,114.5 392.3,110.4 392.3,113 386.6,108.3 386.6,116 375.3,101.4 380,115.5 376,110.1 
		376,114.5 372.4,103.8 368.9,115.8 368.5,115.6 363.6,96.8 358.3,114.7 353.8,107 350.1,115.1 348.8,115.8 345.6,103.8 
		342.6,114.5 342.6,110.1 338.4,115.5 342.8,101.4 332.1,116 332.1,108.3 325.5,113 325.5,110.4 319.8,114.5 319.8,99.6 310.2,114 
		305,106.1 297.9,113 297.9,91.3 289.4,113.3 285.7,107.9 283.9,111.9 282.1,108.3 273.4,111.9 274.9,97.8 263.7,111.9 258.3,106.8 
		249,110.4 245.4,101.1 240.8,109.7 239.2,103 239.2,96.7 238.4,99.4 236,88.6 236,107.3 235.4,109.1 221.4,86.1 229.8,114.5 
		228.6,113.3 223.8,115.8 220.5,103.8 217.3,114.5 217.3,110.1 213.2,115.5 217.7,101.4 206.7,116 206.7,108.3 201,113 201,110.4 
		194.5,114.5 194.5,99.6 185.2,114 180.3,106.1 173.3,113 173.3,91.3 164.8,113.3 160.9,107.9 159.1,111.9 157.3,108.3 148.7,111.9 
		160.9,97.8 135.7,112.2 133.6,106.8 124.2,110.4 120.7,101.1 116.1,109.7 111.4,88.6 111.4,110.1 96.7,86.1 100.9,100.3 
		95.7,117.6 91.6,113.3 87,115.8 83.7,103.8 80.5,114.5 80.5,110.1 76.4,115.5 80.8,101.4 69.9,116 69.9,108.3 64.2,113 64.2,110.4 
		57.7,114.5 57.7,99.6 48.4,114 43.4,106.1 36.5,113 36.5,91.3 27.9,113.3 24,107.9 22.2,111.9 20.4,108.3 11.7,111.9 13.2,97.8 
		2,111.9 -3.4,106.8 -12.8,110.4 -16.4,101.1 -21.2,109.7 -26.1,88.6 -26.1,110.1 -40.8,86.1 -40.8,120.8 106.8,120.8 108.1,120.8 
		231.6,120.8 239.2,120.8 347.6,120.8 369.8,120.8 479.5,120.8 485.8,120.8 603.1,120.8 617.7,120.8 734.5,120.8 735.8,120.8 
		860.4,120.8 872.7,120.8 1009.4,120.8 1009.4,86.1 	"/>
	<rect id="XMLID_319_" x="-41" y="113.3" class="st1" width="1051" height="4"/>
	<rect id="XMLID_318_" x="-41" y="117.3" class="st2" width="1051" height="10"/>
	<rect id="XMLID_317_" x="5" y="62.3" class="st2" width="4" height="54"/>
	<path id="XMLID_314_" class="st3" d="M26.5,84.6c0,20.3-9.4,19.2-21,19.2c-11.6,0-21,1.1-21-19.2c0-20.3,9.4-69.1,21-69.1
		C17.1,15.5,26.5,64.4,26.5,84.6z"/>
	<rect id="XMLID_313_" x="58" y="62.3" class="st2" width="3" height="54"/>
	<path id="XMLID_310_" class="st3" d="M73.8,90.9c0,13.6-6.3,12.8-14.1,12.8c-7.8,0-14.1,0.7-14.1-12.8c0-13.6,6.3-46.3,14.1-46.3
		C67.5,44.6,73.8,77.4,73.8,90.9z"/>
	<rect id="XMLID_309_" x="32" y="62.3" class="st2" width="4" height="54"/>
	<path id="XMLID_306_" class="st4" d="M58.9,82.6c0,23.2-10.8,22-24.1,22c-13.3,0-24.1,1.2-24.1-22c0-23.2,10.8-79.3,24.1-79.3
		C48.1,3.3,58.9,59.4,58.9,82.6z"/>
	<rect id="XMLID_305_" x="939" y="62.3" class="st2" width="5" height="54"/>
	<path id="XMLID_302_" class="st3" d="M963.5,84.6c0,20.3-9.4,19.2-21,19.2c-11.6,0-21,1.1-21-19.2c0-20.3,9.4-69.1,21-69.1
		C954.1,15.5,963.5,64.4,963.5,84.6z"/>
	<rect id="XMLID_301_" x="994" y="62.3" class="st2" width="6" height="54"/>
	<path id="XMLID_298_" class="st3" d="M1010.8,90.9c0,13.6-6.3,12.8-14.1,12.8c-7.8,0-14.1,0.7-14.1-12.8c0-13.6,6.3-46.3,14.1-46.3
		C1004.5,44.6,1010.8,77.4,1010.8,90.9z"/>
	<rect id="XMLID_297_" x="969" y="62.3" class="st2" width="4" height="54"/>
	<path id="XMLID_294_" class="st4" d="M995.9,82.6c0,23.2-10.8,22-24.1,22c-13.3,0-24.1,1.2-24.1-22c0-23.2,10.8-79.3,24.1-79.3
		C985.1,3.3,995.9,59.4,995.9,82.6z"/>
	<rect id="XMLID_293_" x="862" y="62.3" class="st2" width="5" height="54"/>
	<path id="XMLID_290_" class="st4" d="M885.4,84.6c0,20.3-9.4,19.2-21,19.2c-11.6,0-21,1.1-21-19.2c0-20.3,9.4-69.1,21-69.1
		C876,15.5,885.4,64.4,885.4,84.6z"/>
	<rect id="XMLID_289_" x="916" y="62.3" class="st2" width="4" height="54"/>
	<path id="XMLID_286_" class="st4" d="M932.6,90.9c0,13.6-6.3,12.8-14.1,12.8c-7.8,0-14.1,0.7-14.1-12.8c0-13.6,6.3-46.3,14.1-46.3
		C926.3,44.6,932.6,77.4,932.6,90.9z"/>
	<rect id="XMLID_285_" x="891" y="62.3" class="st2" width="4" height="54"/>
	<path id="XMLID_282_" class="st3" d="M917.8,82.6c0,23.2-10.8,22-24.1,22c-13.3,0-24.1,1.2-24.1-22c0-23.2,10.8-79.3,24.1-79.3
		C907,3.3,917.8,59.4,917.8,82.6z"/>
	<rect id="XMLID_281_" x="739" y="81.3" class="st2" width="4" height="35"/>
	<path id="XMLID_278_" class="st3" d="M754.8,95.7c0,13.1-6.1,12.4-13.5,12.4c-7.5,0-13.5,0.7-13.5-12.4c0-13.1,6.1-44.6,13.5-44.6
		C748.8,51.1,754.8,82.6,754.8,95.7z"/>
	<rect id="XMLID_277_" x="774" y="81.3" class="st2" width="3" height="35"/>
	<path id="XMLID_274_" class="st3" d="M785.3,99.8c0,8.8-4.1,8.3-9.1,8.3c-5,0-9.1,0.5-9.1-8.3c0-8.8,4.1-29.9,9.1-29.9
		C781.3,69.9,785.3,91,785.3,99.8z"/>
	<rect id="XMLID_273_" x="758" y="81.3" class="st2" width="2" height="35"/>
	<path id="XMLID_270_" class="st4" d="M775.8,94.4c0,15-7,14.2-15.5,14.2c-8.6,0-15.5,0.8-15.5-14.2c0-15,7-51.2,15.5-51.2
		C768.8,43.2,775.8,79.4,775.8,94.4z"/>
	<rect id="XMLID_269_" x="689" y="81.3" class="st2" width="3" height="35"/>
	<path id="XMLID_266_" class="st4" d="M704.4,95.7c0,13.1-6.1,12.4-13.5,12.4c-7.5,0-13.5,0.7-13.5-12.4c0-13.1,6.1-44.6,13.5-44.6
		C698.3,51.1,704.4,82.6,704.4,95.7z"/>
	<rect id="XMLID_265_" x="725" y="81.3" class="st2" width="3" height="35"/>
	<path id="XMLID_262_" class="st4" d="M734.9,99.8c0,8.8-4.1,8.3-9.1,8.3c-5,0-9.1,0.5-9.1-8.3c0-8.8,4.1-29.9,9.1-29.9
		C730.8,69.9,734.9,91,734.9,99.8z"/>
	<rect id="XMLID_261_" x="709" y="81.3" class="st2" width="1" height="35"/>
	<path id="XMLID_258_" class="st3" d="M725.3,94.4c0,15-7,14.2-15.5,14.2c-8.6,0-15.5,0.8-15.5-14.2c0-15,7-51.2,15.5-51.2
		C718.4,43.2,725.3,79.4,725.3,94.4z"/>
	<rect id="XMLID_257_" x="361" y="62.3" class="st2" width="5" height="54"/>
	<path id="XMLID_254_" class="st3" d="M385.5,84.6c0,20.3-9.4,19.2-21,19.2c-11.6,0-21,1.1-21-19.2c0-20.3,9.4-69.1,21-69.1
		C376.1,15.5,385.5,64.4,385.5,84.6z"/>
	<rect id="XMLID_253_" x="416" y="62.3" class="st2" width="4" height="54"/>
	<path id="XMLID_250_" class="st3" d="M432.2,90.4c0,14.1-6.5,13.4-14.6,13.4c-8.1,0-14.6,0.8-14.6-13.4s6.5-48.2,14.6-48.2
		C425.7,42.3,432.2,76.3,432.2,90.4z"/>
	<rect id="XMLID_249_" x="392" y="62.3" class="st2" width="5" height="54"/>
	<path id="XMLID_246_" class="st4" d="M417.9,82.6c0,23.2-10.8,22-24.1,22c-13.3,0-24.1,1.2-24.1-22c0-23.2,10.8-79.3,24.1-79.3
		C407.1,3.3,417.9,59.4,417.9,82.6z"/>
	<rect id="XMLID_245_" x="444" y="62.3" class="st2" width="4" height="54"/>
	<path id="XMLID_242_" class="st4" d="M466.9,84.6c0,20.3-9.4,19.2-21,19.2c-11.6,0-21,1.1-21-19.2c0-20.3,9.4-69.1,21-69.1
		C457.5,15.5,466.9,64.4,466.9,84.6z"/>
	<rect id="XMLID_241_" x="498" y="62.3" class="st2" width="4" height="54"/>
	<path id="XMLID_238_" class="st4" d="M513.6,90.4c0,14.1-6.5,13.4-14.6,13.4c-8.1,0-14.6,0.8-14.6-13.4s6.5-48.2,14.6-48.2
		C507.1,42.3,513.6,76.3,513.6,90.4z"/>
	<rect id="XMLID_237_" x="473" y="62.3" class="st2" width="4" height="54"/>
	<path id="XMLID_234_" class="st3" d="M499.3,82.6c0,23.2-10.8,22-24.1,22c-13.3,0-24.1,1.2-24.1-22c0-23.2,10.8-79.3,24.1-79.3
		C488.6,3.3,499.3,59.4,499.3,82.6z"/>
	<g id="XMLID_226_">
		<g id="XMLID_230_">
			<path id="XMLID_233_" class="st5" d="M186.1,75.2c-1.7-2.4-3.4-5.6-3-8.8l-1.6-0.2c-0.3,2.2,0.3,4.5,1.2,6.4
				c-0.9-0.5-1.8-0.9-2.7-1.2c-4.7-1.3-11.3-9.4-11.4-9.4l-1.3,1c0.3,0.3,7,8.5,12.2,10c2.1,0.6,3.9,1.9,5.4,3.3
				c1.5,2,2.8,3.3,3,3.5l5,4.7l-3.8-5.7C189,78.5,187.9,76.9,186.1,75.2z"/>
			<path id="XMLID_232_" class="st5" d="M201.7,94.7c-0.1,0.2-2.2,3.9-3.4,8.3c-0.6-2.8-1.5-5.7-2.7-8.2l-1.5,0.7
				c3.4,7.2,4.1,18.3,4.1,18.4l1.6-0.1c0-0.2-0.2-2.7-0.7-6.1c0.2-5.6,3.9-12.1,3.9-12.2L201.7,94.7z"/>
			<path id="XMLID_231_" class="st5" d="M214.7,94.7c-3.3,6-4.6,18.5-4.6,19.1l1.6,0.2c0-0.1,1.2-12.7,4.4-18.4L214.7,94.7z"/>
		</g>
		<path id="XMLID_229_" class="st6" d="M190,59c0,4-3.3,7.3-7.3,7.3h-27.4c-4,0-7.3-3.3-7.3-7.3v-0.4c0-4,3.3-7.3,7.3-7.3h27.4
			c4,0,7.3,3.3,7.3,7.3V59z"/>
		<path id="XMLID_228_" class="st7" d="M232,85.9c0,5.2-4.2,9.4-9.4,9.4h-37.2c-5.2,0-9.4-4.2-9.4-9.4v-0.2c0-5.2,4.2-9.4,9.4-9.4
			h37.2c5.2,0,9.4,4.2,9.4,9.4V85.9z"/>
		<path id="XMLID_227_" class="st8" d="M240,74.9c0,3.5-2.9,6.4-6.4,6.4h-23.2c-3.5,0-6.4-2.9-6.4-6.4v-1.2c0-3.5,2.9-6.4,6.4-6.4
			h23.2c3.5,0,6.4,2.9,6.4,6.4V74.9z"/>
	</g>
	<g id="XMLID_218_">
		<g id="XMLID_222_">
			<path id="XMLID_225_" class="st5" d="M613.5,75.2c-1.7-2.4-3.4-5.6-3-8.8l-1.6-0.2c-0.3,2.2,0.3,4.5,1.2,6.4
				c-0.9-0.5-1.8-0.9-2.7-1.2c-4.7-1.3-11.3-9.4-11.4-9.4l-1.3,1c0.3,0.3,7,8.5,12.2,10c2.1,0.6,3.9,1.9,5.4,3.3
				c1.5,2,2.8,3.3,3,3.5l5,4.7l-3.8-5.7C616.4,78.5,615.3,76.9,613.5,75.2z"/>
			<path id="XMLID_224_" class="st5" d="M629.1,94.7c-0.1,0.2-2.2,3.9-3.4,8.3c-0.6-2.8-1.5-5.7-2.7-8.2l-1.5,0.7
				c3.4,7.2,4.1,18.3,4.1,18.4l1.6-0.1c0-0.2-0.2-2.7-0.7-6.1c0.2-5.6,3.9-12.1,3.9-12.2L629.1,94.7z"/>
			<path id="XMLID_223_" class="st5" d="M642.1,94.7c-3.3,6-4.6,18.5-4.6,19.1l1.6,0.2c0-0.1,1.2-12.7,4.4-18.4L642.1,94.7z"/>
		</g>
		<path id="XMLID_221_" class="st6" d="M616,59c0,4-3.3,7.3-7.3,7.3h-27.4c-4,0-7.3-3.3-7.3-7.3v-0.4c0-4,3.3-7.3,7.3-7.3h27.4
			c4,0,7.3,3.3,7.3,7.3V59z"/>
		<path id="XMLID_220_" class="st7" d="M661,85.9c0,5.2-4.2,9.4-9.4,9.4h-37.2c-5.2,0-9.4-4.2-9.4-9.4v-0.2c0-5.2,4.2-9.4,9.4-9.4
			h37.2c5.2,0,9.4,4.2,9.4,9.4V85.9z"/>
		<path id="XMLID_219_" class="st8" d="M667,74.9c0,3.5-2.9,6.4-6.4,6.4h-23.2c-3.5,0-6.4-2.9-6.4-6.4v-1.2c0-3.5,2.9-6.4,6.4-6.4
			h23.2c3.5,0,6.4,2.9,6.4,6.4V74.9z"/>
	</g>
</g>
<circle id="XMLID_216_" class="st9" cx="70.1" cy="24.7" r="7"/>
<circle id="XMLID_215_" class="st9" cx="307.4" cy="56.9" r="4.1"/>
<circle id="XMLID_214_" class="st9" cx="588.8" cy="17.3" r="9.3"/>
<circle id="XMLID_213_" class="st9" cx="792.7" cy="61.4" r="8.6"/>
<rect id="XMLID_1_" x="-119.7" y="-105.1" class="st10" width="1218.2" height="342"/>
</svg>
