<?xml version="1.0" encoding="utf-8"?>
<!-- Generator: Adobe Illustrator 19.0.0, SVG Export Plug-In . SVG Version: 6.00 Build 0)  -->
<svg version="1.1" xmlns="http://www.w3.org/2000/svg" xmlns:xlink="http://www.w3.org/1999/xlink" x="0px" y="0px"
	 viewBox="0 0 240 100" style="enable-background:new 0 0 240 100;" xml:space="preserve">
<style type="text/css">
	.st0{fill:url(#XMLID_11_);stroke:#383F51;stroke-miterlimit:10;}
	.st1{opacity:0.7;fill:url(#XMLID_12_);stroke:#383F51;stroke-miterlimit:10;}
	.st2{opacity:0.3;}
	.st3{filter:url(#Adobe_OpacityMaskFilter);}
	.st4{mask:url(#XMLID_13_);}
	.st5{fill:#FFFFFF;}
	.st6{fill:none;stroke:#FFFFFF;stroke-miterlimit:10;}
	.st7{fill:#F7EDE2;}
	.st8{font-family:'GloriaHallelujah';}
	.st9{font-size:26.3527px;}
</style>
<g id="Layer_1">
</g>
<g id="Layer_2">
	<g id="XMLID_3_">
		<radialGradient id="XMLID_11_" cx="47.3125" cy="50.3125" r="42.3125" gradientUnits="userSpaceOnUse">
			<stop  offset="0.8473" style="stop-color:#383F51"/>
			<stop  offset="0.862" style="stop-color:#444A5B"/>
			<stop  offset="0.8903" style="stop-color:#555B6A"/>
			<stop  offset="0.9113" style="stop-color:#5B616F"/>
			<stop  offset="0.9606" style="stop-color:#92969F"/>
			<stop  offset="1" style="stop-color:#FFFFFF"/>
		</radialGradient>
		<circle id="XMLID_6_" class="st0" cx="47.3" cy="50.3" r="42.3"/>
		<g id="XMLID_4_">
			<radialGradient id="XMLID_12_" cx="33.2534" cy="33.009" r="73.2574" fx="27.882" fy="27.9152" gradientUnits="userSpaceOnUse">
				<stop  offset="0" style="stop-color:#383F51"/>
				<stop  offset="0.3468" style="stop-color:#3A4153"/>
				<stop  offset="0.4717" style="stop-color:#414759"/>
				<stop  offset="0.5608" style="stop-color:#4C5363"/>
				<stop  offset="0.6328" style="stop-color:#5D6372"/>
				<stop  offset="0.6945" style="stop-color:#737885"/>
				<stop  offset="0.7491" style="stop-color:#8F939D"/>
				<stop  offset="0.7985" style="stop-color:#AFB2B9"/>
				<stop  offset="0.8425" style="stop-color:#D3D5D9"/>
				<stop  offset="0.883" style="stop-color:#FCFCFD"/>
				<stop  offset="0.8854" style="stop-color:#FFFFFF"/>
				<stop  offset="0.9838" style="stop-color:#FFFFFF"/>
				<stop  offset="1" style="stop-color:#FFFFFF"/>
			</radialGradient>
			<circle id="XMLID_5_" class="st1" cx="47.3" cy="50.3" r="42.3"/>
			<g id="XMLID_7_" class="st2">
				<defs>
					<filter id="Adobe_OpacityMaskFilter" filterUnits="userSpaceOnUse" x="4.5" y="7.5" width="79.1" height="79.1">
						<feFlood  style="flood-color:white;flood-opacity:1" result="back"/>
						<feBlend  in="SourceGraphic" in2="back" mode="normal"/>
					</filter>
				</defs>
				<mask maskUnits="userSpaceOnUse" x="4.5" y="7.5" width="79.1" height="79.1" id="XMLID_13_">
					<g id="XMLID_24_" class="st3">
						
							<image style="overflow:visible;" width="84" height="84" id="XMLID_25_" xlink:href="EA8A479C.jpg"  transform="matrix(1 0 0 1 2 5)">
						</image>
					</g>
				</mask>
				<g id="XMLID_23_" class="st4">
					<path id="XMLID_27_" class="st5" d="M12,57.3C12,34,31,15,54.3,15c9.9,0,19,3.4,26.2,9.1C72.8,14.3,60.8,8,47.3,8
						C23.9,8,5,26.9,5,50.3c0,13.5,6.3,25.5,16.1,33.2C15.4,76.3,12,67.2,12,57.3z"/>
					<path id="XMLID_26_" class="st6" d="M12,57.3C12,34,31,15,54.3,15c9.9,0,19,3.4,26.2,9.1C72.8,14.3,60.8,8,47.3,8
						C23.9,8,5,26.9,5,50.3c0,13.5,6.3,25.5,16.1,33.2C15.4,76.3,12,67.2,12,57.3z"/>
				</g>
			</g>
		</g>
	</g>
	<text id="XMLID_9_" transform="matrix(1 0 0 1 97.8751 64.2675)" class="st7 st8 st9">playground</text>
	<text id="XMLID_10_" transform="matrix(1 0 0 1 135.3751 41.2675)" class="st7 st8 st9">the</text>
</g>
</svg>
