<?xml version="1.0" encoding="utf-8"?>
<!-- Generator: Adobe Illustrator 19.0.0, SVG Export Plug-In . SVG Version: 6.00 Build 0)  -->
<svg version="1.1" id="Layer_1" xmlns="http://www.w3.org/2000/svg" xmlns:xlink="http://www.w3.org/1999/xlink" x="0px" y="0px"
	 viewBox="0 0 64 64" style="enable-background:new 0 0 64 64;" xml:space="preserve">
<style type="text/css">
	.st0{fill:#444444;}
</style>
<path id="XMLID_2_" class="st0" d="M31.8,0C14.1,0-0.4,14.3-0.4,32c0,17.7,14.4,32,32.2,32S64,49.7,64,32C64,14.3,49.6,0,31.8,0z
	 M40.2,21.3l-3,0c-2.4,0-2.8,1.1-2.8,2.8v3.6H40l-0.7,5.7h-4.9V48h-5.9V33.4h-4.9v-5.7h4.9v-4.2c0-4.9,3-7.5,7.4-7.5
	c2.1,0,3.9,0.2,4.4,0.2V21.3z"/>
</svg>
