<?xml version="1.0" encoding="utf-8"?>
<!-- Generator: Adobe Illustrator 19.0.0, SVG Export Plug-In . SVG Version: 6.00 Build 0)  -->
<svg version="1.1" id="Layer_1" xmlns="http://www.w3.org/2000/svg" xmlns:xlink="http://www.w3.org/1999/xlink" x="0px" y="0px"
	 viewBox="0 0 64 64" style="enable-background:new 0 0 64 64;" xml:space="preserve">
<style type="text/css">
	.st0{fill:#444444;}
</style>
<path id="XMLID_7_" class="st0" d="M27.3,19.1c-0.6-0.4-1.4-0.7-2.2-0.7c-1.1,0-2,0.5-2.7,1.3c-0.6,0.9-0.9,1.8-0.9,2.9
	c0,1.4,0.4,2.9,1.3,4.4c0.4,0.7,0.9,1.3,1.6,1.8c0.7,0.5,1.4,0.7,2.2,0.7c1.1,0,2-0.4,2.7-1.1c0.3-0.5,0.6-1,0.7-1.5
	c0.1-0.5,0.1-1,0.1-1.3c0-1.5-0.4-3.1-1.2-4.7C28.4,20.2,27.9,19.6,27.3,19.1z"/>
<path id="XMLID_6_" class="st0" d="M27,35.8c-0.2,0-0.7,0-1.6,0.1c-0.8,0.1-1.7,0.3-2.6,0.6c-0.2,0.1-0.5,0.2-0.9,0.3
	c-0.4,0.2-0.8,0.4-1.1,0.7c-0.4,0.3-0.7,0.7-0.9,1.2c-0.3,0.5-0.4,1.1-0.4,1.8c0,1.4,0.6,2.5,1.9,3.4c1.2,0.9,2.9,1.3,5,1.4
	c1.9,0,3.4-0.4,4.4-1.2c1-0.8,1.5-1.8,1.5-3c0-1-0.3-1.9-1-2.6c-0.7-0.7-1.8-1.6-3.3-2.6C27.6,35.8,27.3,35.8,27,35.8z"/>
<path id="XMLID_2_" class="st0" d="M32,0C14.3,0,0,14.3,0,32c0,17.7,14.3,32,32,32s32-14.3,32-32C64,14.3,49.7,0,32,0z M31.5,19.2
	c0.3,0.3,0.6,0.7,0.9,1.1c0.3,0.4,0.5,0.9,0.7,1.5c0.2,0.6,0.3,1.2,0.3,2c0,1.4-0.3,2.5-1,3.4c-0.3,0.4-0.6,0.8-1,1.1
	c-0.4,0.3-0.8,0.7-1.2,1c-0.2,0.2-0.5,0.5-0.7,0.8c-0.2,0.3-0.4,0.7-0.4,1.1c0,0.4,0.1,0.7,0.4,1c0.2,0.3,0.4,0.5,0.6,0.7l1.4,1.1
	c0.9,0.7,1.6,1.4,2.2,2.2c0.6,0.8,0.9,1.9,0.9,3.2c0,1.9-0.9,3.6-2.6,5c-1.8,1.5-4.4,2.3-7.8,2.3c-2.8,0-4.9-0.6-6.3-1.7
	C16.7,44,16,42.8,16,41.3c0-0.7,0.2-1.5,0.7-2.4c0.4-0.9,1.3-1.7,2.4-2.3c1.3-0.7,2.7-1.2,4.1-1.4c1.4-0.2,2.6-0.3,3.6-0.3
	c-0.3-0.4-0.6-0.8-0.8-1.2c-0.3-0.4-0.4-0.9-0.4-1.5c0-0.3,0.1-0.6,0.2-0.9c0.1-0.2,0.2-0.5,0.2-0.7c-0.5,0.1-0.9,0.1-1.3,0.1
	c-2.2,0-3.8-0.7-4.9-2c-1.2-1.2-1.8-2.6-1.8-4.2c0-1.9,0.8-3.7,2.5-5.2c1.1-0.9,2.3-1.5,3.6-1.8c1.2-0.2,2.4-0.4,3.5-0.4h8.1
	l-2.5,1.4h-2.5C30.9,18.7,31.2,18.9,31.5,19.2z M48,33.1h-4.6v4.6h-2.3v-4.6h-4.6v-2.3h4.6v-4.6h2.3v4.6H48V33.1z"/>
</svg>
