<?xml version="1.0" encoding="utf-8"?>
<!-- Generator: Adobe Illustrator 19.0.0, SVG Export Plug-In . SVG Version: 6.00 Build 0)  -->
<svg version="1.1" id="Layer_1" xmlns="http://www.w3.org/2000/svg" xmlns:xlink="http://www.w3.org/1999/xlink" x="0px" y="0px"
	 viewBox="0 0 64 64" style="enable-background:new 0 0 64 64;" xml:space="preserve">
<style type="text/css">
	.st0{fill:#444444;}
</style>
<ellipse id="XMLID_7_" class="st0" cx="32" cy="32" rx="6.2" ry="6.1"/>
<path id="XMLID_6_" class="st0" d="M39.1,25.7h4.3c0.5,0,0.9-0.4,0.9-0.9v-4.3c0-0.5-0.4-0.9-0.9-0.9h-4.3c-0.5,0-0.9,0.4-0.9,0.9
	v4.3C38.2,25.3,38.6,25.7,39.1,25.7z"/>
<path id="XMLID_3_" class="st0" d="M32,0C14.3,0,0,14.3,0,32c0,17.7,14.3,32,32,32s32-14.3,32-32C64,14.3,49.7,0,32,0z M48,44.2
	c0,2.1-1.7,3.8-3.8,3.8H19.8c-2.1,0-3.8-1.7-3.8-3.8V19.8c0-2.1,1.7-3.8,3.8-3.8h24.4c2.1,0,3.8,1.7,3.8,3.8V44.2z"/>
<path id="XMLID_2_" class="st0" d="M41.8,32c0,5.4-4.4,9.7-9.7,9.7c-5.4,0-9.7-4.4-9.7-9.7c0-0.9,0.1-1.7,0.3-2.6h-3v13.9
	c0,0.5,0.4,0.9,0.9,0.9h23c0.5,0,0.9-0.4,0.9-0.9V29.5h-3C41.7,30.3,41.8,31.1,41.8,32z"/>
</svg>
