<?xml version="1.0" standalone="no"?>
<!DOCTYPE svg PUBLIC "-//W3C//DTD SVG 20010904//EN"
 "http://www.w3.org/TR/2001/REC-SVG-20010904/DTD/svg10.dtd">
<svg version="1.0" xmlns="http://www.w3.org/2000/svg"
 width="700.000000pt" height="700.000000pt" viewBox="0 0 700.000000 700.000000"
 preserveAspectRatio="xMidYMid meet">
<metadata>
Created by potrace 1.11, written by Peter Selinger 2001-2013
</metadata>
<g transform="translate(0.000000,700.000000) scale(0.100000,-0.100000)"
fill="#000000" stroke="none">
<path d="M70 6746 c-1 -100 -3 -293 -5 -431 -4 -296 -15 -1077 -20 -1500 -2
-165 -7 -520 -11 -790 -9 -663 -9 -2515 0 -2960 17 -803 21 -870 63 -907 44
-38 140 -68 273 -83 25 -3 59 -8 75 -10 17 -2 75 -7 130 -11 55 -3 118 -7 140
-9 154 -14 652 -20 1550 -20 914 1 1448 5 2515 20 427 6 1055 14 1620 21 283
3 518 8 521 10 3 2 6 1544 6 3427 l0 3424 -3428 0 -3428 0 -1 -181z m2034
-1585 c4 -5 -3 -7 -14 -4 -23 6 -26 13 -6 13 8 0 17 -4 20 -9z m57 -48 c13
-16 12 -17 -3 -4 -10 7 -18 15 -18 17 0 8 8 3 21 -13z m254 -953 c3 -6 -1 -7
-9 -4 -18 7 -21 14 -7 14 6 0 13 -4 16 -10z m-725 -14 c0 -2 -7 -7 -16 -10 -8
-3 -12 -2 -9 4 6 10 25 14 25 6z m1054 -1615 c2 -45 -9 -97 -25 -115 -5 -5 -3
8 3 30 5 21 8 71 5 109 -3 49 -2 63 5 46 5 -14 10 -45 12 -70z m-375 -299 l26
-23 -25 15 c-24 15 -100 106 -100 120 0 4 16 -14 36 -41 20 -26 48 -58 63 -71z
m2236 -1192 c25 -11 -1 -11 -35 0 -20 6 -21 8 -5 8 11 0 29 -3 40 -8z m50 -10
c-3 -5 -12 -10 -18 -10 -7 0 -6 4 3 10 19 12 23 12 15 0z m93 -7 c-16 -2 -40
-2 -55 0 -16 2 -3 4 27 4 30 0 43 -2 28 -4z"/>
</g>
</svg>
