<?xml version="1.0" encoding="utf-8"?>
<!-- Generator: Adobe Illustrator 19.0.0, SVG Export Plug-In . SVG Version: 6.00 Build 0)  -->
<svg version="1.1" id="Layer_1" xmlns="http://www.w3.org/2000/svg" xmlns:xlink="http://www.w3.org/1999/xlink" x="0px" y="0px"
	 viewBox="0 0 64 64" style="enable-background:new 0 0 64 64;" xml:space="preserve">
<style type="text/css">
	.st0{fill-rule:evenodd;clip-rule:evenodd;fill:#FFFFFF;}
	.st1{fill-rule:evenodd;clip-rule:evenodd;fill:#E6E7E8;}
	.st2{fill-rule:evenodd;clip-rule:evenodd;fill:#BE2026;}
	.st3{fill-rule:evenodd;clip-rule:evenodd;fill:#AB1F23;}
	.st4{fill-rule:evenodd;clip-rule:evenodd;}
	.st5{fill-rule:evenodd;clip-rule:evenodd;fill:#848484;}
	.st6{fill:#EF4D4D;}
	.st7{fill:#FF5B57;}
	.st8{fill:#E24949;}
	.st9{fill:#9CD87C;}
	.st10{fill:#8ACC64;}
	.st11{fill:#FFFFFF;}
	.st12{fill:#81C953;}
	.st13{fill:#8ED366;}
	.st14{fill:#79BA4F;}
	.st15{fill:#B57C5D;}
	.st16{fill:#594439;}
	.st17{fill:#FF97BD;}
</style>
<g id="XMLID_2_">
	<path id="XMLID_387_" class="st0" d="M1.1,0.4h17.2c0.4,0,0.7,0.3,0.7,0.7v26.6c0,0.4-0.3,0.7-0.7,0.7H1.1c-0.4,0-0.7-0.3-0.7-0.7
		V1.1C0.4,0.7,0.7,0.4,1.1,0.4L1.1,0.4z"/>
	<path id="XMLID_386_" class="st1" d="M18.8,0.6C18.9,0.7,19,0.9,19,1.1v26.6c0,0.4-0.3,0.7-0.7,0.7H1.1c-0.2,0-0.4-0.1-0.5-0.3
		L18.8,0.6L18.8,0.6z"/>
	<path id="XMLID_385_" class="st0" d="M2.4,1.8H17c0.3,0,0.6,0.3,0.6,0.6v24c0,0.3-0.3,0.6-0.6,0.6H2.4c-0.3,0-0.6-0.3-0.6-0.6v-24
		C1.8,2.1,2.1,1.8,2.4,1.8L2.4,1.8z"/>
	<path id="XMLID_384_" class="st2" d="M2.4,1.8H17c0.3,0,0.6,0.3,0.6,0.6v24c0,0.3-0.3,0.6-0.6,0.6H2.4c-0.3,0-0.6-0.3-0.6-0.6v-24
		C1.8,2.1,2.1,1.8,2.4,1.8L2.4,1.8z"/>
	<path id="XMLID_383_" class="st3" d="M17.6,2.4C17.6,2.4,17.6,2.4,17.6,2.4l0,24c0,0.3-0.3,0.6-0.6,0.6H2.4c-0.3,0-0.6-0.3-0.6-0.6
		v-0.1L17.6,2.4L17.6,2.4z"/>
	<path id="XMLID_3_" class="st4" d="M2.9,1.7h0.7L1.7,3.6V2.9L2.9,1.7L2.9,1.7z M4.5,1.7h0.7L1.7,5.3V4.5L4.5,1.7L4.5,1.7z M6.2,1.7
		h0.7L1.7,6.9V6.2L6.2,1.7L6.2,1.7z M7.8,1.7h0.7L1.7,8.5V7.8L7.8,1.7L7.8,1.7z M9.5,1.7h0.7l-8.4,8.4V9.5L9.5,1.7L9.5,1.7z
		 M11.1,1.7h0.7L1.7,11.8v-0.7L11.1,1.7L11.1,1.7z M12.7,1.7h0.7L1.7,13.5v-0.7L12.7,1.7L12.7,1.7z M14.4,1.7h0.7L1.7,15.1v-0.7
		L14.4,1.7L14.4,1.7z M16,1.7h0.7l-15,15V16L16,1.7L16,1.7z M17.5,1.9c0.1,0.1,0.2,0.3,0.2,0.5v0L1.7,18.4v-0.7L17.5,1.9L17.5,1.9z
		 M17.7,3.4v0.7L1.7,20v-0.7L17.7,3.4L17.7,3.4z M17.7,5v0.7L1.7,21.6v-0.7L17.7,5L17.7,5z M17.7,6.7v0.7L1.7,23.3v-0.7L17.7,6.7
		L17.7,6.7z M17.7,8.3V9L1.7,24.9v-0.7L17.7,8.3L17.7,8.3z M17.7,9.9v0.7L1.8,26.5c0,0,0-0.1,0-0.1v-0.6L17.7,9.9L17.7,9.9z
		 M17.7,11.6v0.7L2.9,27.1H2.4c-0.1,0-0.2,0-0.2,0L17.7,11.6L17.7,11.6z M17.7,13.2v0.7L4.5,27.1H3.8L17.7,13.2L17.7,13.2z
		 M17.7,14.8v0.7L6.1,27.1H5.4L17.7,14.8L17.7,14.8z M17.7,16.5v0.7l-9.9,9.9H7.1L17.7,16.5L17.7,16.5z M17.7,18.1v0.7l-8.2,8.2H8.7
		L17.7,18.1L17.7,18.1z M17.7,19.8v0.7l-6.6,6.6h-0.7L17.7,19.8L17.7,19.8z M17.7,21.4v0.7l-5,5H12L17.7,21.4L17.7,21.4z M17.7,23
		v0.7l-3.3,3.3h-0.7L17.7,23L17.7,23z M17.7,24.7v0.7L16,27.1h-0.7L17.7,24.7L17.7,24.7z M17.7,26.3L17.7,26.3
		c0,0.5-0.3,0.8-0.7,0.8h-0.1L17.7,26.3L17.7,26.3z"/>
	<path id="XMLID_4_" class="st4" d="M1.1,0h17.2c0.6,0,1.1,0.5,1.1,1.1v26.6c0,0.6-0.5,1.1-1.1,1.1H1.1c-0.6,0-1.1-0.5-1.1-1.1V1.1
		C0,0.5,0.5,0,1.1,0L1.1,0z M1.1,0.5h17.2c0.3,0,0.6,0.3,0.6,0.6v26.6c0,0.3-0.3,0.6-0.6,0.6H1.1c-0.3,0-0.6-0.3-0.6-0.6V1.1
		C0.5,0.8,0.8,0.5,1.1,0.5L1.1,0.5z"/>
	<path id="XMLID_5_" class="st4" d="M2.4,1.4H17c0.6,0,1,0.5,1,1v24c0,0.6-0.5,1-1,1H2.4c-0.6,0-1-0.5-1-1v-24
		C1.4,1.9,1.9,1.4,2.4,1.4L2.4,1.4z M2.4,1.9H17c0.3,0,0.5,0.2,0.5,0.5v24c0,0.3-0.2,0.5-0.5,0.5H2.4c-0.3,0-0.5-0.2-0.5-0.5v-24
		C1.9,2.1,2.1,1.9,2.4,1.9L2.4,1.9z"/>
</g>
<g id="XMLID_1_">
	<path id="XMLID_42_" class="st0" d="M20.1,0.4h17.2c0.4,0,0.7,0.3,0.7,0.7v26.6c0,0.4-0.3,0.7-0.7,0.7H20.1c-0.4,0-0.7-0.3-0.7-0.7
		V1.1C19.4,0.7,19.7,0.4,20.1,0.4L20.1,0.4z"/>
	<path id="XMLID_41_" class="st1" d="M37.8,0.6C37.9,0.7,38,0.9,38,1.1v26.6c0,0.4-0.3,0.7-0.7,0.7H20.1c-0.2,0-0.4-0.1-0.5-0.3
		L37.8,0.6L37.8,0.6z"/>
	<path id="XMLID_40_" class="st0" d="M21.4,1.8H36c0.3,0,0.6,0.3,0.6,0.6v24c0,0.3-0.3,0.6-0.6,0.6H21.4c-0.3,0-0.6-0.3-0.6-0.6v-24
		C20.8,2.1,21.1,1.8,21.4,1.8L21.4,1.8z"/>
	<path id="XMLID_39_" class="st2" d="M21.4,1.8H36c0.3,0,0.6,0.3,0.6,0.6v24c0,0.3-0.3,0.6-0.6,0.6H21.4c-0.3,0-0.6-0.3-0.6-0.6v-24
		C20.8,2.1,21.1,1.8,21.4,1.8L21.4,1.8z"/>
	<path id="XMLID_38_" class="st3" d="M36.6,2.4C36.6,2.4,36.6,2.4,36.6,2.4l0,24c0,0.3-0.3,0.6-0.6,0.6H21.4c-0.3,0-0.6-0.3-0.6-0.6
		v-0.1L36.6,2.4L36.6,2.4z"/>
	<path id="XMLID_12_" class="st4" d="M21.9,1.7h0.7l-1.9,1.9V2.9L21.9,1.7L21.9,1.7z M23.6,1.7h0.7l-3.5,3.5V4.5L23.6,1.7L23.6,1.7z
		 M25.2,1.7h0.7l-5.2,5.2V6.2L25.2,1.7L25.2,1.7z M26.8,1.7h0.7l-6.8,6.8V7.8L26.8,1.7L26.8,1.7z M28.5,1.7h0.7l-8.4,8.4V9.5
		L28.5,1.7L28.5,1.7z M30.1,1.7h0.7L20.8,11.8v-0.7L30.1,1.7L30.1,1.7z M31.7,1.7h0.7L20.8,13.5v-0.7L31.7,1.7L31.7,1.7z M33.4,1.7
		h0.7L20.8,15.1v-0.7L33.4,1.7L33.4,1.7z M35,1.7h0.7l-15,15V16L35,1.7L35,1.7z M36.5,1.9c0.1,0.1,0.2,0.3,0.2,0.5v0L20.8,18.4v-0.7
		L36.5,1.9L36.5,1.9z M36.7,3.4v0.7L20.8,20v-0.7L36.7,3.4L36.7,3.4z M36.7,5v0.7L20.8,21.6v-0.7L36.7,5L36.7,5z M36.7,6.7v0.7
		L20.8,23.3v-0.7L36.7,6.7L36.7,6.7z M36.7,8.3V9L20.8,24.9v-0.7L36.7,8.3L36.7,8.3z M36.7,9.9v0.7L20.8,26.5c0,0,0-0.1,0-0.1v-0.6
		L36.7,9.9L36.7,9.9z M36.7,11.6v0.7L21.9,27.1h-0.5c-0.1,0-0.2,0-0.2,0L36.7,11.6L36.7,11.6z M36.7,13.2v0.7L23.5,27.1h-0.7
		L36.7,13.2L36.7,13.2z M36.7,14.8v0.7L25.2,27.1h-0.7L36.7,14.8L36.7,14.8z M36.7,16.5v0.7l-9.9,9.9h-0.7L36.7,16.5L36.7,16.5z
		 M36.7,18.1v0.7l-8.2,8.2h-0.7L36.7,18.1L36.7,18.1z M36.7,19.8v0.7l-6.6,6.6h-0.7L36.7,19.8L36.7,19.8z M36.7,21.4v0.7l-5,5H31
		L36.7,21.4L36.7,21.4z M36.7,23v0.7l-3.3,3.3h-0.7L36.7,23L36.7,23z M36.7,24.7v0.7L35,27.1h-0.7L36.7,24.7L36.7,24.7z M36.7,26.3
		L36.7,26.3c0,0.5-0.3,0.8-0.7,0.8h-0.1L36.7,26.3L36.7,26.3z"/>
	<path id="XMLID_9_" class="st4" d="M20.1,0h17.2c0.6,0,1.1,0.5,1.1,1.1v26.6c0,0.6-0.5,1.1-1.1,1.1H20.1c-0.6,0-1.1-0.5-1.1-1.1
		V1.1C19,0.5,19.5,0,20.1,0L20.1,0z M20.1,0.5h17.2c0.3,0,0.6,0.3,0.6,0.6v26.6c0,0.3-0.3,0.6-0.6,0.6H20.1c-0.3,0-0.6-0.3-0.6-0.6
		V1.1C19.5,0.8,19.8,0.5,20.1,0.5L20.1,0.5z"/>
	<path id="XMLID_6_" class="st4" d="M21.4,1.4H36c0.6,0,1,0.5,1,1v24c0,0.6-0.5,1-1,1H21.4c-0.6,0-1-0.5-1-1v-24
		C20.4,1.9,20.9,1.4,21.4,1.4L21.4,1.4z M21.4,1.9H36c0.3,0,0.5,0.2,0.5,0.5v24c0,0.3-0.2,0.5-0.5,0.5H21.4c-0.3,0-0.5-0.2-0.5-0.5
		v-24C20.9,2.1,21.1,1.9,21.4,1.9L21.4,1.9z"/>
</g>
<g id="XMLID_43_">
	<path id="XMLID_80_" class="st0" d="M39.1,0.4h17.2c0.4,0,0.7,0.3,0.7,0.7v26.6c0,0.4-0.3,0.7-0.7,0.7H39.1c-0.4,0-0.7-0.3-0.7-0.7
		V1.1C38.4,0.7,38.7,0.4,39.1,0.4L39.1,0.4z"/>
	<path id="XMLID_79_" class="st1" d="M56.8,0.6C56.9,0.7,57,0.9,57,1.1v26.6c0,0.4-0.3,0.7-0.7,0.7H39.1c-0.2,0-0.4-0.1-0.5-0.3
		L56.8,0.6L56.8,0.6z"/>
	<path id="XMLID_78_" class="st0" d="M40.4,1.8H55c0.3,0,0.6,0.3,0.6,0.6v24c0,0.3-0.3,0.6-0.6,0.6H40.4c-0.3,0-0.6-0.3-0.6-0.6v-24
		C39.8,2.1,40.1,1.8,40.4,1.8L40.4,1.8z"/>
	<path id="XMLID_77_" class="st5" d="M40.4,1.8H55c0.3,0,0.6,0.3,0.6,0.6v24c0,0.3-0.3,0.6-0.6,0.6H40.4c-0.3,0-0.6-0.3-0.6-0.6v-24
		C39.8,2.1,40.1,1.8,40.4,1.8L40.4,1.8z"/>
	<path id="XMLID_76_" class="st5" d="M55.6,2.4C55.6,2.4,55.6,2.4,55.6,2.4l0,24c0,0.3-0.3,0.6-0.6,0.6H40.4c-0.3,0-0.6-0.3-0.6-0.6
		v-0.1L55.6,2.4L55.6,2.4z"/>
	<path id="XMLID_47_" class="st4" d="M39.1,0h17.2c0.6,0,1.1,0.5,1.1,1.1v26.6c0,0.6-0.5,1.1-1.1,1.1H39.1c-0.6,0-1.1-0.5-1.1-1.1
		V1.1C38,0.5,38.5,0,39.1,0L39.1,0z M39.1,0.5h17.2c0.3,0,0.6,0.3,0.6,0.6v26.6c0,0.3-0.3,0.6-0.6,0.6H39.1c-0.3,0-0.6-0.3-0.6-0.6
		V1.1C38.5,0.8,38.8,0.5,39.1,0.5L39.1,0.5z"/>
	<path id="XMLID_44_" class="st4" d="M40.4,1.4H55c0.6,0,1,0.5,1,1v24c0,0.6-0.5,1-1,1H40.4c-0.6,0-1-0.5-1-1v-24
		C39.4,1.9,39.9,1.4,40.4,1.4L40.4,1.4z M40.4,1.9H55c0.3,0,0.5,0.2,0.5,0.5v24c0,0.3-0.2,0.5-0.5,0.5H40.4c-0.3,0-0.5-0.2-0.5-0.5
		v-24C39.9,2.1,40.2,1.9,40.4,1.9L40.4,1.9z"/>
</g>
<g id="XMLID_81_">
	<path id="XMLID_118_" class="st0" d="M1.1,29.2h17.2c0.4,0,0.7,0.3,0.7,0.7v26.6c0,0.4-0.3,0.7-0.7,0.7H1.1c-0.4,0-0.7-0.3-0.7-0.7
		V29.9C0.4,29.5,0.7,29.2,1.1,29.2L1.1,29.2z"/>
	<path id="XMLID_117_" class="st1" d="M18.8,29.4c0.1,0.1,0.2,0.3,0.2,0.5v26.6c0,0.4-0.3,0.7-0.7,0.7H1.1c-0.2,0-0.4-0.1-0.5-0.3
		L18.8,29.4L18.8,29.4z"/>
	<path id="XMLID_116_" class="st0" d="M2.4,30.6H17c0.3,0,0.6,0.3,0.6,0.6v24c0,0.3-0.3,0.6-0.6,0.6H2.4c-0.3,0-0.6-0.3-0.6-0.6v-24
		C1.8,30.9,2.1,30.6,2.4,30.6L2.4,30.6z"/>
	<path id="XMLID_115_" class="st5" d="M2.4,30.6H17c0.3,0,0.6,0.3,0.6,0.6v24c0,0.3-0.3,0.6-0.6,0.6H2.4c-0.3,0-0.6-0.3-0.6-0.6v-24
		C1.8,30.9,2.1,30.6,2.4,30.6L2.4,30.6z"/>
	<path id="XMLID_114_" class="st5" d="M17.6,31.2C17.6,31.2,17.6,31.2,17.6,31.2l0,24c0,0.3-0.3,0.6-0.6,0.6H2.4
		c-0.3,0-0.6-0.3-0.6-0.6v-0.1L17.6,31.2L17.6,31.2z"/>
	<path id="XMLID_85_" class="st4" d="M1.1,28.8h17.2c0.6,0,1.1,0.5,1.1,1.1v26.6c0,0.6-0.5,1.1-1.1,1.1H1.1c-0.6,0-1.1-0.5-1.1-1.1
		V29.9C0,29.3,0.5,28.8,1.1,28.8L1.1,28.8z M1.1,29.3h17.2c0.3,0,0.6,0.3,0.6,0.6v26.6c0,0.3-0.3,0.6-0.6,0.6H1.1
		c-0.3,0-0.6-0.3-0.6-0.6V29.9C0.5,29.6,0.8,29.3,1.1,29.3L1.1,29.3z"/>
	<path id="XMLID_82_" class="st4" d="M2.4,30.2H17c0.6,0,1,0.5,1,1v24c0,0.6-0.5,1-1,1H2.4c-0.6,0-1-0.5-1-1v-24
		C1.4,30.7,1.9,30.2,2.4,30.2L2.4,30.2z M2.4,30.7H17c0.3,0,0.5,0.2,0.5,0.5v24c0,0.3-0.2,0.5-0.5,0.5H2.4c-0.3,0-0.5-0.2-0.5-0.5
		v-24C1.9,31,2.1,30.7,2.4,30.7L2.4,30.7z"/>
</g>
<g id="XMLID_119_">
	<path id="XMLID_156_" class="st0" d="M20.1,29.2h17.2c0.4,0,0.7,0.3,0.7,0.7v26.6c0,0.4-0.3,0.7-0.7,0.7H20.1
		c-0.4,0-0.7-0.3-0.7-0.7V29.9C19.4,29.5,19.7,29.2,20.1,29.2L20.1,29.2z"/>
	<path id="XMLID_155_" class="st1" d="M37.8,29.4c0.1,0.1,0.2,0.3,0.2,0.5v26.6c0,0.4-0.3,0.7-0.7,0.7H20.1c-0.2,0-0.4-0.1-0.5-0.3
		L37.8,29.4L37.8,29.4z"/>
	<path id="XMLID_154_" class="st0" d="M21.4,30.6H36c0.3,0,0.6,0.3,0.6,0.6v24c0,0.3-0.3,0.6-0.6,0.6H21.4c-0.3,0-0.6-0.3-0.6-0.6
		v-24C20.8,30.9,21.1,30.6,21.4,30.6L21.4,30.6z"/>
	<path id="XMLID_153_" class="st5" d="M21.4,30.6H36c0.3,0,0.6,0.3,0.6,0.6v24c0,0.3-0.3,0.6-0.6,0.6H21.4c-0.3,0-0.6-0.3-0.6-0.6
		v-24C20.8,30.9,21.1,30.6,21.4,30.6L21.4,30.6z"/>
	<path id="XMLID_152_" class="st5" d="M36.6,31.2C36.6,31.2,36.6,31.2,36.6,31.2l0,24c0,0.3-0.3,0.6-0.6,0.6H21.4
		c-0.3,0-0.6-0.3-0.6-0.6v-0.1L36.6,31.2L36.6,31.2z"/>
	<path id="XMLID_123_" class="st4" d="M20.1,28.8h17.2c0.6,0,1.1,0.5,1.1,1.1v26.6c0,0.6-0.5,1.1-1.1,1.1H20.1
		c-0.6,0-1.1-0.5-1.1-1.1V29.9C19,29.3,19.5,28.8,20.1,28.8L20.1,28.8z M20.1,29.3h17.2c0.3,0,0.6,0.3,0.6,0.6v26.6
		c0,0.3-0.3,0.6-0.6,0.6H20.1c-0.3,0-0.6-0.3-0.6-0.6V29.9C19.5,29.6,19.8,29.3,20.1,29.3L20.1,29.3z"/>
	<path id="XMLID_120_" class="st4" d="M21.4,30.2H36c0.6,0,1,0.5,1,1v24c0,0.6-0.5,1-1,1H21.4c-0.6,0-1-0.5-1-1v-24
		C20.4,30.7,20.9,30.2,21.4,30.2L21.4,30.2z M21.4,30.7H36c0.3,0,0.5,0.2,0.5,0.5v24c0,0.3-0.2,0.5-0.5,0.5H21.4
		c-0.3,0-0.5-0.2-0.5-0.5v-24C20.9,31,21.1,30.7,21.4,30.7L21.4,30.7z"/>
</g>
<g id="XMLID_157_">
	<path id="XMLID_194_" class="st0" d="M39.2,29.2h17.2c0.4,0,0.7,0.3,0.7,0.7v26.6c0,0.4-0.3,0.7-0.7,0.7H39.2
		c-0.4,0-0.7-0.3-0.7-0.7V29.9C38.5,29.5,38.8,29.2,39.2,29.2L39.2,29.2z"/>
	<path id="XMLID_193_" class="st1" d="M56.9,29.4c0.1,0.1,0.2,0.3,0.2,0.5v26.6c0,0.4-0.3,0.7-0.7,0.7H39.2c-0.2,0-0.4-0.1-0.5-0.3
		L56.9,29.4L56.9,29.4z"/>
	<path id="XMLID_192_" class="st0" d="M40.5,30.6h14.6c0.3,0,0.6,0.3,0.6,0.6v24c0,0.3-0.3,0.6-0.6,0.6H40.5c-0.3,0-0.6-0.3-0.6-0.6
		v-24C39.9,30.9,40.2,30.6,40.5,30.6L40.5,30.6z"/>
	<path id="XMLID_191_" class="st2" d="M40.5,30.6h14.6c0.3,0,0.6,0.3,0.6,0.6v24c0,0.3-0.3,0.6-0.6,0.6H40.5c-0.3,0-0.6-0.3-0.6-0.6
		v-24C39.9,30.9,40.2,30.6,40.5,30.6L40.5,30.6z"/>
	<path id="XMLID_190_" class="st3" d="M55.7,31.2C55.7,31.2,55.7,31.2,55.7,31.2l0,24c0,0.3-0.3,0.6-0.6,0.6H40.5
		c-0.3,0-0.6-0.3-0.6-0.6v-0.1L55.7,31.2L55.7,31.2z"/>
	<path id="XMLID_164_" class="st4" d="M41,30.6h0.7l-1.9,1.9v-0.7L41,30.6L41,30.6z M42.6,30.6h0.7l-3.5,3.5v-0.7L42.6,30.6
		L42.6,30.6z M44.3,30.6H45l-5.2,5.2V35L44.3,30.6L44.3,30.6z M45.9,30.6h0.7l-6.8,6.8v-0.7L45.9,30.6L45.9,30.6z M47.6,30.6h0.7
		L39.8,39v-0.7L47.6,30.6L47.6,30.6z M49.2,30.6h0.7L39.8,40.6v-0.7L49.2,30.6L49.2,30.6z M50.8,30.6h0.7L39.8,42.3v-0.7L50.8,30.6
		L50.8,30.6z M52.5,30.6h0.7L39.8,43.9v-0.7L52.5,30.6L52.5,30.6z M54.1,30.6h0.7l-15,15v-0.7L54.1,30.6L54.1,30.6z M55.6,30.8
		c0.1,0.1,0.2,0.3,0.2,0.5v0L39.8,47.2v-0.7L55.6,30.8L55.6,30.8z M55.8,32.2v0.7L39.8,48.8v-0.7L55.8,32.2L55.8,32.2z M55.8,33.8
		v0.7L39.8,50.5v-0.7L55.8,33.8L55.8,33.8z M55.8,35.5v0.7L39.8,52.1v-0.7L55.8,35.5L55.8,35.5z M55.8,37.1v0.7L39.8,53.7V53
		L55.8,37.1L55.8,37.1z M55.8,38.8v0.7L39.9,55.4c0,0,0-0.1,0-0.1v-0.6L55.8,38.8L55.8,38.8z M55.8,40.4v0.7L41,55.9h-0.5
		c-0.1,0-0.2,0-0.2,0L55.8,40.4L55.8,40.4z M55.8,42v0.7L42.6,55.9h-0.7L55.8,42L55.8,42z M55.8,43.7v0.7L44.2,55.9h-0.7L55.8,43.7
		L55.8,43.7z M55.8,45.3V46l-9.9,9.9h-0.7L55.8,45.3L55.8,45.3z M55.8,46.9v0.7l-8.2,8.2h-0.7L55.8,46.9L55.8,46.9z M55.8,48.6v0.7
		l-6.6,6.6h-0.7L55.8,48.6L55.8,48.6z M55.8,50.2v0.7l-5,5h-0.7L55.8,50.2L55.8,50.2z M55.8,51.9v0.7l-3.3,3.3h-0.7L55.8,51.9
		L55.8,51.9z M55.8,53.5v0.7l-1.7,1.7h-0.7L55.8,53.5L55.8,53.5z M55.8,55.1L55.8,55.1c0,0.5-0.3,0.8-0.7,0.8H55L55.8,55.1
		L55.8,55.1z"/>
	<path id="XMLID_161_" class="st4" d="M39.2,28.8h17.2c0.6,0,1.1,0.5,1.1,1.1v26.6c0,0.6-0.5,1.1-1.1,1.1H39.2
		c-0.6,0-1.1-0.5-1.1-1.1V29.9C38.1,29.3,38.6,28.8,39.2,28.8L39.2,28.8z M39.2,29.3h17.2c0.3,0,0.6,0.3,0.6,0.6v26.6
		c0,0.3-0.3,0.6-0.6,0.6H39.2c-0.3,0-0.6-0.3-0.6-0.6V29.9C38.6,29.6,38.9,29.3,39.2,29.3L39.2,29.3z"/>
	<path id="XMLID_158_" class="st4" d="M40.5,30.2h14.6c0.6,0,1,0.5,1,1v24c0,0.6-0.5,1-1,1H40.5c-0.6,0-1-0.5-1-1v-24
		C39.5,30.7,40,30.2,40.5,30.2L40.5,30.2z M40.5,30.7h14.6c0.3,0,0.5,0.2,0.5,0.5v24c0,0.3-0.2,0.5-0.5,0.5H40.5
		c-0.3,0-0.5-0.2-0.5-0.5v-24C40,31,40.2,30.7,40.5,30.7L40.5,30.7z"/>
</g>
<g id="XMLID_64_">
	<g id="XMLID_93_">
		<path id="XMLID_62_" class="st6" d="M9.1,48.9c-0.3,0-0.7-0.1-1-0.2c0.6,0.5,1.4,0.8,2.1,0.8c2.8,0,5.1-4.5,5.1-7.6
			c0-0.4,0-0.7-0.1-1C14.7,44.6,12.1,48.9,9.1,48.9z"/>
		<path id="XMLID_61_" class="st7" d="M15.2,41c-0.5-2.2-2.5-2.5-5-2.5c-2.8,0-5.1,0.5-5.1,3.5c0,2.3,1.2,5.3,3,6.8
			c0.3,0.1,0.7,0.2,1,0.2C12.1,48.9,14.7,44.6,15.2,41z"/>
	</g>
	<path id="XMLID_60_" class="st8" d="M12.1,39.7c0,0.3-0.8,0.6-1.8,0.6c-1,0-1.8-0.3-1.8-0.6s0.8-0.5,1.8-0.5
		C11.2,39.2,12.1,39.4,12.1,39.7z"/>
	<path id="XMLID_59_" class="st9" d="M12.2,38.2c-0.4,1.2-1.5,1.9-2.3,1.7c-0.8-0.2-1.1-1.3-0.7-2.5c0.4-1.2,1.5-1.9,2.3-1.7
		C12.4,35.9,12.7,37,12.2,38.2z"/>
	<path id="XMLID_58_" class="st10" d="M10.8,37.7c0.4,1,0.2,2-0.5,2.2c-0.7,0.2-1.6-0.4-2.1-1.4c-0.4-1-0.2-2,0.5-2.2
		C9.5,36.1,10.4,36.7,10.8,37.7z"/>
	<g id="XMLID_69_">
		<g id="XMLID_88_">
			<path id="XMLID_57_" d="M9.2,45c0.7,0.4,1.6,0.5,2.2,0c0.2-0.1,0-0.5-0.2-0.3c-0.5,0.4-1.3,0.4-1.9,0C9.1,44.6,9,44.9,9.2,45
				L9.2,45z"/>
		</g>
		<g id="XMLID_73_">
			<ellipse id="XMLID_56_" cx="8.2" cy="43.1" rx="0.5" ry="0.5"/>
			<circle id="XMLID_55_" class="st11" cx="8.3" cy="42.9" r="0.2"/>
		</g>
		<g id="XMLID_70_">
			<ellipse id="XMLID_54_" cx="12.4" cy="43.1" rx="0.5" ry="0.5"/>
			<circle id="XMLID_53_" class="st11" cx="12.5" cy="42.9" r="0.2"/>
		</g>
	</g>
	<g id="XMLID_65_">
		<path id="XMLID_52_" class="st6" d="M6,40.3v0.4C7,40.7,7,40.3,6,40.3z"/>
		<path id="XMLID_51_" class="st6" d="M8,40.3c-1,0-1,0.4,0,0.4V40.3z"/>
		<path id="XMLID_50_" class="st6" d="M7,40.9v0.4V40.9z"/>
	</g>
</g>
<g id="XMLID_63_">
	<g id="XMLID_99_">
		<path id="XMLID_101_" class="st6" d="M47.1,19.9c-0.3,0-0.7-0.1-1-0.2c0.6,0.5,1.4,0.8,2.1,0.8c2.8,0,5.1-4.5,5.1-7.6
			c0-0.4,0-0.7-0.1-1C52.7,15.6,50.1,19.9,47.1,19.9z"/>
		<path id="XMLID_100_" class="st7" d="M53.2,12c-0.5-2.2-2.5-2.5-5-2.5c-2.8,0-5.1,0.5-5.1,3.5c0,2.3,1.2,5.3,3,6.8
			c0.3,0.1,0.7,0.2,1,0.2C50.1,19.9,52.7,15.6,53.2,12z"/>
	</g>
	<path id="XMLID_98_" class="st8" d="M50.1,10.7c0,0.3-0.8,0.6-1.8,0.6s-1.8-0.3-1.8-0.6c0-0.3,0.8-0.5,1.8-0.5S50.1,10.4,50.1,10.7
		z"/>
	<path id="XMLID_97_" class="st9" d="M50.2,9.2c-0.4,1.2-1.5,1.9-2.3,1.7c-0.8-0.2-1.1-1.3-0.7-2.5c0.4-1.2,1.5-1.9,2.3-1.7
		C50.4,6.9,50.7,8,50.2,9.2z"/>
	<path id="XMLID_96_" class="st10" d="M48.8,8.7c0.4,1,0.2,2-0.5,2.2c-0.7,0.2-1.6-0.4-2.1-1.4c-0.4-1-0.2-2,0.5-2.2
		C47.5,7.1,48.4,7.7,48.8,8.7z"/>
	<g id="XMLID_72_">
		<g id="XMLID_94_">
			<path id="XMLID_95_" d="M47.2,16c0.7,0.4,1.6,0.5,2.2,0c0.2-0.1,0-0.5-0.2-0.3c-0.5,0.4-1.3,0.4-1.9,0C47.1,15.6,47,15.9,47.2,16
				L47.2,16z"/>
		</g>
		<g id="XMLID_90_">
			<ellipse id="XMLID_92_" cx="46.2" cy="14.1" rx="0.5" ry="0.5"/>
			<circle id="XMLID_91_" class="st11" cx="46.3" cy="13.9" r="0.2"/>
		</g>
		<g id="XMLID_74_">
			<ellipse id="XMLID_89_" cx="50.4" cy="14.1" rx="0.5" ry="0.5"/>
			<circle id="XMLID_75_" class="st11" cx="50.5" cy="13.9" r="0.2"/>
		</g>
	</g>
	<g id="XMLID_66_">
		<path id="XMLID_71_" class="st6" d="M44,11.3v0.4C45,11.7,45,11.3,44,11.3z"/>
		<path id="XMLID_68_" class="st6" d="M46,11.3c-1,0-1,0.4,0,0.4V11.3z"/>
		<path id="XMLID_67_" class="st6" d="M45,11.9v0.4V11.9z"/>
	</g>
</g>
<g id="XMLID_140_">
	<g id="XMLID_210_">
		<path id="XMLID_145_" class="st12" d="M34.4,40C34.4,40.1,34.4,40.1,34.4,40c0,3.9-3.3,8.4-7.3,8.4c-0.4,0-0.8,0-1.2-0.1
			c0.8,0.5,1.8,0.8,2.8,0.8c3.4,0,6.2-3.8,6.2-7.1C34.9,41.3,34.7,40.6,34.4,40z"/>
		<path id="XMLID_139_" class="st13" d="M34.4,41.1C34.4,41.1,34.4,41.1,34.4,41.1c-0.9-1.9-3.2-2.6-5.8-2.6c-3.4,0-6.2,1.3-6.2,4.6
			c0,2.3,1.4,4.9,3.5,6.2c0.4,0.1,0.8,0.1,1.2,0.1C31.1,49.4,34.4,45,34.4,41.1z"/>
	</g>
	<ellipse id="XMLID_134_" class="st14" cx="28.7" cy="38.7" rx="1.5" ry="0.6"/>
	<g id="XMLID_133_">
		<g id="XMLID_130_">
			<path id="XMLID_137_" class="st15" d="M29.4,38.3c-0.2-0.6-0.3-1.6,0.4-2.1c0.8-0.5,0.1-1.8-0.8-1.3c-1.2,0.8-1.4,2.4-1.1,3.7
				C28.2,39.6,29.6,39.2,29.4,38.3L29.4,38.3z"/>
		</g>
	</g>
	<g id="XMLID_141_">
		<g id="XMLID_147_">
			<g id="XMLID_199_">
				<ellipse id="XMLID_132_" cx="26.3" cy="42.3" rx="0.6" ry="0.6"/>
				<circle id="XMLID_128_" class="st11" cx="26.5" cy="42.1" r="0.2"/>
			</g>
			<g id="XMLID_148_">
				<ellipse id="XMLID_127_" cx="31.4" cy="42.3" rx="0.6" ry="0.6"/>
				<circle id="XMLID_126_" class="st11" cx="31.5" cy="42.1" r="0.2"/>
			</g>
		</g>
		<g id="XMLID_142_">
			<path id="XMLID_113_" class="st16" d="M30.1,44.1c0,0.6-0.5,1.1-1.2,1.1c-0.7,0-1.2-0.6-1.2-1.1c0-0.6,0.5-0.5,1.2-0.5
				C29.5,43.6,30.1,43.5,30.1,44.1z"/>
			<path id="XMLID_112_" class="st17" d="M29.4,45.1c0,0.3-0.2,0.5-0.5,0.5l0,0c-0.3,0-0.5-0.2-0.5-0.5v-0.5c0-0.3,0.2-0.3,0.5-0.3
				l0,0c0.3,0,0.5,0,0.5,0.3V45.1z"/>
		</g>
	</g>
</g>
</svg>
