<?xml version="1.0" encoding="utf-8"?>
<!-- Generator: Adobe Illustrator 19.0.0, SVG Export Plug-In . SVG Version: 6.00 Build 0)  -->
<svg version="1.1" xmlns="http://www.w3.org/2000/svg" xmlns:xlink="http://www.w3.org/1999/xlink" x="0px" y="0px"
	 viewBox="0 0 64 64" style="enable-background:new 0 0 64 64;" xml:space="preserve">
<style type="text/css">
	.st0{fill-rule:evenodd;clip-rule:evenodd;}
	.st1{fill-rule:evenodd;clip-rule:evenodd;fill:#FFFFFF;}
	.st2{fill-rule:evenodd;clip-rule:evenodd;fill:#E6E7E8;}
	.st3{fill-rule:evenodd;clip-rule:evenodd;fill:#BE2026;}
	.st4{fill-rule:evenodd;clip-rule:evenodd;fill:#AB1F23;}
	.st5{fill-rule:evenodd;clip-rule:evenodd;fill:#848484;}
	.st6{fill:#EF4D4D;}
	.st7{fill:#FF5B57;}
	.st8{fill:#E24949;}
	.st9{fill:#9CD87C;}
	.st10{fill:#8ACC64;}
	.st11{fill:#FFFFFF;}
	.st12{fill:#81C953;}
	.st13{fill:#8ED366;}
	.st14{fill:#79BA4F;}
	.st15{fill:#B57C5D;}
	.st16{fill:#594439;}
	.st17{fill:#FF97BD;}
</style>
<g id="Layer_2">
	<rect id="XMLID_3_" class="st0" width="64" height="64"/>
</g>
<g id="Layer_1">
	<g id="XMLID_2_">
		<path id="XMLID_387_" class="st1" d="M1.2,0.4h19.1c0.4,0,0.8,0.4,0.8,0.8v29.6c0,0.4-0.4,0.8-0.8,0.8H1.2c-0.4,0-0.8-0.4-0.8-0.8
			V1.2C0.4,0.8,0.8,0.4,1.2,0.4L1.2,0.4z"/>
		<path id="XMLID_386_" class="st2" d="M20.9,0.7C21,0.8,21.1,1,21.1,1.2v29.6c0,0.4-0.4,0.8-0.8,0.8H1.2c-0.2,0-0.5-0.1-0.6-0.3
			L20.9,0.7L20.9,0.7z"/>
		<path id="XMLID_385_" class="st1" d="M2.7,2h16.2c0.4,0,0.7,0.3,0.7,0.7v26.6c0,0.4-0.3,0.7-0.7,0.7H2.7C2.3,30,2,29.7,2,29.3V2.7
			C2,2.3,2.3,2,2.7,2L2.7,2z"/>
		<path id="XMLID_384_" class="st3" d="M2.7,2h16.2c0.4,0,0.7,0.3,0.7,0.7v26.6c0,0.4-0.3,0.7-0.7,0.7H2.7C2.3,30,2,29.7,2,29.3V2.7
			C2,2.3,2.3,2,2.7,2L2.7,2z"/>
		<path id="XMLID_383_" class="st4" d="M19.5,2.6C19.5,2.7,19.5,2.7,19.5,2.6l0,26.7c0,0.4-0.3,0.7-0.7,0.7H2.7
			C2.3,30,2,29.7,2,29.3v-0.1L19.5,2.6L19.5,2.6z"/>
		<path id="XMLID_4_" class="st0" d="M1.2,0h19.1c0.7,0,1.2,0.5,1.2,1.2v29.6c0,0.7-0.5,1.2-1.2,1.2H1.2C0.5,32,0,31.5,0,30.8V1.2
			C0,0.5,0.5,0,1.2,0L1.2,0z M1.2,0.6h19.1c0.4,0,0.7,0.3,0.7,0.7v29.6c0,0.4-0.3,0.7-0.7,0.7H1.2c-0.4,0-0.7-0.3-0.7-0.7V1.2
			C0.6,0.9,0.9,0.6,1.2,0.6L1.2,0.6z"/>
		<path id="XMLID_5_" class="st0" d="M2.7,1.6h16.2c0.6,0,1.1,0.5,1.1,1.1v26.6c0,0.6-0.5,1.1-1.1,1.1H2.7c-0.6,0-1.1-0.5-1.1-1.1
			V2.7C1.6,2.1,2.1,1.6,2.7,1.6L2.7,1.6z M2.7,2.1h16.2c0.3,0,0.6,0.2,0.6,0.6v26.6c0,0.3-0.2,0.6-0.6,0.6H2.7
			c-0.3,0-0.6-0.2-0.6-0.6V2.7C2.1,2.4,2.4,2.1,2.7,2.1L2.7,2.1z"/>
	</g>
	<g id="XMLID_1_">
		<path id="XMLID_42_" class="st1" d="M22.3,0.4h19.1c0.4,0,0.8,0.4,0.8,0.8v29.6c0,0.4-0.4,0.8-0.8,0.8H22.3
			c-0.4,0-0.8-0.4-0.8-0.8V1.2C21.5,0.8,21.9,0.4,22.3,0.4L22.3,0.4z"/>
		<path id="XMLID_41_" class="st2" d="M42,0.7c0.2,0.1,0.2,0.3,0.2,0.6v29.6c0,0.4-0.4,0.8-0.8,0.8H22.3c-0.2,0-0.5-0.1-0.6-0.3
			L42,0.7L42,0.7z"/>
		<path id="XMLID_40_" class="st1" d="M23.8,2H40c0.4,0,0.7,0.3,0.7,0.7v26.6c0,0.4-0.3,0.7-0.7,0.7H23.8c-0.4,0-0.7-0.3-0.7-0.7
			V2.7C23.1,2.3,23.4,2,23.8,2L23.8,2z"/>
		<path id="XMLID_39_" class="st3" d="M23.8,2H40c0.4,0,0.7,0.3,0.7,0.7v26.6c0,0.4-0.3,0.7-0.7,0.7H23.8c-0.4,0-0.7-0.3-0.7-0.7
			V2.7C23.1,2.3,23.4,2,23.8,2L23.8,2z"/>
		<path id="XMLID_38_" class="st4" d="M40.6,2.6C40.6,2.7,40.6,2.7,40.6,2.6l0,26.7c0,0.4-0.3,0.7-0.7,0.7H23.8
			c-0.4,0-0.7-0.3-0.7-0.7v-0.1L40.6,2.6L40.6,2.6z"/>
		<path id="XMLID_9_" class="st0" d="M22.3,0h19.1c0.7,0,1.2,0.5,1.2,1.2v29.6c0,0.7-0.5,1.2-1.2,1.2H22.3c-0.7,0-1.2-0.5-1.2-1.2
			V1.2C21.1,0.5,21.7,0,22.3,0L22.3,0z M22.3,0.6h19.1c0.4,0,0.7,0.3,0.7,0.7v29.6c0,0.4-0.3,0.7-0.7,0.7H22.3
			c-0.4,0-0.7-0.3-0.7-0.7V1.2C21.7,0.9,22,0.6,22.3,0.6L22.3,0.6z"/>
		<path id="XMLID_6_" class="st0" d="M23.8,1.6H40c0.6,0,1.1,0.5,1.1,1.1v26.6c0,0.6-0.5,1.1-1.1,1.1H23.8c-0.6,0-1.1-0.5-1.1-1.1
			V2.7C22.7,2.1,23.2,1.6,23.8,1.6L23.8,1.6z M23.8,2.1H40c0.3,0,0.6,0.2,0.6,0.6v26.6c0,0.3-0.2,0.6-0.6,0.6H23.8
			c-0.3,0-0.6-0.2-0.6-0.6V2.7C23.2,2.4,23.5,2.1,23.8,2.1L23.8,2.1z"/>
	</g>
	<g id="XMLID_43_">
		<path id="XMLID_80_" class="st1" d="M43.4,0.4h19.1c0.4,0,0.8,0.4,0.8,0.8v29.6c0,0.4-0.4,0.8-0.8,0.8H43.4
			c-0.4,0-0.8-0.4-0.8-0.8V1.2C42.6,0.8,43,0.4,43.4,0.4L43.4,0.4z"/>
		<path id="XMLID_79_" class="st2" d="M63.1,0.7c0.2,0.1,0.2,0.3,0.2,0.6v29.6c0,0.4-0.4,0.8-0.8,0.8H43.4c-0.2,0-0.5-0.1-0.6-0.3
			L63.1,0.7L63.1,0.7z"/>
		<path id="XMLID_78_" class="st1" d="M44.9,2h16.2c0.4,0,0.7,0.3,0.7,0.7v26.6c0,0.4-0.3,0.7-0.7,0.7H44.9c-0.4,0-0.7-0.3-0.7-0.7
			V2.7C44.2,2.3,44.5,2,44.9,2L44.9,2z"/>
		<path id="XMLID_77_" class="st5" d="M44.9,2h16.2c0.4,0,0.7,0.3,0.7,0.7v26.6c0,0.4-0.3,0.7-0.7,0.7H44.9c-0.4,0-0.7-0.3-0.7-0.7
			V2.7C44.2,2.3,44.5,2,44.9,2L44.9,2z"/>
		<path id="XMLID_76_" class="st5" d="M61.7,2.6C61.7,2.7,61.7,2.7,61.7,2.6l0,26.7c0,0.4-0.3,0.7-0.7,0.7H44.9
			c-0.4,0-0.7-0.3-0.7-0.7v-0.1L61.7,2.6L61.7,2.6z"/>
		<path id="XMLID_47_" class="st0" d="M43.4,0h19.1c0.7,0,1.2,0.5,1.2,1.2v29.6c0,0.7-0.5,1.2-1.2,1.2H43.4c-0.7,0-1.2-0.5-1.2-1.2
			V1.2C42.2,0.5,42.8,0,43.4,0L43.4,0z M43.4,0.6h19.1c0.4,0,0.7,0.3,0.7,0.7v29.6c0,0.4-0.3,0.7-0.7,0.7H43.4
			c-0.4,0-0.7-0.3-0.7-0.7V1.2C42.8,0.9,43.1,0.6,43.4,0.6L43.4,0.6z"/>
		<path id="XMLID_44_" class="st0" d="M44.9,1.6h16.2c0.6,0,1.1,0.5,1.1,1.1v26.6c0,0.6-0.5,1.1-1.1,1.1H44.9
			c-0.6,0-1.1-0.5-1.1-1.1V2.7C43.8,2.1,44.3,1.6,44.9,1.6L44.9,1.6z M44.9,2.1h16.2c0.3,0,0.6,0.2,0.6,0.6v26.6
			c0,0.3-0.2,0.6-0.6,0.6H44.9c-0.3,0-0.6-0.2-0.6-0.6V2.7C44.3,2.4,44.6,2.1,44.9,2.1L44.9,2.1z"/>
	</g>
	<g id="XMLID_81_">
		<path id="XMLID_118_" class="st1" d="M1.2,32.4h19.1c0.4,0,0.8,0.4,0.8,0.8v29.6c0,0.4-0.4,0.8-0.8,0.8H1.2
			c-0.4,0-0.8-0.4-0.8-0.8V33.2C0.4,32.8,0.8,32.4,1.2,32.4L1.2,32.4z"/>
		<path id="XMLID_117_" class="st2" d="M20.9,32.7c0.2,0.1,0.2,0.3,0.2,0.6v29.6c0,0.4-0.4,0.8-0.8,0.8H1.2c-0.2,0-0.5-0.1-0.6-0.3
			L20.9,32.7L20.9,32.7z"/>
		<path id="XMLID_116_" class="st1" d="M2.7,34h16.2c0.4,0,0.7,0.3,0.7,0.7v26.6c0,0.4-0.3,0.7-0.7,0.7H2.7C2.3,62,2,61.7,2,61.3
			V34.7C2,34.3,2.3,34,2.7,34L2.7,34z"/>
		<path id="XMLID_115_" class="st5" d="M2.7,34h16.2c0.4,0,0.7,0.3,0.7,0.7v26.6c0,0.4-0.3,0.7-0.7,0.7H2.7C2.3,62,2,61.7,2,61.3
			V34.7C2,34.3,2.3,34,2.7,34L2.7,34z"/>
		<path id="XMLID_114_" class="st5" d="M19.5,34.6C19.5,34.7,19.5,34.7,19.5,34.6l0,26.7c0,0.4-0.3,0.7-0.7,0.7H2.7
			C2.3,62,2,61.7,2,61.3v-0.1L19.5,34.6L19.5,34.6z"/>
		<path id="XMLID_85_" class="st0" d="M1.2,32h19.1c0.7,0,1.2,0.5,1.2,1.2v29.6c0,0.7-0.5,1.2-1.2,1.2H1.2C0.5,64,0,63.5,0,62.8
			V33.2C0,32.5,0.5,32,1.2,32L1.2,32z M1.2,32.6h19.1c0.4,0,0.7,0.3,0.7,0.7v29.6c0,0.4-0.3,0.7-0.7,0.7H1.2c-0.4,0-0.7-0.3-0.7-0.7
			V33.2C0.6,32.9,0.9,32.6,1.2,32.6L1.2,32.6z"/>
		<path id="XMLID_82_" class="st0" d="M2.7,33.6h16.2c0.6,0,1.1,0.5,1.1,1.1v26.6c0,0.6-0.5,1.1-1.1,1.1H2.7c-0.6,0-1.1-0.5-1.1-1.1
			V34.7C1.6,34.1,2.1,33.6,2.7,33.6L2.7,33.6z M2.7,34.1h16.2c0.3,0,0.6,0.2,0.6,0.6v26.6c0,0.3-0.2,0.6-0.6,0.6H2.7
			c-0.3,0-0.6-0.2-0.6-0.6V34.7C2.1,34.4,2.4,34.1,2.7,34.1L2.7,34.1z"/>
	</g>
	<g id="XMLID_119_">
		<path id="XMLID_156_" class="st1" d="M22.3,32.4h19.1c0.4,0,0.8,0.4,0.8,0.8v29.6c0,0.4-0.4,0.8-0.8,0.8H22.3
			c-0.4,0-0.8-0.4-0.8-0.8V33.2C21.5,32.8,21.9,32.4,22.3,32.4L22.3,32.4z"/>
		<path id="XMLID_155_" class="st2" d="M42,32.7c0.2,0.1,0.2,0.3,0.2,0.6v29.6c0,0.4-0.4,0.8-0.8,0.8H22.3c-0.2,0-0.5-0.1-0.6-0.3
			L42,32.7L42,32.7z"/>
		<path id="XMLID_154_" class="st1" d="M23.8,34H40c0.4,0,0.7,0.3,0.7,0.7v26.6c0,0.4-0.3,0.7-0.7,0.7H23.8c-0.4,0-0.7-0.3-0.7-0.7
			V34.7C23.1,34.3,23.4,34,23.8,34L23.8,34z"/>
		<path id="XMLID_153_" class="st5" d="M23.8,34H40c0.4,0,0.7,0.3,0.7,0.7v26.6c0,0.4-0.3,0.7-0.7,0.7H23.8c-0.4,0-0.7-0.3-0.7-0.7
			V34.7C23.1,34.3,23.4,34,23.8,34L23.8,34z"/>
		<path id="XMLID_152_" class="st5" d="M40.6,34.6C40.6,34.7,40.6,34.7,40.6,34.6l0,26.7c0,0.4-0.3,0.7-0.7,0.7H23.8
			c-0.4,0-0.7-0.3-0.7-0.7v-0.1L40.6,34.6L40.6,34.6z"/>
		<path id="XMLID_123_" class="st0" d="M22.3,32h19.1c0.7,0,1.2,0.5,1.2,1.2v29.6c0,0.7-0.5,1.2-1.2,1.2H22.3
			c-0.7,0-1.2-0.5-1.2-1.2V33.2C21.1,32.5,21.7,32,22.3,32L22.3,32z M22.3,32.6h19.1c0.4,0,0.7,0.3,0.7,0.7v29.6
			c0,0.4-0.3,0.7-0.7,0.7H22.3c-0.4,0-0.7-0.3-0.7-0.7V33.2C21.7,32.9,22,32.6,22.3,32.6L22.3,32.6z"/>
		<path id="XMLID_120_" class="st0" d="M23.8,33.6H40c0.6,0,1.1,0.5,1.1,1.1v26.6c0,0.6-0.5,1.1-1.1,1.1H23.8
			c-0.6,0-1.1-0.5-1.1-1.1V34.7C22.7,34.1,23.2,33.6,23.8,33.6L23.8,33.6z M23.8,34.1H40c0.3,0,0.6,0.2,0.6,0.6v26.6
			c0,0.3-0.2,0.6-0.6,0.6H23.8c-0.3,0-0.6-0.2-0.6-0.6V34.7C23.2,34.4,23.5,34.1,23.8,34.1L23.8,34.1z"/>
	</g>
	<g id="XMLID_157_">
		<path id="XMLID_194_" class="st1" d="M43.5,32.4h19.1c0.4,0,0.8,0.4,0.8,0.8v29.6c0,0.4-0.4,0.8-0.8,0.8H43.5
			c-0.4,0-0.8-0.4-0.8-0.8V33.2C42.7,32.8,43.1,32.4,43.5,32.4L43.5,32.4z"/>
		<path id="XMLID_193_" class="st2" d="M63.2,32.7c0.2,0.1,0.2,0.3,0.2,0.6v29.6c0,0.4-0.4,0.8-0.8,0.8H43.5c-0.2,0-0.5-0.1-0.6-0.3
			L63.2,32.7L63.2,32.7z"/>
		<path id="XMLID_192_" class="st1" d="M45,34h16.2c0.4,0,0.7,0.3,0.7,0.7v26.6c0,0.4-0.3,0.7-0.7,0.7H45c-0.4,0-0.7-0.3-0.7-0.7
			V34.7C44.3,34.3,44.6,34,45,34L45,34z"/>
		<path id="XMLID_191_" class="st3" d="M45,34h16.2c0.4,0,0.7,0.3,0.7,0.7v26.6c0,0.4-0.3,0.7-0.7,0.7H45c-0.4,0-0.7-0.3-0.7-0.7
			V34.7C44.3,34.3,44.6,34,45,34L45,34z"/>
		<path id="XMLID_190_" class="st4" d="M61.8,34.6C61.8,34.7,61.8,34.7,61.8,34.6l0,26.7c0,0.4-0.3,0.7-0.7,0.7H45
			c-0.4,0-0.7-0.3-0.7-0.7v-0.1L61.8,34.6L61.8,34.6z"/>
		<path id="XMLID_161_" class="st0" d="M43.5,32h19.1c0.7,0,1.2,0.5,1.2,1.2v29.6c0,0.7-0.5,1.2-1.2,1.2H43.5
			c-0.7,0-1.2-0.5-1.2-1.2V33.2C42.3,32.5,42.8,32,43.5,32L43.5,32z M43.5,32.6h19.1c0.4,0,0.7,0.3,0.7,0.7v29.6
			c0,0.4-0.3,0.7-0.7,0.7H43.5c-0.4,0-0.7-0.3-0.7-0.7V33.2C42.9,32.9,43.2,32.6,43.5,32.6L43.5,32.6z"/>
		<path id="XMLID_158_" class="st0" d="M45,33.6h16.2c0.6,0,1.1,0.5,1.1,1.1v26.6c0,0.6-0.5,1.1-1.1,1.1H45c-0.6,0-1.1-0.5-1.1-1.1
			V34.7C43.9,34.1,44.4,33.6,45,33.6L45,33.6z M45,34.1h16.2c0.3,0,0.6,0.2,0.6,0.6v26.6c0,0.3-0.2,0.6-0.6,0.6H45
			c-0.3,0-0.6-0.2-0.6-0.6V34.7C44.4,34.4,44.7,34.1,45,34.1L45,34.1z"/>
	</g>
	<g id="XMLID_64_">
		<g id="XMLID_93_">
			<path id="XMLID_62_" class="st6" d="M10.1,54.3c-0.4,0-0.7-0.1-1.1-0.2c0.7,0.6,1.5,0.9,2.3,0.9c3.1,0,5.7-5,5.7-8.4
				c0-0.4,0-0.8-0.1-1.1C16.3,49.5,13.5,54.3,10.1,54.3z"/>
			<path id="XMLID_61_" class="st7" d="M16.9,45.5c-0.5-2.4-2.8-2.8-5.6-2.8c-3.1,0-5.7,0.5-5.7,3.9c0,2.5,1.4,5.9,3.4,7.5
				c0.4,0.1,0.7,0.2,1.1,0.2C13.5,54.3,16.3,49.5,16.9,45.5z"/>
		</g>
		<path id="XMLID_60_" class="st8" d="M13.4,44.1c0,0.3-0.9,0.7-2,0.7c-1.1,0-2-0.4-2-0.7c0-0.3,0.9-0.5,2-0.5
			C12.5,43.6,13.4,43.8,13.4,44.1z"/>
		<path id="XMLID_59_" class="st9" d="M13.6,42.4c-0.5,1.3-1.6,2.1-2.6,1.9c-0.9-0.2-1.3-1.5-0.8-2.8c0.5-1.3,1.6-2.1,2.6-1.9
			C13.7,39.9,14.1,41.1,13.6,42.4z"/>
		<path id="XMLID_58_" class="st10" d="M12,41.9c0.5,1.1,0.3,2.2-0.5,2.4c-0.8,0.3-1.8-0.4-2.3-1.5c-0.5-1.1-0.3-2.2,0.5-2.4
			C10.5,40.1,11.5,40.8,12,41.9z"/>
		<g id="XMLID_69_">
			<g id="XMLID_88_">
				<path id="XMLID_57_" d="M10.2,50c0.7,0.5,1.8,0.6,2.5,0c0.2-0.2,0-0.5-0.2-0.4c-0.6,0.5-1.5,0.4-2.1,0
					C10.1,49.5,9.9,49.9,10.2,50L10.2,50z"/>
			</g>
			<g id="XMLID_73_">
				<ellipse id="XMLID_56_" cx="9" cy="47.8" rx="0.5" ry="0.5"/>
				<circle id="XMLID_55_" class="st11" cx="9.2" cy="47.7" r="0.2"/>
			</g>
			<g id="XMLID_70_">
				<ellipse id="XMLID_54_" cx="13.7" cy="47.8" rx="0.5" ry="0.5"/>
				<circle id="XMLID_53_" class="st11" cx="13.9" cy="47.7" r="0.2"/>
			</g>
		</g>
		<g id="XMLID_65_">
			<path id="XMLID_52_" class="st6" d="M7,44.8v0.4C8,45.2,8,44.8,7,44.8z"/>
			<path id="XMLID_51_" class="st6" d="M9,44.8c-1,0-1,0.4,0,0.4V44.8z"/>
			<path id="XMLID_50_" class="st6" d="M8,45.4v0.4V45.4z"/>
		</g>
	</g>
	<g id="XMLID_63_">
		<g id="XMLID_99_">
			<path id="XMLID_101_" class="st6" d="M52.3,22.1c-0.4,0-0.7-0.1-1.1-0.2c0.7,0.6,1.5,0.9,2.3,0.9c3.1,0,5.7-5,5.7-8.4
				c0-0.4,0-0.8-0.1-1.1C58.5,17.3,55.7,22.1,52.3,22.1z"/>
			<path id="XMLID_100_" class="st7" d="M59.1,13.3c-0.5-2.4-2.8-2.8-5.6-2.8c-3.1,0-5.7,0.5-5.7,3.9c0,2.5,1.4,5.9,3.4,7.5
				c0.4,0.1,0.7,0.2,1.1,0.2C55.7,22.1,58.5,17.3,59.1,13.3z"/>
		</g>
		<path id="XMLID_98_" class="st8" d="M55.6,11.9c0,0.3-0.9,0.7-2,0.7c-1.1,0-2-0.4-2-0.7c0-0.3,0.9-0.5,2-0.5
			C54.7,11.4,55.6,11.6,55.6,11.9z"/>
		<path id="XMLID_97_" class="st9" d="M55.8,10.2c-0.5,1.3-1.6,2.1-2.6,1.9c-0.9-0.2-1.3-1.5-0.8-2.8C52.9,8,54.1,7.2,55,7.4
			C55.9,7.7,56.3,8.9,55.8,10.2z"/>
		<path id="XMLID_96_" class="st10" d="M54.2,9.7c0.5,1.1,0.3,2.2-0.5,2.4c-0.8,0.3-1.8-0.4-2.3-1.5c-0.5-1.1-0.3-2.2,0.5-2.4
			C52.7,7.9,53.7,8.6,54.2,9.7z"/>
		<g id="XMLID_72_">
			<g id="XMLID_94_">
				<path id="XMLID_95_" d="M52.4,17.8c0.7,0.5,1.8,0.6,2.5,0c0.2-0.2,0-0.5-0.2-0.4c-0.6,0.5-1.5,0.4-2.1,0
					C52.3,17.3,52.1,17.7,52.4,17.8L52.4,17.8z"/>
			</g>
			<g id="XMLID_90_">
				<ellipse id="XMLID_92_" cx="51.2" cy="15.6" rx="0.5" ry="0.5"/>
				<circle id="XMLID_91_" class="st11" cx="51.4" cy="15.5" r="0.2"/>
			</g>
			<g id="XMLID_74_">
				<ellipse id="XMLID_89_" cx="55.9" cy="15.6" rx="0.5" ry="0.5"/>
				<circle id="XMLID_75_" class="st11" cx="56.1" cy="15.5" r="0.2"/>
			</g>
		</g>
		<g id="XMLID_66_">
			<path id="XMLID_71_" class="st6" d="M49,12.6V13C50,13,50,12.6,49,12.6z"/>
			<path id="XMLID_68_" class="st6" d="M51,12.6c-1,0-1,0.4,0,0.4V12.6z"/>
			<path id="XMLID_67_" class="st6" d="M50,13.2v0.4V13.2z"/>
		</g>
	</g>
	<g id="XMLID_140_">
		<g id="XMLID_210_">
			<path id="XMLID_145_" class="st12" d="M38.2,44.4C38.2,44.5,38.2,44.5,38.2,44.4c0,4.4-3.6,9.3-8.1,9.3c-0.5,0-0.9-0.1-1.4-0.2
				c0.9,0.6,2,0.9,3.1,0.9c3.8,0,6.9-4.2,6.9-7.8C38.7,45.8,38.5,45.1,38.2,44.4z"/>
			<path id="XMLID_139_" class="st13" d="M38.2,44.5C38.2,44.5,38.2,44.5,38.2,44.5c-1-2.1-3.5-2.9-6.4-2.9c-3.8,0-6.9,1.4-6.9,5.1
				c0,2.6,1.6,5.5,3.8,6.9c0.4,0.1,0.9,0.2,1.4,0.2C34.6,53.8,38.2,48.8,38.2,44.5z"/>
		</g>
		<ellipse id="XMLID_134_" class="st14" cx="31.9" cy="43" rx="1.7" ry="0.6"/>
		<g id="XMLID_133_">
			<g id="XMLID_130_">
				<path id="XMLID_137_" class="st15" d="M33.3,42.3c0-0.1,0-0.2-0.1-0.3c-0.1-0.3,0,0.1,0,0c0-0.1,0-0.3,0-0.4c0-0.1,0-0.3,0-0.4
					c0-0.2,0-0.2,0,0c0-0.1,0-0.2,0.1-0.3c0,0,0-0.1,0-0.1c-0.1,0.1-0.1,0.1,0,0c-0.1,0.1-0.1,0.1,0,0c-0.1,0.1-0.1,0.1,0,0
					c1.6-1,0.1-3.6-1.5-2.6c-1.6,1.1-2,3.1-1.5,4.9C30.9,44.9,33.8,44.2,33.3,42.3L33.3,42.3z"/>
			</g>
		</g>
		<g id="XMLID_141_">
			<g id="XMLID_147_">
				<g id="XMLID_199_">
					<ellipse id="XMLID_132_" cx="29.2" cy="47" rx="0.6" ry="0.7"/>
					<circle id="XMLID_128_" class="st11" cx="29.4" cy="46.8" r="0.2"/>
				</g>
				<g id="XMLID_148_">
					<ellipse id="XMLID_127_" cx="34.8" cy="47" rx="0.6" ry="0.7"/>
					<circle id="XMLID_126_" class="st11" cx="35" cy="46.8" r="0.2"/>
				</g>
			</g>
			<g id="XMLID_142_">
				<path id="XMLID_113_" class="st16" d="M33.4,48.9c0,0.6-0.6,1.3-1.3,1.3c-0.7,0-1.3-0.6-1.3-1.3c0-0.6,0.6-0.6,1.3-0.6
					C32.8,48.4,33.4,48.3,33.4,48.9z"/>
				<path id="XMLID_112_" class="st17" d="M32.6,50.1c0,0.3-0.2,0.6-0.5,0.6l0,0c-0.3,0-0.5-0.3-0.5-0.6v-0.6c0-0.3,0.2-0.3,0.5-0.3
					l0,0c0.3,0,0.5,0,0.5,0.3V50.1z"/>
			</g>
		</g>
	</g>
</g>
</svg>
