<?xml version="1.0" encoding="utf-8"?>
<!-- Generator: Adobe Illustrator 19.0.0, SVG Export Plug-In . SVG Version: 6.00 Build 0)  -->
<svg version="1.1" xmlns="http://www.w3.org/2000/svg" xmlns:xlink="http://www.w3.org/1999/xlink" x="0px" y="0px"
	 viewBox="0 0 64 64" style="enable-background:new 0 0 64 64;" xml:space="preserve">
<style type="text/css">
	.st0{fill:#EFEFEF;}
	.st1{fill:#E29825;}
	.st2{fill:#B0792B;}
	.st3{fill:#F6AC1C;}
	.st4{fill:#FFD183;}
	.st5{fill:#AE7A2B;}
	.st6{fill:#FBF8EF;}
	.st7{fill:#FFFFFF;}
	.st8{fill:#DFD9CD;}
	.st9{fill:#3A3A38;}
	.st10{fill:#E55556;}
	.st11{fill:#AA3333;}
	.st12{fill:#D3CBBD;}
	.st13{fill:#CF9952;}
	.st14{fill:#926327;}
	.st15{fill:#906226;}
	.st16{fill:#9DCA3B;}
	.st17{fill:#E1AF69;}
	.st18{fill:#F6C369;}
	.st19{fill:#E9C05B;}
	.st20{fill:#93783D;}
	.st21{fill:#B99E67;}
	.st22{fill:#F27F7F;}
	.st23{fill:#F0F1F2;}
	.st24{fill:#CB4646;}
	.st25{fill:#F6F6F5;}
	.st26{opacity:0.88;fill:#B2BDC6;}
</style>
<g id="Layer_2">
	<rect class="st0" width="64" height="64"/>
</g>
<g id="Layer_1">
	<g>
		<g>
			<g>
				<path class="st1" d="M51.4,26.6L51.4,26.6l0,10.2h0c2.3,0,4.1-1.8,4.1-4.1v-2C55.5,28.5,53.7,26.6,51.4,26.6z"/>
				<path class="st2" d="M51.4,35.8L51.4,35.8l0,1.1h0c2.3,0,4.1-1.8,4.1-4.1v-0.2C55.5,34.3,53.7,35.8,51.4,35.8z"/>
				<path class="st2" d="M53.2,36.4v-9.3c-0.6-0.3-1.2-0.4-1.8-0.4h0v10.2h0C52.1,36.8,52.7,36.7,53.2,36.4z"/>
			</g>
			<g>
				<path class="st1" d="M12.6,26.6L12.6,26.6l0,10.2h0c-2.3,0-4.1-1.8-4.1-4.1v-2C8.5,28.5,10.3,26.6,12.6,26.6z"/>
				<path class="st2" d="M12.6,35.8L12.6,35.8l0,1.1h0c-2.3,0-4.1-1.8-4.1-4.1v-0.2C8.5,34.3,10.3,35.8,12.6,35.8z"/>
				<path class="st2" d="M10.8,36.4v-9.3c0.6-0.3,1.2-0.4,1.8-0.4h0v10.2h0C11.9,36.8,11.3,36.7,10.8,36.4z"/>
			</g>
		</g>
		<path class="st3" d="M49.4,20H14.6c-1.7,0-3.2,1.4-3.2,3.2V42c0,1.7,1.4,3.2,3.2,3.2h34.8c1.7,0,3.2-1.4,3.2-3.2V23.2
			C52.5,21.5,51.1,20,49.4,20z"/>
		<path class="st4" d="M49.4,18.9H14.6c-1.7,0-3.2,1.4-3.2,3.2v18.8c0,1.7,1.4,3.2,3.2,3.2h34.8c1.7,0,3.2-1.4,3.2-3.2V22
			C52.5,20.3,51.1,18.9,49.4,18.9z"/>
		<path class="st3" d="M49.4,20H14.6c-1.7,0-3.2,1.4-3.2,3.2V42c0,1.7,1.4,3.2,3.2,3.2h34.8c1.7,0,3.2-1.4,3.2-3.2V23.2
			C52.5,21.5,51.1,20,49.4,20z"/>
		<g>
			<g>
				<path class="st4" d="M23.7,23.2H14c-0.5,0-0.9,0.4-0.9,0.9v17.2c0,0.5,0.4,0.9,0.9,0.9h9.7c0.5,0,0.9-0.4,0.9-0.9V24.1
					C24.7,23.6,24.2,23.2,23.7,23.2z"/>
				<path class="st5" d="M23.7,22.9H14c-0.5,0-0.9,0.4-0.9,0.9V41c0,0.5,0.4,0.9,0.9,0.9h9.7c0.5,0,0.9-0.4,0.9-0.9V23.8
					C24.7,23.3,24.2,22.9,23.7,22.9z"/>
				<g>
					<rect x="14" y="23.8" class="st6" width="9.7" height="17.2"/>
					<rect x="14" y="26.3" class="st7" width="9.7" height="1.3"/>
					<rect x="14" y="23.8" class="st8" width="9.7" height="0.9"/>
					<g>
						<path class="st9" d="M19.1,37.5h-2.7c0,0-0.1,0-0.1,0c0,0,0,0,0-0.1l2.8-6.1H18v1c0,0,0,0.1-0.1,0.1h-2.3c0,0-0.1,0-0.1-0.1
							V29c0,0,0-0.1,0.1-0.1h6.6c0,0,0.1,0,0.1,0.1v1.7c0,0,0,0,0,0L19.1,37.5C19.2,37.5,19.2,37.5,19.1,37.5z M16.6,37.3h2.5l3-6.6
							v-1.6h-6.4v3.1h2.1v-1c0,0,0-0.1,0.1-0.1h1.4c0,0,0.1,0,0.1,0c0,0,0,0,0,0.1L16.6,37.3z"/>
						<path class="st10" d="M18.9,37h-1.8l2.8-6.2h-2.4v1.1H16v-2.5h5.8v1.2L18.9,37z"/>
					</g>
				</g>
			</g>
			<g>
				<path class="st4" d="M36.8,23.2h-9.7c-0.5,0-0.9,0.4-0.9,0.9v17.2c0,0.5,0.4,0.9,0.9,0.9h9.7c0.5,0,0.9-0.4,0.9-0.9V24.1
					C37.8,23.6,37.4,23.2,36.8,23.2z"/>
				<path class="st5" d="M36.8,22.9h-9.7c-0.5,0-0.9,0.4-0.9,0.9V41c0,0.5,0.4,0.9,0.9,0.9h9.7c0.5,0,0.9-0.4,0.9-0.9V23.8
					C37.8,23.3,37.4,22.9,36.8,22.9z"/>
				<g>
					<rect x="27.1" y="23.8" class="st6" width="9.7" height="17.2"/>
					<rect x="27.1" y="26.3" class="st7" width="9.7" height="1.3"/>
					<rect x="27.1" y="23.8" class="st8" width="9.7" height="0.9"/>
					<g>
						<path class="st9" d="M32.3,37.5h-2.7c0,0-0.1,0-0.1,0c0,0,0,0,0-0.1l2.8-6.1h-1.2v1c0,0,0,0.1-0.1,0.1h-2.3c0,0-0.1,0-0.1-0.1
							V29c0,0,0-0.1,0.1-0.1h6.6c0,0,0.1,0,0.1,0.1v1.7c0,0,0,0,0,0L32.3,37.5C32.3,37.5,32.3,37.5,32.3,37.5z M29.7,37.3h2.5l3-6.6
							v-1.6h-6.4v3.1h2.1v-1c0,0,0-0.1,0.1-0.1h1.4c0,0,0.1,0,0.1,0c0,0,0,0,0,0.1L29.7,37.3z"/>
						<path class="st10" d="M32,37h-1.8l2.8-6.2h-2.4v1.1h-1.5v-2.5h5.8v1.2L32,37z"/>
					</g>
				</g>
			</g>
			<g>
				<path class="st4" d="M50,23.2h-9.7c-0.5,0-0.9,0.4-0.9,0.9v17.2c0,0.5,0.4,0.9,0.9,0.9H50c0.5,0,0.9-0.4,0.9-0.9V24.1
					C50.9,23.6,50.5,23.2,50,23.2z"/>
				<path class="st5" d="M50,22.9h-9.7c-0.5,0-0.9,0.4-0.9,0.9V41c0,0.5,0.4,0.9,0.9,0.9H50c0.5,0,0.9-0.4,0.9-0.9V23.8
					C50.9,23.3,50.5,22.9,50,22.9z"/>
				<g>
					<rect x="40.3" y="23.8" class="st6" width="9.7" height="17.2"/>
					<rect x="40.3" y="26.3" class="st7" width="9.7" height="1.3"/>
					<rect x="40.3" y="23.8" class="st8" width="9.7" height="0.9"/>
					<rect x="14" y="39.2" class="st8" width="9.7" height="1.8"/>
					<rect x="27.1" y="39.2" class="st8" width="9.7" height="1.8"/>
					<rect x="40.3" y="39.2" class="st8" width="9.7" height="1.8"/>
					<g>
						<path class="st9" d="M45.4,37.5h-2.7c0,0-0.1,0-0.1,0c0,0,0,0,0-0.1l2.8-6.1h-1.2v1c0,0,0,0.1-0.1,0.1h-2.3c0,0-0.1,0-0.1-0.1
							V29c0,0,0-0.1,0.1-0.1h6.6c0,0,0.1,0,0.1,0.1v1.7c0,0,0,0,0,0L45.4,37.5C45.4,37.5,45.4,37.5,45.4,37.5z M42.8,37.3h2.5l3-6.6
							v-1.6h-6.4v3.1H44v-1c0,0,0-0.1,0.1-0.1h1.4c0,0,0.1,0,0.1,0c0,0,0,0,0,0.1L42.8,37.3z"/>
						<path class="st10" d="M45.1,37h-1.8l2.8-6.2h-2.4v1.1h-1.5v-2.5H48v1.2L45.1,37z"/>
					</g>
				</g>
			</g>
		</g>
	</g>
	<g>
		<path class="st11" d="M61.4,8.8c0,0.4-0.1,0.7-0.2,1.1c-0.1,0.5-0.4,1-0.7,1.5c-0.5,0.8-1.2,1.5-2.1,2c-0.5,0.3-1.1,0.6-1.8,0.8
			c-0.4,0.2-0.9,0.3-1.4,0.4c-0.4,0.1-0.8,0.1-1.3,0.2c-0.3,0-0.5,0-0.8,0c-0.2,0-0.4,0-0.6,0c-0.5,0-1-0.1-1.5-0.2
			c-3.5-0.7-6-3.1-6-5.9v1.7c0,2.8,2.6,5.2,6,5.9c0.5,0.1,1,0.2,1.5,0.2c0.2,0,0.4,0,0.6,0c0.3,0,0.5,0,0.8,0c0.4,0,0.9-0.1,1.3-0.2
			c0.5-0.1,0.9-0.2,1.4-0.4c0.6-0.2,1.2-0.5,1.8-0.8c0.9-0.6,1.6-1.3,2.1-2c0.3-0.5,0.5-1,0.7-1.5c0.1-0.4,0.2-0.7,0.2-1.1
			c0,0,0-0.1,0-0.1V8.7C61.4,8.7,61.4,8.8,61.4,8.8z"/>
		<ellipse class="st10" cx="53.2" cy="8.7" rx="8.1" ry="6.1"/>
		<g>
			<g>
				<path class="st6" d="M53.2,6.2c-1.8,0-3.3,1.1-3.3,2.5c0,1.4,1.5,2.5,3.3,2.5c1.8,0,3.3-1.1,3.3-2.5C56.5,7.3,55,6.2,53.2,6.2
					L53.2,6.2z"/>
				<path class="st6" d="M52.3,11.5c-0.1,0-0.1,0-0.1,0.1c0,0,0,0.1,0.1,0.1c0.3,0.1,0.7,0.1,1,0.1c0.1,0,0.1,0,0.1-0.1
					c0,0-0.1-0.1-0.1-0.1C52.9,11.6,52.6,11.6,52.3,11.5C52.3,11.6,52.3,11.5,52.3,11.5L52.3,11.5z M55.1,11.3
					C55.1,11.3,55.1,11.3,55.1,11.3c-0.3,0.1-0.6,0.2-0.9,0.3c-0.1,0-0.1,0.1-0.1,0.1c0,0,0.1,0.1,0.1,0.1c0,0,0,0,0,0
					c0.3-0.1,0.6-0.1,0.9-0.3C55.2,11.4,55.2,11.4,55.1,11.3C55.2,11.3,55.2,11.3,55.1,11.3L55.1,11.3z M50.5,10.9
					C50.5,10.9,50.5,10.9,50.5,10.9c-0.1,0.1-0.1,0.1-0.1,0.1c0.3,0.2,0.5,0.3,0.8,0.4c0,0,0,0,0.1,0c0,0,0.1,0,0.1,0
					c0,0,0-0.1,0-0.1C51.1,11.2,50.9,11,50.5,10.9C50.6,10.9,50.6,10.9,50.5,10.9L50.5,10.9z M56.6,10.3
					C56.5,10.3,56.5,10.3,56.6,10.3c-0.3,0.2-0.5,0.4-0.7,0.6c0,0-0.1,0.1,0,0.1c0,0,0.1,0,0.1,0c0,0,0.1,0,0.1,0
					c0.3-0.2,0.5-0.4,0.7-0.6C56.7,10.4,56.7,10.4,56.6,10.3C56.6,10.3,56.6,10.3,56.6,10.3L56.6,10.3z M49.4,9.7
					C49.4,9.7,49.4,9.7,49.4,9.7c-0.1,0-0.1,0.1-0.1,0.1c0.1,0.2,0.3,0.5,0.5,0.7c0,0,0.1,0,0.1,0c0,0,0,0,0.1,0
					c0.1,0,0.1-0.1,0-0.1c-0.2-0.2-0.3-0.4-0.4-0.6C49.5,9.7,49.5,9.7,49.4,9.7L49.4,9.7z M57.3,9c-0.1,0-0.1,0-0.1,0.1
					c0,0.2-0.1,0.5-0.2,0.7c0,0,0,0.1,0.1,0.1c0,0,0,0,0,0c0,0,0.1,0,0.1-0.1c0.1-0.2,0.2-0.5,0.2-0.7C57.4,9,57.3,9,57.3,9
					C57.3,9,57.3,9,57.3,9L57.3,9z M49.2,8.2c-0.1,0-0.1,0-0.1,0.1c0,0.1,0,0.3,0,0.4c0,0.1,0,0.3,0,0.4c0,0,0.1,0.1,0.1,0.1
					c0,0,0,0,0,0c0.1,0,0.1,0,0.1-0.1c0-0.1,0-0.2,0-0.4c0-0.1,0-0.2,0-0.4C49.3,8.3,49.3,8.2,49.2,8.2C49.2,8.2,49.2,8.2,49.2,8.2
					L49.2,8.2z M57,7.5C57,7.5,57,7.5,57,7.5c-0.1,0-0.1,0.1-0.1,0.1c0.1,0.2,0.2,0.5,0.2,0.7c0,0,0.1,0.1,0.1,0.1c0,0,0,0,0,0
					c0.1,0,0.1,0,0.1-0.1c0-0.3-0.1-0.5-0.2-0.7C57.1,7.5,57.1,7.5,57,7.5L57,7.5z M49.9,6.8C49.9,6.8,49.8,6.9,49.9,6.8
					c-0.3,0.2-0.4,0.5-0.6,0.7c0,0,0,0.1,0.1,0.1c0,0,0,0,0,0c0,0,0.1,0,0.1-0.1C49.7,7.4,49.8,7.2,50,7C50,6.9,50,6.9,49.9,6.8
					C49.9,6.9,49.9,6.8,49.9,6.8L49.9,6.8z M55.9,6.3C55.9,6.3,55.9,6.3,55.9,6.3c-0.1,0.1-0.1,0.1-0.1,0.1c0.2,0.2,0.4,0.3,0.6,0.5
					c0,0,0.1,0,0.1,0c0,0,0,0,0.1,0c0.1,0,0.1-0.1,0-0.1C56.5,6.7,56.2,6.5,55.9,6.3C56,6.3,55.9,6.3,55.9,6.3L55.9,6.3z M51.4,5.9
					C51.3,5.9,51.3,5.9,51.4,5.9C51,6,50.7,6.2,50.5,6.3c0,0-0.1,0.1,0,0.1c0,0,0.1,0,0.1,0c0,0,0.1,0,0.1,0
					c0.2-0.2,0.5-0.3,0.8-0.4C51.5,6,51.5,6,51.4,5.9C51.4,5.9,51.4,5.9,51.4,5.9L51.4,5.9z M54.2,5.6c-0.1,0-0.1,0-0.1,0.1
					c0,0,0,0.1,0.1,0.1c0.3,0.1,0.6,0.1,0.9,0.3c0,0,0,0,0.1,0c0,0,0.1,0,0.1,0c0,0,0-0.1,0-0.1C54.9,5.8,54.6,5.7,54.2,5.6
					C54.2,5.6,54.2,5.6,54.2,5.6L54.2,5.6z M53.2,5.5L53.2,5.5c-0.3,0-0.7,0-1,0.1c-0.1,0-0.1,0.1-0.1,0.1c0,0,0.1,0.1,0.1,0.1
					c0,0,0,0,0,0c0.3-0.1,0.6-0.1,0.9-0.1h0c0.1,0,0.1,0,0.1-0.1C53.4,5.6,53.3,5.5,53.2,5.5L53.2,5.5z"/>
				<path class="st6" d="M59.9,9.9c-0.8,0-1.5,0.3-1.9,0.8c-0.6,0.8-0.2,1.8,0.8,2.3l0.1,0.1c1.1-0.8,1.8-1.8,2.2-2.9L61,10.1
					C60.6,10,60.3,9.9,59.9,9.9L59.9,9.9z"/>
				<path class="st6" d="M47.5,4.3C46.5,5,45.7,6,45.3,7.1l0.1,0.1c0.3,0.2,0.7,0.2,1.1,0.2c0.8,0,1.5-0.3,1.9-0.8
					c0.6-0.8,0.2-1.8-0.8-2.3L47.5,4.3L47.5,4.3z"/>
				<path class="st6" d="M46.6,9.9c-0.4,0-0.8,0.1-1.1,0.2l-0.1,0.1c0.4,1.1,1.2,2.1,2.2,2.9l0.1-0.1c1.1-0.5,1.4-1.5,0.8-2.3
					C48.1,10.2,47.3,9.9,46.6,9.9L46.6,9.9z"/>
				<path class="st6" d="M53.2,12.8c-1.2,0-2.2,0.7-2.2,1.7v0.1c0.7,0.1,1.4,0.2,2.2,0.2c0.8,0,1.5-0.1,2.2-0.2v-0.1
					C55.4,13.6,54.5,12.8,53.2,12.8L53.2,12.8z"/>
				<path class="st6" d="M58.9,4.3l-0.1,0.1c-1.1,0.5-1.4,1.5-0.8,2.3c0.4,0.5,1.1,0.8,1.9,0.8c0.4,0,0.8-0.1,1.1-0.2l0.1-0.1
					C60.8,6,60,5,58.9,4.3L58.9,4.3z"/>
				<path class="st6" d="M53.2,2.5c-0.8,0-1.5,0.1-2.2,0.2v0.1c0,0.9,1,1.7,2.2,1.7s2.2-0.7,2.2-1.7V2.7C54.7,2.6,54,2.5,53.2,2.5
					L53.2,2.5z"/>
			</g>
		</g>
		<path class="st12" d="M55.4,14.6c0,0-0.1,0-0.1,0c-0.4,0.1-0.8,0.1-1.3,0.2c-0.3,0-0.5,0-0.8,0c-0.2,0-0.4,0-0.6,0
			c-0.5,0-1-0.1-1.5-0.2c0,0-0.1,0-0.1,0h0v1.7c0,0,0.1,0,0.1,0c0.5,0.1,1,0.2,1.5,0.2c0.2,0,0.4,0,0.6,0c0.3,0,0.5,0,0.8,0
			c0.4,0,0.9-0.1,1.3-0.2c0,0,0.1,0,0.1,0V14.6z"/>
		<path class="st12" d="M58.9,13.1v1.7c0.7-0.5,1.2-1.1,1.6-1.7c0.2-0.4,0.4-0.8,0.6-1.2v-1.7l0,0c-0.1,0.4-0.3,0.8-0.6,1.2
			C60.1,12,59.6,12.6,58.9,13.1z"/>
		<path class="st12" d="M47.5,14.8v-1.7c-1.1-0.8-1.8-1.8-2.2-2.9l0,0v1.7C45.7,13,46.5,14,47.5,14.8z"/>
	</g>
	<g>
		<path class="st11" d="M56.2,7.9c0,0.4-0.1,0.7-0.2,1.1c-0.1,0.5-0.4,1-0.7,1.5c-0.5,0.8-1.2,1.5-2.1,2c-0.5,0.3-1.1,0.6-1.8,0.8
			c-0.4,0.2-0.9,0.3-1.4,0.4c-0.4,0.1-0.8,0.1-1.3,0.2c-0.3,0-0.5,0-0.8,0c-0.2,0-0.4,0-0.6,0c-0.5,0-1-0.1-1.5-0.2
			c-3.5-0.7-6-3.1-6-5.9v1.7c0,2.8,2.6,5.2,6,5.9c0.5,0.1,1,0.2,1.5,0.2c0.2,0,0.4,0,0.6,0c0.3,0,0.5,0,0.8,0c0.4,0,0.9-0.1,1.3-0.2
			c0.5-0.1,0.9-0.2,1.4-0.4c0.6-0.2,1.2-0.5,1.8-0.8c0.9-0.6,1.6-1.3,2.1-2c0.3-0.5,0.5-1,0.7-1.5c0.1-0.4,0.2-0.7,0.2-1.1
			c0,0,0-0.1,0-0.1V7.7C56.2,7.8,56.2,7.8,56.2,7.9z"/>
		<ellipse class="st10" cx="48" cy="7.7" rx="8.1" ry="6.1"/>
		<g>
			<g>
				<path class="st6" d="M48,5.2c-1.8,0-3.3,1.1-3.3,2.5c0,1.4,1.5,2.5,3.3,2.5c1.8,0,3.3-1.1,3.3-2.5C51.3,6.3,49.8,5.2,48,5.2
					L48,5.2z"/>
				<path class="st6" d="M47.1,10.6c-0.1,0-0.1,0-0.1,0.1c0,0,0,0.1,0.1,0.1c0.3,0.1,0.7,0.1,1,0.1c0.1,0,0.1,0,0.1-0.1
					c0,0-0.1-0.1-0.1-0.1C47.7,10.7,47.4,10.7,47.1,10.6C47.1,10.6,47.1,10.6,47.1,10.6L47.1,10.6z M49.9,10.3
					C49.9,10.3,49.9,10.3,49.9,10.3c-0.3,0.1-0.6,0.2-0.9,0.3c-0.1,0-0.1,0.1-0.1,0.1c0,0,0.1,0.1,0.1,0.1c0,0,0,0,0,0
					c0.3-0.1,0.6-0.1,0.9-0.3C50,10.5,50,10.4,49.9,10.3C50,10.4,49.9,10.3,49.9,10.3L49.9,10.3z M45.3,9.9
					C45.3,9.9,45.3,9.9,45.3,9.9c-0.1,0.1-0.1,0.1-0.1,0.1c0.3,0.2,0.5,0.3,0.8,0.4c0,0,0,0,0.1,0c0,0,0.1,0,0.1,0c0,0,0-0.1,0-0.1
					C45.9,10.2,45.7,10.1,45.3,9.9C45.4,9.9,45.4,9.9,45.3,9.9L45.3,9.9z M51.4,9.4C51.3,9.4,51.3,9.4,51.4,9.4
					c-0.3,0.2-0.5,0.4-0.7,0.6c0,0-0.1,0.1,0,0.1c0,0,0.1,0,0.1,0c0,0,0.1,0,0.1,0c0.3-0.2,0.5-0.4,0.7-0.6
					C51.5,9.5,51.5,9.4,51.4,9.4C51.4,9.4,51.4,9.4,51.4,9.4L51.4,9.4z M44.2,8.7C44.2,8.7,44.2,8.7,44.2,8.7
					c-0.1,0-0.1,0.1-0.1,0.1c0.1,0.2,0.3,0.5,0.5,0.7c0,0,0.1,0,0.1,0c0,0,0,0,0.1,0c0.1,0,0.1-0.1,0-0.1c-0.2-0.2-0.3-0.4-0.4-0.6
					C44.3,8.7,44.3,8.7,44.2,8.7L44.2,8.7z M52,8c-0.1,0-0.1,0-0.1,0.1c0,0.2-0.1,0.5-0.2,0.7c0,0,0,0.1,0.1,0.1c0,0,0,0,0,0
					c0,0,0.1,0,0.1-0.1c0.1-0.2,0.2-0.5,0.2-0.7C52.2,8.1,52.1,8,52,8C52.1,8,52.1,8,52,8L52,8z M44,7.3c-0.1,0-0.1,0-0.1,0.1
					c0,0.1,0,0.3,0,0.4c0,0.1,0,0.3,0,0.4c0,0,0.1,0.1,0.1,0.1c0,0,0,0,0,0c0.1,0,0.1,0,0.1-0.1c0-0.1,0-0.2,0-0.4
					c0-0.1,0-0.2,0-0.4C44.1,7.3,44.1,7.3,44,7.3C44,7.3,44,7.3,44,7.3L44,7.3z M51.8,6.6C51.8,6.6,51.8,6.6,51.8,6.6
					c-0.1,0-0.1,0.1-0.1,0.1c0.1,0.2,0.2,0.5,0.2,0.7c0,0,0.1,0.1,0.1,0.1c0,0,0,0,0,0c0.1,0,0.1,0,0.1-0.1c0-0.3-0.1-0.5-0.2-0.7
					C51.9,6.6,51.9,6.6,51.8,6.6L51.8,6.6z M44.7,5.9C44.7,5.9,44.6,5.9,44.7,5.9c-0.3,0.2-0.4,0.5-0.6,0.7c0,0,0,0.1,0.1,0.1
					c0,0,0,0,0,0c0,0,0.1,0,0.1-0.1c0.1-0.2,0.3-0.4,0.4-0.6C44.8,6,44.8,5.9,44.7,5.9C44.7,5.9,44.7,5.9,44.7,5.9L44.7,5.9z
					 M50.7,5.3C50.7,5.3,50.7,5.4,50.7,5.3c-0.1,0.1-0.1,0.1-0.1,0.1c0.2,0.2,0.4,0.3,0.6,0.5c0,0,0.1,0,0.1,0c0,0,0,0,0.1,0
					c0.1,0,0.1-0.1,0-0.1C51.3,5.7,51,5.5,50.7,5.3C50.8,5.4,50.7,5.3,50.7,5.3L50.7,5.3z M46.1,4.9C46.1,4.9,46.1,4.9,46.1,4.9
					c-0.3,0.1-0.6,0.3-0.9,0.4c0,0-0.1,0.1,0,0.1c0,0,0.1,0,0.1,0c0,0,0.1,0,0.1,0c0.2-0.2,0.5-0.3,0.8-0.4
					C46.3,5.1,46.3,5,46.1,4.9C46.2,4.9,46.2,4.9,46.1,4.9L46.1,4.9z M49,4.7c-0.1,0-0.1,0-0.1,0.1c0,0,0,0.1,0.1,0.1
					c0.3,0.1,0.6,0.1,0.9,0.3c0,0,0,0,0.1,0c0,0,0.1,0,0.1,0c0,0,0-0.1,0-0.1C49.7,4.8,49.4,4.7,49,4.7C49,4.7,49,4.7,49,4.7L49,4.7
					z M48,4.6L48,4.6c-0.3,0-0.7,0-1,0.1c-0.1,0-0.1,0.1-0.1,0.1c0,0,0.1,0.1,0.1,0.1c0,0,0,0,0,0c0.3-0.1,0.6-0.1,0.9-0.1h0
					c0.1,0,0.1,0,0.1-0.1C48.2,4.6,48.1,4.6,48,4.6L48,4.6z"/>
				<path class="st6" d="M54.7,9c-0.8,0-1.5,0.3-1.9,0.8c-0.6,0.8-0.2,1.8,0.8,2.3l0.1,0.1c1.1-0.8,1.8-1.8,2.2-2.9l-0.1-0.1
					C55.4,9,55.1,9,54.7,9L54.7,9z"/>
				<path class="st6" d="M42.3,3.3c-1.1,0.8-1.8,1.8-2.2,2.9l0.1,0.1c0.3,0.2,0.7,0.2,1.1,0.2c0.8,0,1.5-0.3,1.9-0.8
					c0.6-0.8,0.2-1.8-0.8-2.3L42.3,3.3L42.3,3.3z"/>
				<path class="st6" d="M41.4,9C41,9,40.6,9,40.3,9.2l-0.1,0.1c0.4,1.1,1.2,2.1,2.2,2.9l0.1-0.1c1.1-0.5,1.4-1.5,0.8-2.3
					C42.9,9.3,42.1,9,41.4,9L41.4,9z"/>
				<path class="st6" d="M48,11.9c-1.2,0-2.2,0.7-2.2,1.7v0.1c0.7,0.1,1.4,0.2,2.2,0.2c0.8,0,1.5-0.1,2.2-0.2v-0.1
					C50.2,12.6,49.2,11.9,48,11.9L48,11.9z"/>
				<path class="st6" d="M53.7,3.3l-0.1,0.1c-1.1,0.5-1.4,1.5-0.8,2.3c0.4,0.5,1.1,0.8,1.9,0.8c0.4,0,0.8-0.1,1.1-0.2l0.1-0.1
					C55.6,5.1,54.8,4.1,53.7,3.3L53.7,3.3z"/>
				<path class="st6" d="M48,1.6c-0.8,0-1.5,0.1-2.2,0.2v0.1c0,0.9,1,1.7,2.2,1.7s2.2-0.7,2.2-1.7V1.8C49.5,1.6,48.8,1.6,48,1.6
					L48,1.6z"/>
			</g>
		</g>
		<path class="st12" d="M50.2,13.6c0,0-0.1,0-0.1,0c-0.4,0.1-0.8,0.1-1.3,0.2c-0.3,0-0.5,0-0.8,0c-0.2,0-0.4,0-0.6,0
			c-0.5,0-1-0.1-1.5-0.2c0,0-0.1,0-0.1,0h0v1.7c0,0,0.1,0,0.1,0c0.5,0.1,1,0.2,1.5,0.2c0.2,0,0.4,0,0.6,0c0.3,0,0.5,0,0.8,0
			c0.4,0,0.9-0.1,1.3-0.2c0,0,0.1,0,0.1,0V13.6z"/>
		<path class="st12" d="M53.7,12.1v1.7c0.7-0.5,1.2-1.1,1.6-1.7c0.2-0.4,0.4-0.8,0.6-1.2V9.2l0,0c-0.1,0.4-0.3,0.8-0.6,1.2
			C54.9,11.1,54.4,11.6,53.7,12.1z"/>
		<path class="st12" d="M42.3,13.8v-1.7c-1.1-0.8-1.8-1.8-2.2-2.9l0,0v1.7C40.5,12,41.3,13,42.3,13.8z"/>
	</g>
	<g>
		<circle class="st5" cx="10.3" cy="10.9" r="6.5"/>
		<path class="st13" d="M10.3,4.7c3.6,0,6.5,2.8,6.5,6.2c0-3.6-2.9-6.5-6.5-6.5s-6.5,2.9-6.5,6.5C3.8,7.5,6.7,4.7,10.3,4.7z"/>
		<path class="st14" d="M10.3,17.1c-3.6,0-6.5-2.8-6.5-6.2c0,3.6,2.9,6.5,6.5,6.5s6.5-2.9,6.5-6.5C16.8,14.4,13.9,17.1,10.3,17.1z"
			/>
		<polygon class="st15" points="15.2,10.9 10.4,10.9 13.8,7.5 13.7,7.4 10.3,10.8 10.3,6.1 10.3,6.1 10.3,10.8 6.9,7.5 6.9,7.5 
			10.2,10.9 5.5,10.9 5.5,10.9 10.2,10.9 6.9,14.3 6.9,14.4 10.3,11 10.3,15.8 10.3,15.8 10.3,11 13.7,14.4 13.8,14.3 10.4,10.9 
			15.2,10.9 		"/>
		<path class="st15" d="M10.3,5.5c-3.1,0-5.7,2.5-5.7,5.7c0,3.1,2.5,5.7,5.7,5.7s5.7-2.5,5.7-5.7C16,8,13.4,5.5,10.3,5.5z
			 M14.3,11.2c0,2.2-1.8,4-4,4s-4-1.8-4-4c0-2.2,1.8-4,4-4S14.3,9,14.3,11.2z"/>
		<g>
			<path class="st4" d="M10.3,5.3c-3.1,0-5.7,2.5-5.7,5.7s2.5,5.7,5.7,5.7s5.7-2.5,5.7-5.7S13.4,5.3,10.3,5.3z M10.3,14.9
				c-2.2,0-4-1.8-4-4c0-2.2,1.8-4,4-4s4,1.8,4,4C14.3,13.1,12.5,14.9,10.3,14.9z"/>
			<path class="st9" d="M14.2,9.7l1.4-0.4c-0.2-0.7-0.6-1.4-1.2-2l-1.1,1C13.7,8.6,14,9.1,14.2,9.7z"/>
			<path class="st10" d="M13.4,8.2l1.1-1c-0.1-0.1-0.1-0.1-0.2-0.2c-0.5-0.5-1.1-0.9-1.7-1.1L12,7.2C12.5,7.4,13,7.8,13.4,8.2z"/>
			<path class="st16" d="M12,7.2l0.6-1.3c-0.7-0.3-1.5-0.5-2.3-0.5v1.4C10.9,6.8,11.5,6.9,12,7.2z"/>
			<path class="st9" d="M13.9,13l1.2,0.7c0.4-0.7,0.6-1.4,0.7-2.2l-1.4-0.1C14.3,12,14.2,12.5,13.9,13z"/>
			<path class="st10" d="M15.1,13.7L13.9,13c-0.3,0.5-0.7,0.9-1.1,1.3l0.8,1.2c0.2-0.2,0.5-0.4,0.7-0.6
				C14.6,14.5,14.9,14.1,15.1,13.7z"/>
			<path class="st9" d="M11.2,15l0.3,1.4c0.8-0.2,1.5-0.5,2.1-0.9l-0.8-1.2C12.3,14.6,11.7,14.8,11.2,15z"/>
			<path class="st9" d="M10.3,6.8V5.4C9.5,5.4,8.7,5.6,8,5.9l0.6,1.3C9.1,6.9,9.7,6.8,10.3,6.8z"/>
			<path class="st10" d="M14.4,10.9c0,0.1,0,0.3,0,0.4l1.4,0.1c0-0.2,0-0.4,0-0.6c0-0.6-0.1-1.2-0.3-1.7l-1.4,0.4
				C14.3,10.1,14.4,10.5,14.4,10.9z"/>
			<path class="st10" d="M8.6,7.2L8,5.9C7.4,6.2,6.9,6.5,6.4,7C6.3,7.1,6.3,7.2,6.2,7.2l1.1,1C7.6,7.8,8.1,7.4,8.6,7.2z"/>
			<path class="st10" d="M10.3,15.1c-0.3,0-0.6,0-0.9-0.1l-0.3,1.4c0.4,0.1,0.8,0.1,1.2,0.1c0.4,0,0.8,0,1.2-0.1L11.2,15
				C10.9,15,10.6,15.1,10.3,15.1z"/>
			<path class="st10" d="M6.7,13l-1.2,0.7c0.2,0.4,0.5,0.8,0.9,1.1c0.2,0.2,0.4,0.4,0.7,0.6l0.8-1.2C7.4,13.9,7,13.5,6.7,13z"/>
			<path class="st9" d="M7.9,14.3L7,15.4c0.6,0.5,1.3,0.8,2.1,0.9L9.4,15C8.9,14.8,8.3,14.6,7.9,14.3z"/>
			<path class="st9" d="M6.2,11.4l-1.4,0.1c0.1,0.8,0.3,1.5,0.7,2.2L6.7,13C6.5,12.5,6.3,12,6.2,11.4z"/>
			<path class="st9" d="M7.2,8.2l-1.1-1C5.7,7.8,5.3,8.5,5,9.2l1.4,0.4C6.6,9.1,6.9,8.6,7.2,8.2z"/>
			<path class="st10" d="M6.2,10.9c0-0.4,0.1-0.9,0.2-1.3L5,9.2c-0.2,0.5-0.3,1.1-0.3,1.7c0,0.2,0,0.4,0,0.6l1.4-0.1
				C6.2,11.2,6.2,11.1,6.2,10.9z"/>
		</g>
		<path class="st15" d="M12.6,10.9C12.6,10.9,12.6,10.9,12.6,10.9C12.6,10.9,12.6,10.9,12.6,10.9C12.6,10.9,12.6,10.9,12.6,10.9
			C12.6,10.9,12.6,10.9,12.6,10.9C12.6,10.8,12.6,10.8,12.6,10.9C12.6,10.8,12.6,10.8,12.6,10.9C12.6,10.8,12.6,10.8,12.6,10.9
			C12.6,10.8,12.6,10.8,12.6,10.9C12.6,10.8,12.6,10.8,12.6,10.9C12.6,10.8,12.6,10.8,12.6,10.9C12.6,10.8,12.6,10.8,12.6,10.9
			c-0.1-0.1-0.1-0.1-0.1-0.1c0,0,0,0,0,0c0,0,0,0,0,0c0,0,0,0,0,0c0,0,0,0,0,0c0,0,0,0,0,0c0,0,0,0,0,0c0,0,0,0,0,0c0,0-0.1,0-0.1,0
			c0,0,0,0-0.1,0c0,0-0.1,0-0.2,0c0,0,0,0,0,0l0,0c0,0,0,0,0,0c0,0,0,0,0,0c0,0,0,0,0,0c0,0-0.1,0-0.1,0c-0.1,0-0.1,0-0.2,0
			c-0.1,0-0.1,0-0.2,0c-0.1,0-0.1,0-0.2,0c-0.1,0-0.1,0-0.2,0c0,0,0,0,0,0c-0.1-0.3-0.3-0.5-0.6-0.6c0,0,0,0,0,0c0-0.1,0-0.1,0-0.2
			c0-0.1,0-0.1,0-0.2c0,0,0-0.1,0-0.1c0,0,0,0,0,0c0,0,0,0,0,0c0-0.1,0-0.1,0-0.2c0,0,0-0.1,0-0.1c0,0,0,0,0,0c0,0,0,0,0,0
			c0,0,0,0,0,0l0,0c0,0,0,0,0,0c0-0.1,0-0.1,0-0.2c0,0,0-0.1,0-0.1c0,0,0,0,0,0l0,0v0c0,0,0,0,0,0c0,0,0,0,0,0c0,0,0,0,0,0
			c0,0,0,0,0,0c0,0,0,0,0,0c0-0.1-0.2-0.2-0.3-0.1c0,0,0,0,0,0c0,0,0,0,0,0c0,0,0,0,0,0c0,0,0,0,0,0c0,0,0,0,0,0c0,0,0,0,0,0
			c0,0,0,0,0,0c0,0,0,0,0,0c0,0,0,0,0,0c0,0,0,0,0,0c0,0,0,0,0,0c0,0,0,0,0,0c0,0,0,0,0,0c0,0,0,0,0,0c0,0,0,0,0,0c0,0,0,0,0,0
			c0,0,0,0,0,0c0,0,0,0,0,0c0,0,0,0,0,0c0,0,0,0.1,0,0.1c0,0,0,0,0,0.1c0,0,0,0.1,0,0.2c0,0,0,0,0,0l0,0c0,0,0,0,0,0c0,0,0,0,0,0
			c0,0,0,0,0,0c0,0,0,0.1,0,0.1c0,0.1,0,0.1,0,0.2c0,0.1,0,0.1,0,0.2c0,0.1,0,0.1,0,0.2c0,0.1,0,0.1,0,0.2c0,0,0,0,0,0
			c-0.3,0.1-0.5,0.3-0.6,0.6c0,0,0,0,0,0c-0.1,0-0.1,0-0.2,0c-0.1,0-0.1,0-0.2,0c-0.1,0-0.1,0-0.2,0c-0.1,0-0.1,0-0.2,0
			c0,0-0.1,0-0.1,0c0,0,0,0,0,0c0,0,0,0,0,0c0,0,0,0,0,0c0,0,0,0,0,0c0,0,0,0,0,0c-0.1,0-0.1,0-0.2,0c0,0-0.1,0-0.1,0
			c0,0-0.1,0-0.1,0c0,0,0,0,0,0c0,0,0,0,0,0c0,0,0,0,0,0c0,0,0,0,0,0c0,0,0,0,0,0c0,0,0,0,0,0c0,0,0,0,0,0c0,0,0,0,0,0c0,0,0,0,0,0
			c0,0,0,0,0,0c0,0,0,0,0,0c0,0,0,0,0,0c0,0,0,0,0,0c0,0,0,0,0,0c0,0,0,0,0,0c0,0,0,0,0,0c0,0,0,0,0,0c0,0,0,0,0,0c0,0,0,0,0,0
			c0,0.1,0,0.2,0.1,0.3c0,0,0,0,0,0c0,0,0,0,0,0c0,0,0,0,0,0c0,0,0,0,0,0c0,0,0,0,0,0l0,0l0,0c0,0,0,0,0,0c0,0,0,0,0.1,0
			c0,0,0.1,0,0.2,0c0,0,0,0,0,0l0,0c0,0,0,0,0,0c0,0,0,0,0,0c0,0,0,0,0,0c0,0,0.1,0,0.1,0c0.1,0,0.1,0,0.2,0c0,0,0,0,0,0l0,0
			c0,0,0.1,0,0.1,0c0.1,0,0.1,0,0.2,0c0.1,0,0.1,0,0.2,0c0,0,0,0,0,0c0.1,0.3,0.3,0.5,0.6,0.6c0,0,0,0,0,0c0,0.1,0,0.1,0,0.2
			c0,0.1,0,0.1,0,0.2c0,0.1,0,0.1,0,0.2c0,0.1,0,0.1,0,0.2c0,0,0,0.1,0,0.1c0,0,0,0,0,0c0,0,0,0,0,0c0,0,0,0,0,0l0,0c0,0,0,0,0,0
			c0,0.1,0,0.1,0,0.2c0,0,0,0.1,0,0.1c0,0,0,0.1,0,0.1c0,0,0,0,0,0c0,0,0,0,0,0c0,0,0,0,0,0c0,0,0,0,0,0c0,0,0,0,0,0c0,0,0,0,0,0
			c0,0,0,0,0,0c0,0,0,0,0,0c0,0,0,0,0,0c0,0,0,0,0,0c0,0,0,0,0,0c0,0,0,0,0,0c0,0,0,0,0,0c0,0,0,0,0,0c0,0,0,0,0,0c0,0,0,0,0,0
			c0,0,0,0,0,0c0,0,0,0,0,0c0,0,0,0,0,0c0.1,0,0.2,0,0.3-0.1c0,0,0,0,0,0c0,0,0,0,0,0c0,0,0,0,0,0c0,0,0,0,0,0c0,0,0,0,0,0
			c0,0,0,0,0,0v0c0,0,0,0,0,0c0,0,0,0,0-0.1c0,0,0-0.1,0-0.2c0,0,0,0,0,0c0,0,0,0,0,0c0,0,0,0,0,0c0,0,0,0,0,0c0,0,0,0,0,0
			c0,0,0-0.1,0-0.1c0-0.1,0-0.1,0-0.2c0,0,0,0,0,0l0,0c0,0,0-0.1,0-0.1c0-0.1,0-0.1,0-0.2c0-0.1,0-0.1,0-0.2c0,0,0,0,0,0
			c0.3-0.1,0.5-0.3,0.6-0.6c0,0,0,0,0,0c0.1,0,0.1,0,0.2,0c0.1,0,0.1,0,0.2,0c0,0,0.1,0,0.1,0l0,0c0,0,0,0,0,0c0.1,0,0.1,0,0.2,0
			c0,0,0.1,0,0.1,0c0,0,0,0,0,0c0,0,0,0,0,0c0,0,0,0,0,0c0,0,0,0,0,0c0,0,0,0,0,0c0.1,0,0.1,0,0.2,0c0,0,0.1,0,0.1,0c0,0,0,0,0,0
			l0,0l0,0c0,0,0,0,0,0c0,0,0,0,0,0c0,0,0,0,0,0c0,0,0,0,0,0c0,0,0,0,0,0C12.6,11.1,12.7,11,12.6,10.9z"/>
		<circle class="st4" cx="10.3" cy="10.9" r="0.8"/>
		<circle class="st17" cx="10.3" cy="11" r="0.5"/>
		<g>
			<g>
				<g>
					<path class="st3" d="M10.2,10.7C10.2,10.7,10.2,10.6,10.2,10.7c0-0.1,0-0.2,0-0.3c0-0.1,0-0.2,0-0.3c0,0,0-0.1,0-0.2
						c0-0.1,0-0.1,0-0.2c0-0.1,0-0.1,0-0.2c0-0.1,0-0.1,0-0.2c0,0,0-0.1,0-0.1c0,0,0-0.1,0-0.1c0-0.1,0-0.1,0-0.2c0,0,0-0.1,0-0.1
						c0-0.1,0-0.2,0.1-0.3c0.1,0,0.2,0,0.3,0.1c0,0,0,0.1,0,0.1c0,0,0,0,0,0.1c0,0,0,0.1,0,0.2c0,0,0,0.1,0,0.1c0,0,0,0.1,0,0.1
						c0,0,0,0.1,0,0.2c0,0.1,0,0.1,0,0.2c0,0.1,0,0.1,0,0.2c0,0.1,0,0.1,0,0.2c0,0.1,0,0.2,0,0.3c0,0.1,0,0.1,0,0.2c0,0,0,0.1,0,0.1
						C10.4,10.7,10.4,10.8,10.2,10.7C10.2,10.7,10.2,10.7,10.2,10.7z"/>
					<g>
						<path class="st18" d="M10.2,8.7c0.1,0,0.2,0,0.3,0.1c0,0,0,0,0,0c0,0,0-0.1,0-0.1C10.5,8.7,10.3,8.6,10.2,8.7
							c-0.1,0-0.1,0.1-0.1,0.2C10.1,8.8,10.2,8.8,10.2,8.7z"/>
						<path class="st18" d="M10.5,9.5c0,0,0-0.1,0-0.1c0,0,0-0.1,0-0.1c0,0,0,0,0,0C10.5,9.3,10.5,9.4,10.5,9.5
							C10.5,9.4,10.5,9.5,10.5,9.5c0,0.1,0,0.1,0,0.2c0,0,0,0,0,0C10.5,9.6,10.5,9.5,10.5,9.5z"/>
						<path class="st18" d="M10.1,9.5c0,0,0-0.1,0-0.1c0,0,0-0.1,0-0.1c0,0,0,0,0,0c0,0,0,0.1,0,0.1C10.1,9.4,10.1,9.4,10.1,9.5
							c0,0,0,0.1,0,0.1c0,0,0,0,0,0C10.1,9.6,10.1,9.6,10.1,9.5z"/>
					</g>
				</g>
				<g>
					<path class="st3" d="M10.2,11.2C10.2,11.2,10.2,11.2,10.2,11.2c0,0.1,0,0.2,0,0.3c0,0.1,0,0.2,0,0.3c0,0,0,0.1,0,0.2
						c0,0.1,0,0.1,0,0.2c0,0.1,0,0.1,0,0.2c0,0.1,0,0.1,0,0.2c0,0,0,0.1,0,0.1c0,0,0,0.1,0,0.1c0,0.1,0,0.1,0,0.2c0,0,0,0.1,0,0.1
						c0,0.1,0,0.2,0.1,0.3c0.1,0,0.2,0,0.3-0.1c0,0,0-0.1,0-0.1c0,0,0,0,0-0.1c0,0,0-0.1,0-0.2c0,0,0-0.1,0-0.1c0,0,0-0.1,0-0.1
						c0,0,0-0.1,0-0.2c0-0.1,0-0.1,0-0.2c0-0.1,0-0.1,0-0.2c0-0.1,0-0.1,0-0.2c0-0.1,0-0.2,0-0.3c0-0.1,0-0.1,0-0.2c0,0,0-0.1,0-0.1
						C10.4,11.2,10.4,11.1,10.2,11.2C10.2,11.1,10.2,11.2,10.2,11.2z"/>
					<g>
						<path class="st18" d="M10.2,13.1c0.1,0,0.2,0,0.3-0.1c0,0,0,0,0,0c0,0,0,0.1,0,0.1C10.5,13.2,10.3,13.2,10.2,13.1
							c-0.1,0-0.1-0.1-0.1-0.2C10.1,13,10.2,13.1,10.2,13.1z"/>
						<path class="st18" d="M10.5,12.4c0,0,0,0.1,0,0.1c0,0,0,0.1,0,0.1c0,0,0,0,0,0C10.5,12.6,10.5,12.5,10.5,12.4
							C10.5,12.4,10.5,12.4,10.5,12.4c0-0.1,0-0.1,0-0.2c0,0,0,0,0,0C10.5,12.3,10.5,12.3,10.5,12.4z"/>
						<path class="st18" d="M10.1,12.3c0,0,0,0.1,0,0.1c0,0,0,0.1,0,0.1c0,0,0,0,0,0c0,0,0-0.1,0-0.1C10.1,12.5,10.1,12.4,10.1,12.3
							c0,0,0-0.1,0-0.1c0,0,0,0,0,0C10.1,12.2,10.1,12.3,10.1,12.3z"/>
					</g>
				</g>
			</g>
			<g>
				<g>
					<path class="st3" d="M10.6,10.8C10.6,10.8,10.6,10.8,10.6,10.8c0.1,0,0.2,0,0.3,0c0.1,0,0.2,0,0.3,0c0,0,0.1,0,0.2,0
						c0.1,0,0.1,0,0.2,0c0.1,0,0.1,0,0.2,0c0.1,0,0.1,0,0.2,0c0,0,0.1,0,0.1,0c0,0,0.1,0,0.1,0c0.1,0,0.1,0,0.2,0c0,0,0.1,0,0.1,0
						c0.1,0,0.2,0,0.3,0.1c0,0.1,0,0.2-0.1,0.3c0,0-0.1,0-0.1,0c0,0,0,0-0.1,0c0,0-0.1,0-0.2,0c0,0-0.1,0-0.1,0c0,0-0.1,0-0.1,0
						c0,0-0.1,0-0.2,0c-0.1,0-0.1,0-0.2,0c-0.1,0-0.1,0-0.2,0c-0.1,0-0.1,0-0.2,0c-0.1,0-0.2,0-0.3,0c-0.1,0-0.1,0-0.2,0
						c0,0-0.1,0-0.1,0C10.5,11,10.5,11,10.6,10.8C10.5,10.9,10.5,10.8,10.6,10.8z"/>
					<g>
						<path class="st18" d="M12.5,10.9c0,0.1,0,0.2-0.1,0.3c0,0,0,0,0,0c0,0,0.1,0,0.1,0C12.5,11.1,12.6,11,12.5,10.9
							c0-0.1-0.1-0.1-0.2-0.1C12.4,10.7,12.5,10.8,12.5,10.9z"/>
						<path class="st18" d="M11.7,11.1c0,0,0.1,0,0.1,0c0,0,0.1,0,0.1,0c0,0,0,0,0,0C11.9,11.1,11.9,11.1,11.7,11.1
							C11.8,11.1,11.8,11.1,11.7,11.1c-0.1,0-0.1,0-0.2,0c0,0,0,0,0,0C11.6,11.2,11.7,11.2,11.7,11.1z"/>
						<path class="st18" d="M11.7,10.7c0,0,0.1,0,0.1,0c0,0,0.1,0,0.1,0c0,0,0,0,0,0c0,0-0.1,0-0.1,0C11.8,10.8,11.8,10.8,11.7,10.7
							c0,0-0.1,0-0.1,0c0,0,0,0,0,0C11.6,10.7,11.7,10.7,11.7,10.7z"/>
					</g>
				</g>
				<g>
					<path class="st3" d="M10,10.8C10,10.8,10,10.8,10,10.8c-0.1,0-0.2,0-0.3,0c-0.1,0-0.2,0-0.3,0c0,0-0.1,0-0.2,0
						c-0.1,0-0.1,0-0.2,0c-0.1,0-0.1,0-0.2,0c-0.1,0-0.1,0-0.2,0c0,0-0.1,0-0.1,0c0,0-0.1,0-0.1,0c-0.1,0-0.1,0-0.2,0
						c0,0-0.1,0-0.1,0c-0.1,0-0.2,0-0.3,0.1c0,0.1,0,0.2,0.1,0.3c0,0,0.1,0,0.1,0c0,0,0,0,0.1,0c0,0,0.1,0,0.2,0c0,0,0.1,0,0.1,0
						c0,0,0.1,0,0.1,0c0,0,0.1,0,0.2,0c0.1,0,0.1,0,0.2,0c0.1,0,0.1,0,0.2,0c0.1,0,0.1,0,0.2,0c0.1,0,0.2,0,0.3,0c0.1,0,0.1,0,0.2,0
						c0,0,0.1,0,0.1,0C10.1,11,10.1,11,10,10.8C10.1,10.9,10.1,10.8,10,10.8z"/>
					<g>
						<path class="st18" d="M8.1,10.9c0,0.1,0,0.2,0.1,0.3c0,0,0,0,0,0c0,0-0.1,0-0.1,0C8.1,11.1,8,11,8.1,10.9
							c0-0.1,0.1-0.1,0.2-0.1C8.2,10.7,8.1,10.8,8.1,10.9z"/>
						<path class="st18" d="M8.9,11.1c0,0-0.1,0-0.1,0c0,0-0.1,0-0.1,0c0,0,0,0,0,0C8.7,11.1,8.7,11.1,8.9,11.1
							C8.8,11.1,8.9,11.1,8.9,11.1c0.1,0,0.1,0,0.2,0c0,0,0,0,0,0C9,11.2,8.9,11.2,8.9,11.1z"/>
						<path class="st18" d="M8.9,10.7c0,0-0.1,0-0.1,0c0,0-0.1,0-0.1,0c0,0,0,0,0,0c0,0,0.1,0,0.1,0C8.8,10.8,8.8,10.8,8.9,10.7
							c0,0,0.1,0,0.1,0c0,0,0,0,0,0C9,10.7,8.9,10.7,8.9,10.7z"/>
					</g>
				</g>
			</g>
		</g>
		<circle class="st19" cx="10.3" cy="10.9" r="0.5"/>
		<circle class="st20" cx="10.3" cy="10.9" r="0.3"/>
		<circle class="st21" cx="10.2" cy="10.8" r="0.1"/>
	</g>
	<g>
		<g>
			<polygon class="st10" points="55.6,50.1 51.6,53.5 56.5,55.2 60.5,51.8 			"/>
			<polygon class="st22" points="56.5,55 51.6,53.5 56.5,55.2 60.5,51.8 			"/>
			<path class="st23" d="M55.6,52.5c-0.2,0.2-0.2,0.4,0.1,0.4c0.2,0.1,0.6,0,0.8-0.1s0.2-0.4-0.1-0.4C56.2,52.3,55.8,52.3,55.6,52.5
				z"/>
			<path class="st23" d="M55.4,51.2c-0.2,0.2-0.2,0.4,0.1,0.4c0.2,0.1,0.6,0,0.8-0.1c0.2-0.2,0.2-0.4-0.1-0.4
				C55.9,50.9,55.6,51,55.4,51.2z"/>
			<path class="st23" d="M53.3,52.9c-0.2,0.2-0.2,0.4,0.1,0.4c0.2,0.1,0.6,0,0.8-0.1c0.2-0.2,0.2-0.4-0.1-0.4
				C53.8,52.7,53.5,52.8,53.3,52.9z"/>
			<path class="st23" d="M58,52.1c-0.2,0.2-0.2,0.4,0.1,0.4c0.2,0.1,0.6,0,0.8-0.1s0.2-0.4-0.1-0.4C58.5,51.8,58.1,51.9,58,52.1z"/>
			<path class="st23" d="M55.9,53.8c-0.2,0.2-0.2,0.4,0.1,0.4c0.2,0.1,0.6,0,0.8-0.1s0.2-0.4-0.1-0.4C56.4,53.6,56.1,53.7,55.9,53.8
				z"/>
		</g>
		<g>
			<polygon class="st24" points="51.6,53.5 52.5,58.6 57.5,60.3 56.5,55.2 			"/>
			<path class="st23" d="M54.5,56.5c-0.2-0.1-0.4,0-0.3,0.3s0.3,0.5,0.5,0.6s0.4,0,0.3-0.3C54.9,56.8,54.7,56.5,54.5,56.5z"/>
			<path class="st23" d="M52.9,54.7c-0.2-0.1-0.4,0-0.3,0.3c0,0.2,0.3,0.5,0.5,0.6c0.2,0.1,0.4,0,0.3-0.3
				C53.4,55,53.2,54.7,52.9,54.7z"/>
			<path class="st23" d="M56,58.3c-0.2-0.1-0.4,0-0.3,0.3c0,0.2,0.3,0.5,0.5,0.6s0.4,0,0.3-0.3C56.4,58.6,56.2,58.3,56,58.3z"/>
		</g>
		<g>
			<polygon class="st11" points="56.5,55.2 57.5,60.3 61.4,57 60.5,51.8 			"/>
			<path class="st23" d="M58.9,55.6c-0.2,0.2-0.3,0.5-0.3,0.7c0,0.2,0.2,0.3,0.4,0.1c0.2-0.2,0.3-0.5,0.3-0.7
				C59.3,55.6,59.1,55.5,58.9,55.6z"/>
		</g>
	</g>
	<g>
		<g>
			<polygon class="st10" points="48.7,49.7 43.5,49.3 45.7,54 50.9,54.4 			"/>
			<polygon class="st22" points="45.8,53.8 43.5,49.3 45.7,54 50.9,54.4 			"/>
			<path class="st23" d="M47,51.4c-0.2,0-0.4,0.1-0.3,0.4s0.4,0.4,0.6,0.4c0.2,0,0.4-0.1,0.3-0.4C47.6,51.6,47.3,51.4,47,51.4z"/>
			<path class="st23" d="M47.8,50.3c-0.2,0-0.4,0.1-0.3,0.4c0.1,0.2,0.4,0.4,0.6,0.4c0.2,0,0.4-0.1,0.3-0.4
				C48.3,50.5,48.1,50.3,47.8,50.3z"/>
			<path class="st23" d="M45.1,50.1c-0.2,0-0.4,0.1-0.3,0.4c0.1,0.2,0.4,0.4,0.6,0.4s0.4-0.1,0.3-0.4C45.6,50.3,45.3,50.1,45.1,50.1
				z"/>
			<path class="st23" d="M49,52.8c-0.2,0-0.4,0.1-0.3,0.4c0.1,0.2,0.4,0.4,0.6,0.4c0.2,0,0.4-0.1,0.3-0.4C49.5,53,49.2,52.8,49,52.8
				z"/>
			<path class="st23" d="M46.3,52.5c-0.2,0-0.4,0.1-0.3,0.4s0.4,0.4,0.6,0.4c0.2,0,0.4-0.1,0.3-0.4S46.5,52.6,46.3,52.5z"/>
		</g>
		<g>
			<polygon class="st24" points="43.5,49.3 40.5,53.5 42.8,58.2 45.7,54 			"/>
			<path class="st23" d="M43.4,53.4c-0.1-0.2-0.3-0.2-0.4,0c-0.1,0.2-0.2,0.5-0.1,0.8c0.1,0.2,0.3,0.2,0.4,0
				C43.5,53.9,43.5,53.6,43.4,53.4z"/>
			<path class="st23" d="M43.6,51c-0.1-0.2-0.3-0.2-0.4,0c-0.1,0.2-0.2,0.5-0.1,0.8s0.3,0.2,0.4,0C43.7,51.6,43.7,51.3,43.6,51z"/>
			<path class="st23" d="M43.2,55.7c-0.1-0.2-0.3-0.2-0.4,0c-0.1,0.2-0.2,0.5-0.1,0.8c0.1,0.2,0.3,0.2,0.4,0
				C43.3,56.3,43.3,56,43.2,55.7z"/>
		</g>
		<g>
			<polygon class="st11" points="45.7,54 42.8,58.2 48,58.7 50.9,54.4 			"/>
			<path class="st23" d="M47.1,56c-0.2,0-0.6,0.1-0.7,0.3c-0.1,0.2-0.1,0.4,0.2,0.4s0.6-0.1,0.7-0.3C47.4,56.2,47.4,56,47.1,56z"/>
		</g>
	</g>
	<g>
		<g>
			<path class="st25" d="M19.7,48.9l-8.3-2.2c-0.3-0.1-0.5,0.1-0.6,0.3L7.5,59.1c-0.1,0.3,0.1,0.5,0.3,0.6l8.3,2.2
				c0.3,0.1,0.5-0.1,0.6-0.3L20,49.5C20.1,49.2,19.9,49,19.7,48.9z"/>
			<g>
				<path class="st10" d="M11.4,48.4l-0.2,0.2l-0.3-0.1l0.9-1.2l0.3,0.1l0.2,1.5l-0.3-0.1l0-0.3L11.4,48.4z M11.9,47.7l-0.4,0.5
					l0.4,0.1L11.9,47.7z"/>
			</g>
			<g>
				<path class="st10" d="M16.1,60.2l0.2-0.2l0.3,0.1l-0.9,1.2l-0.3-0.1l-0.2-1.5l0.3,0.1l0,0.3L16.1,60.2z M15.9,60.4l-0.4-0.1
					l0.1,0.6L15.9,60.4z"/>
			</g>
			<path class="st10" d="M13.3,56"/>
			<path class="st10" d="M15.5,54.8c0.2-0.1,0.3-0.3,0.4-0.6c0.1-0.5-0.2-1.1-0.7-1.3c-0.5-0.1-1.1,0.2-1.3,0.7c0,0.1,0,0.1,0,0
				c0.1-0.5-0.2-1.1-0.7-1.3c-0.5-0.1-1.1,0.2-1.3,0.7c-0.1,0.2,0,0.5,0.1,0.7c0.3,0.9,0.9,1.4,1.2,2.4C14,55.5,14.8,55.4,15.5,54.8
				z"/>
			<path class="st10" d="M12,50.1c0.1,0,0.1-0.1,0.1-0.2c0.1-0.2-0.1-0.4-0.3-0.4c-0.2-0.1-0.4,0.1-0.4,0.3c0,0,0,0,0,0
				c0.1-0.2-0.1-0.4-0.3-0.4c-0.2-0.1-0.4,0.1-0.4,0.3c0,0.1,0,0.2,0,0.2c0.1,0.3,0.3,0.5,0.4,0.8C11.4,50.4,11.7,50.3,12,50.1z"/>
			<path class="st10" d="M16.8,59c0,0.1,0,0.2,0,0.2c-0.1,0.2-0.3,0.3-0.4,0.3S16,59.2,16.1,59c0,0,0,0,0,0
				c-0.1,0.2-0.3,0.3-0.4,0.3c-0.2-0.1-0.3-0.3-0.3-0.4c0-0.1,0.1-0.2,0.1-0.2c0.3-0.2,0.5-0.3,0.8-0.5C16.5,58.5,16.7,58.7,16.8,59
				z"/>
		</g>
		<path class="st26" d="M11.3,46.7c-0.3-0.1-0.5,0.1-0.6,0.3L7.5,59.1c-0.1,0.3,0.1,0.5,0.3,0.6l0.2,0.1h4.6c0.3,0,0.5-0.2,0.5-0.5
			V47.1L11.3,46.7z"/>
		<g>
			<path class="st25" d="M12.3,45.8H3.7c-0.3,0-0.5,0.2-0.5,0.5v12.6c0,0.3,0.2,0.5,0.5,0.5h8.6c0.3,0,0.5-0.2,0.5-0.5V46.3
				C12.8,46.1,12.6,45.8,12.3,45.8z"/>
			<g>
				<path class="st9" d="M8.8,55.3c-0.4-0.4-0.6-1-0.6-1.7c0-0.1,0-0.2,0-0.3H7.9c0,0.1,0,0.2,0,0.3c0,0.7-0.3,1.3-0.6,1.7H8.8z"/>
				<circle class="st9" cx="8" cy="51.2" r="1.3"/>
				<g>
					<circle class="st9" cx="9.1" cy="53" r="1.3"/>
					<circle class="st9" cx="7" cy="53" r="1.3"/>
				</g>
			</g>
			<g>
				<g>
					<path class="st9" d="M4.8,48.7c0,0,0-0.1,0-0.1c0-0.2-0.1-0.3-0.3-0.3c-0.2,0-0.3,0.1-0.3,0.3c0,0,0,0.1,0,0.1
						c-0.1,0-0.3,0.1-0.3,0.3c0,0.2,0.1,0.3,0.3,0.3c0.1,0,0.1,0,0.2-0.1c0,0.1-0.1,0.2-0.1,0.3h0.3c-0.1-0.1-0.1-0.2-0.1-0.3
						c0,0,0.1,0.1,0.2,0.1c0.2,0,0.3-0.1,0.3-0.3C5,48.8,4.9,48.7,4.8,48.7z"/>
					<g>
						<path class="st9" d="M4.2,47.5l-0.1,0.3H3.8l0.6-1.4h0.3l0.6,1.4H5l-0.1-0.3H4.2z M4.5,46.7l-0.2,0.5h0.4L4.5,46.7z"/>
					</g>
				</g>
				<g>
					<path class="st9" d="M11.7,56.5c0,0,0,0.1,0,0.1c0,0.2-0.1,0.3-0.3,0.3c-0.2,0-0.3-0.1-0.3-0.3c0,0,0-0.1,0-0.1
						c-0.1,0-0.3-0.1-0.3-0.3c0-0.2,0.1-0.3,0.3-0.3c0.1,0,0.1,0,0.2,0.1c0-0.1-0.1-0.2-0.1-0.3h0.3c-0.1,0.1-0.1,0.2-0.1,0.3
						c0,0,0.1-0.1,0.2-0.1c0.2,0,0.3,0.1,0.3,0.3C12,56.4,11.9,56.5,11.7,56.5z"/>
					<g>
						<path class="st9" d="M11.8,57.7l0.1-0.3h0.3l-0.6,1.4h-0.3l-0.6-1.4h0.3l0.1,0.3H11.8z M11.7,57.9h-0.4l0.2,0.5L11.7,57.9z"/>
					</g>
				</g>
			</g>
		</g>
	</g>
</g>
</svg>
