<?xml version="1.0" encoding="utf-8"?>
<!-- Generator: Adobe Illustrator 19.0.0, SVG Export Plug-In . SVG Version: 6.00 Build 0)  -->
<svg version="1.1" xmlns="http://www.w3.org/2000/svg" xmlns:xlink="http://www.w3.org/1999/xlink" x="0px" y="0px"
	 viewBox="0 0 64 64" style="enable-background:new 0 0 64 64;" xml:space="preserve">
<style type="text/css">
	.st0{fill:#EAEAEA;}
	.st1{fill:#CDBE70;}
	.st2{fill:#A67EAF;}
	.st3{fill:#D38587;}
	.st4{fill:#E2AF72;}
	.st5{fill:#86D19A;}
</style>
<g id="Layer_2">
	<rect x="0.1" y="0" class="st0" width="63.9" height="64"/>
</g>
<g id="Layer_1">
	<g>
		<path class="st1" d="M1.7,10.7C0.8,10.7,0,9.9,0,9l0-7.3C0,0.8,0.8,0,1.7,0L9,0c0.9,0,1.7,0.8,1.7,1.7l0,7.3
			c0,0.9-0.8,1.7-1.7,1.7L1.7,10.7z"/>
		<path class="st1" d="M12.5,10.7c-0.9,0-1.7-0.8-1.7-1.7l0-7.3c0-0.9,0.8-1.7,1.7-1.7l7.3,0c0.9,0,1.7,0.8,1.7,1.7l0,7.3
			c0,0.9-0.8,1.7-1.7,1.7L12.5,10.7z"/>
		<path class="st1" d="M23.2,10.7c-0.9,0-1.7-0.8-1.7-1.7l0-7.3c0-0.9,0.8-1.7,1.7-1.7l7.3,0c0.9,0,1.7,0.8,1.7,1.7l0,7.3
			c0,0.9-0.8,1.7-1.7,1.7L23.2,10.7z"/>
		<path class="st1" d="M34,10.7c-0.9,0-1.7-0.8-1.7-1.7l0-7.3C32.3,0.8,33.1,0,34,0l7.3,0C42.3,0,43,0.8,43,1.7L43,9
			c0,0.9-0.8,1.7-1.7,1.7L34,10.7z"/>
		<path class="st1" d="M44.8,10.7c-0.9,0-1.7-0.8-1.7-1.7l0-7.3c0-0.9,0.8-1.7,1.7-1.7l7.3,0c0.9,0,1.7,0.8,1.7,1.7l0,7.3
			c0,0.9-0.8,1.7-1.7,1.7L44.8,10.7z"/>
	</g>
	<g>
		<path class="st2" d="M23.2,21.4c-0.9,0-1.7-0.8-1.7-1.7v-7.3c0-0.9,0.8-1.7,1.7-1.7h7.3c0.9,0,1.7,0.8,1.7,1.7v7.3
			c0,0.9-0.8,1.7-1.7,1.7H23.2z"/>
		<path class="st2" d="M34,21.4c-0.9,0-1.7-0.8-1.7-1.7v-7.3c0-0.9,0.8-1.7,1.7-1.7h7.3c0.9,0,1.7,0.8,1.7,1.7v7.3
			c0,0.9-0.8,1.7-1.7,1.7H34z"/>
		<path class="st2" d="M44.7,21.4c-0.9,0-1.7-0.8-1.7-1.7v-7.3c0-0.9,0.8-1.7,1.7-1.7H52c0.9,0,1.7,0.8,1.7,1.7v7.3
			c0,0.9-0.8,1.7-1.7,1.7H44.7z"/>
		<path class="st2" d="M55.4,21.4c-0.9,0-1.7-0.8-1.7-1.7v-7.3c0-0.9,0.8-1.7,1.7-1.7h7.3c0.9,0,1.7,0.8,1.7,1.7v7.3
			c0,0.9-0.8,1.7-1.7,1.7H55.4z"/>
	</g>
	<g>
		<g>
			<path class="st3" d="M10.6,40.9c0,0.9-0.8,1.7-1.7,1.7l-7.2,0c-0.9,0-1.7-0.8-1.7-1.7l0-7.2c0-0.9,0.8-1.7,1.7-1.7l7.2,0
				c0.9,0,1.7,0.8,1.7,1.7L10.6,40.9z"/>
			<path class="st3" d="M10.6,30.2c0,0.9-0.8,1.7-1.7,1.7l-7.2,0c-0.9,0-1.7-0.8-1.7-1.7l0-7.2c0-0.9,0.8-1.7,1.7-1.7l7.2,0
				c0.9,0,1.7,0.8,1.7,1.7L10.6,30.2z"/>
			<path class="st3" d="M10.6,19.6c0,0.9-0.8,1.7-1.7,1.7l-7.2,0c-0.9,0-1.7-0.8-1.7-1.7l0-7.2c0-0.9,0.8-1.7,1.7-1.7l7.2,0
				c0.9,0,1.7,0.8,1.7,1.7L10.6,19.6z"/>
		</g>
	</g>
	<g>
		<path class="st1" d="M0,44.2c0-0.9,0.8-1.7,1.7-1.7l7.3,0c0.9,0,1.7,0.8,1.7,1.7l0,7.3c0,0.9-0.8,1.7-1.7,1.7l-7.3,0
			c-0.9,0-1.7-0.8-1.7-1.7L0,44.2z"/>
		<path class="st1" d="M0,55c0-0.9,0.8-1.7,1.7-1.7l7.3,0c0.9,0,1.7,0.8,1.7,1.7l0,7.3c0,0.9-0.8,1.7-1.7,1.7l-7.3,0
			C0.8,64,0,63.3,0,62.3L0,55z"/>
	</g>
	<g>
		<g>
			<path class="st4" d="M62.3,53.2c0.9,0,1.7,0.8,1.7,1.7l0,7.2c0,0.9-0.8,1.7-1.7,1.7l-7.2,0c-0.9,0-1.7-0.8-1.7-1.7l0-7.2
				c0-0.9,0.8-1.7,1.7-1.7L62.3,53.2z"/>
			<path class="st4" d="M51.6,53.2c0.9,0,1.7,0.8,1.7,1.7l0,7.2c0,0.9-0.8,1.7-1.7,1.7l-7.2,0c-0.9,0-1.7-0.8-1.7-1.7l0-7.2
				c0-0.9,0.8-1.7,1.7-1.7L51.6,53.2z"/>
			<path class="st4" d="M40.9,53.1c0.9,0,1.7,0.8,1.7,1.7l0,7.2c0,0.9-0.8,1.7-1.7,1.7l-7.2,0C32.7,63.7,32,63,32,62l0-7.2
				c0-0.9,0.8-1.7,1.7-1.7L40.9,53.1z"/>
			<path class="st4" d="M30.2,53.1c0.9,0,1.7,0.8,1.7,1.7l0,7.2c0,0.9-0.8,1.7-1.7,1.7l-7.2,0c-0.9,0-1.7-0.8-1.7-1.7l0-7.2
				c0-0.9,0.8-1.7,1.7-1.7L30.2,53.1z"/>
		</g>
		<g>
			<path class="st4" d="M64,51.5c0,0.9-0.8,1.7-1.7,1.7l-7.2,0c-0.9,0-1.7-0.8-1.7-1.7l0-7.2c0-0.9,0.8-1.7,1.7-1.7l7.2,0
				c0.9,0,1.7,0.8,1.7,1.7L64,51.5z"/>
			<path class="st4" d="M64,40.9c0,0.9-0.8,1.7-1.7,1.7l-7.2,0c-0.9,0-1.7-0.8-1.7-1.7l0-7.2c0-0.9,0.8-1.7,1.7-1.7l7.2,0
				c0.9,0,1.7,0.8,1.7,1.7L64,40.9z"/>
			<path class="st4" d="M64,30.2c0,0.9-0.8,1.7-1.7,1.7l-7.2,0c-0.9,0-1.7-0.8-1.7-1.7l0-7.2c0-0.9,0.8-1.7,1.7-1.7l7.2,0
				c0.9,0,1.7,0.8,1.7,1.7L64,30.2z"/>
		</g>
	</g>
	<g>
		<g>
			<path class="st3" d="M42.6,51.5c0,0.9-0.8,1.7-1.7,1.7l-7.2,0c-0.9,0-1.7-0.8-1.7-1.7l0-7.2c0-0.9,0.8-1.7,1.7-1.7l7.2,0
				c0.9,0,1.7,0.8,1.7,1.7L42.6,51.5z"/>
			<path class="st3" d="M42.6,40.9c0,0.9-0.8,1.7-1.7,1.7l-7.2,0c-0.9,0-1.7-0.8-1.7-1.7l0-7.2c0-0.9,0.8-1.7,1.7-1.7l7.2,0
				c0.9,0,1.7,0.8,1.7,1.7L42.6,40.9z"/>
			<path class="st3" d="M42.6,30.2c0,0.9-0.8,1.7-1.7,1.7l-7.2,0c-0.9,0-1.7-0.8-1.7-1.7l0-7.2c0-0.9,0.8-1.7,1.7-1.7l7.2,0
				c0.9,0,1.7,0.8,1.7,1.7L42.6,30.2z"/>
			<path class="st3" d="M53.3,30.3c0,0.9-0.8,1.7-1.7,1.7l-7.2,0c-0.9,0-1.7-0.8-1.7-1.7l0-7.2c0-0.9,0.8-1.7,1.7-1.7l7.2,0
				c0.9,0,1.7,0.8,1.7,1.7L53.3,30.3z"/>
		</g>
	</g>
	<path class="st5" d="M12.6,53.2c-0.9,0-1.7-0.7-1.7-1.7l0-7.2c0-0.9,0.7-1.7,1.7-1.7l7.2,0c0.9,0,1.7,0.7,1.7,1.7l0,7.2
		c0,0.9-0.8,1.7-1.7,1.7L12.6,53.2z"/>
	<path class="st5" d="M23.2,53.1c-0.9,0-1.7-0.7-1.7-1.7l0-7.2c0-0.9,0.7-1.7,1.7-1.7l7.2,0c0.9,0,1.7,0.7,1.7,1.7l0,7.2
		c0,0.9-0.7,1.7-1.7,1.7L23.2,53.1z"/>
	<path class="st5" d="M12.5,42.5c-0.9,0-1.7-0.7-1.7-1.7l0-7.2c0-0.9,0.7-1.7,1.7-1.7l7.2,0c0.9,0,1.7,0.7,1.7,1.7l0,7.2
		c0,0.9-0.8,1.7-1.7,1.7L12.5,42.5z"/>
</g>
</svg>
