<?xml version="1.0" encoding="utf-8"?>
<!-- Generator: Adobe Illustrator 19.0.0, SVG Export Plug-In . SVG Version: 6.00 Build 0)  -->
<svg version="1.1" xmlns="http://www.w3.org/2000/svg" xmlns:xlink="http://www.w3.org/1999/xlink" x="0px" y="0px"
	 viewBox="0 0 64 64" style="enable-background:new 0 0 64 64;" xml:space="preserve">
<style type="text/css">
	.st0{fill:#333333;}
	.st1{fill:#BBBDBF;}
	.st2{fill:#EC1C24;}
	.st3{fill:#87543C;}
	.st4{fill:#F6921E;}
	.st5{fill:#C3161C;}
	.st6{fill:#6DCEF5;}
	.st7{fill:#00B8F1;}
	.st8{fill:#FFCA05;}
	.st9{fill:#FCB813;}
	.st10{fill:#B99664;}
	.st11{fill:#997E53;}
	.st12{fill:#A5CD39;}
	.st13{fill:#72BE44;}
	.st14{fill:#D0D2D3;}
	.st15{fill:url(#XMLID_424_);}
	.st16{fill:url(#XMLID_425_);}
	.st17{fill:#808184;}
	.st18{fill:#A6A8AB;}
	.st19{fill:url(#XMLID_426_);}
	.st20{fill:url(#XMLID_427_);}
	.st21{fill:url(#XMLID_429_);}
	.st22{fill:url(#XMLID_430_);}
	.st23{fill:#231F20;}
	.st24{fill:#929497;}
	.st25{fill:url(#XMLID_431_);}
	.st26{fill:url(#XMLID_432_);}
	.st27{fill:url(#XMLID_433_);}
	.st28{fill:url(#XMLID_434_);}
	.st29{fill:url(#XMLID_435_);}
	.st30{fill:url(#XMLID_436_);}
	.st31{fill:#967348;}
	.st32{opacity:0.3;fill:url(#XMLID_437_);}
	.st33{fill:none;stroke:#231F20;stroke-width:0.5502;stroke-miterlimit:10;}
	.st34{fill:#005E9C;}
	.st35{fill:url(#XMLID_438_);}
	.st36{fill:#90278E;}
	.st37{opacity:0.3;fill:url(#XMLID_439_);}
	.st38{fill:#69502E;}
	.st39{fill:#58595B;}
	.st40{opacity:0.4;fill:url(#XMLID_440_);}
	.st41{opacity:0.5;fill:#8DD7F7;}
	.st42{fill:#FFDD00;}
	.st43{fill:#D71921;}
	.st44{fill:url(#XMLID_441_);}
	.st45{fill:url(#XMLID_442_);}
	.st46{fill:url(#XMLID_443_);}
	.st47{fill:url(#XMLID_444_);}
	.st48{fill:url(#XMLID_445_);}
	.st49{fill:url(#XMLID_446_);}
	.st50{fill:url(#XMLID_447_);}
	.st51{fill:url(#XMLID_448_);}
	.st52{fill:url(#XMLID_449_);}
	.st53{fill:url(#XMLID_450_);}
	.st54{fill:url(#XMLID_451_);}
	.st55{fill:url(#XMLID_452_);}
	.st56{fill:url(#XMLID_453_);}
	.st57{fill:#404041;}
	.st58{fill:#8A0304;}
	.st59{fill:#6D6E70;}
	.st60{fill:url(#XMLID_454_);}
	.st61{fill:url(#XMLID_455_);}
	.st62{fill:url(#XMLID_456_);}
	.st63{opacity:0.4;fill:url(#XMLID_457_);}
	.st64{opacity:0.4;fill:#FFFFFF;}
	.st65{opacity:0.3;fill:url(#XMLID_458_);}
	.st66{fill:#993F97;}
	.st67{fill:#CDD6DB;}
	.st68{fill:#4267B0;}
	.st69{fill:#3A5A9A;}
	.st70{fill:#7190CA;}
	.st71{opacity:0.44;}
	.st72{fill:#87A9D8;}
	.st73{fill:#6683B6;}
	.st74{fill:#D43927;}
	.st75{fill:#E43E2A;}
	.st76{fill:#F0602C;}
	.st77{fill:#DB4C28;}
	.st78{opacity:0.56;fill:#F4832A;}
	.st79{fill:#6B418A;}
	.st80{opacity:0.62;}
	.st81{fill:#764B9A;}
	.st82{fill:#804E9E;}
	.st83{opacity:0.47;}
	.st84{fill:#8B5FA7;}
	.st85{fill:#73458F;}
	.st86{fill:#DA5F9C;}
	.st87{fill:#DC80AC;}
	.st88{fill:#F070AA;}
	.st89{fill:#F49FC4;}
	.st90{fill:#CF568F;}
</style>
<g id="Layer_2">
	<rect id="XMLID_422_" class="st0" width="63.9" height="64"/>
</g>
<g id="Layer_1">
	<g id="XMLID_151_">
		<path id="XMLID_320_" class="st1" d="M21.4,16.9L23,39.8h22.5l1.6-22.9H21.4z M44.3,38.8H24.2L22.8,18h22.9L44.3,38.8z"/>
		<g id="XMLID_289_">
			<g id="XMLID_315_">
				<path id="XMLID_147_" class="st2" d="M35.8,32c0.4-0.2,0.2-1,0.9-1.4c0.7-0.4,1.7-0.2,2.5,1c1.2,2,0.4,3.1-0.3,3.5
					c-0.8,0.5-1.3,0.4-1.4,0.2c-0.1-0.2,0.6-0.7,0.2-1.5c-0.3-0.6-0.6-0.7-0.8-0.6c-0.2,0.1,0,0.7-0.7,1.1c-0.5,0.3-1.3,0.3-1.7-0.4
					c-0.5-0.7,0.1-1.4,0.1-1.7c0-0.3-0.2-0.4-0.2-0.6C34.5,31.5,35.3,31.5,35.8,32z"/>
				<circle id="XMLID_146_" class="st3" cx="35.1" cy="33" r="0.2"/>
				<path id="XMLID_145_" class="st4" d="M34.5,31.7c0,0.2,0.2,0.3,0.2,0.6c0.5,0.2,0.9,0.1,1.1-0.2C35.3,31.5,34.5,31.5,34.5,31.7z
					"/>
				<path id="XMLID_144_" class="st5" d="M37.5,33.1c-0.4-0.4-0.5-0.8-0.2-1.2c0.3-0.3,0.7-0.4,1.2,0c0.5,0.4,0.9,1.3,0.7,1.5
					C38.9,33.7,38,33.5,37.5,33.1z"/>
			</g>
			<g id="XMLID_310_">
				<path id="XMLID_143_" class="st6" d="M37.7,37c-0.4-0.2-0.9,0.4-1.6,0.1c-0.8-0.4-1.2-1.3-0.5-2.7c1-2.2,2.4-2.1,3.1-1.7
					c0.8,0.4,1.1,0.9,1,1.1c-0.1,0.2-0.9-0.1-1.4,0.7c-0.3,0.6-0.2,0.9,0,1c0.2,0.1,0.6-0.4,1.3-0.1c0.5,0.2,0.9,0.9,0.6,1.7
					c-0.4,0.8-1.2,0.7-1.5,0.8c-0.2,0.1-0.2,0.4-0.4,0.5C38,38.3,37.5,37.7,37.7,37z"/>
				<circle id="XMLID_142_" class="st3" cx="38.9" cy="37" r="0.2"/>
				<path id="XMLID_141_" class="st4" d="M38.2,38.3c0.2-0.1,0.2-0.3,0.4-0.5c-0.1-0.5-0.4-0.8-0.8-0.8C37.5,37.7,38,38.3,38.2,38.3
					z"/>
				<path id="XMLID_140_" class="st7" d="M37.6,35c0,0.6-0.4,0.9-0.8,0.8c-0.4,0-0.7-0.4-0.7-1c0.1-0.7,0.5-1.4,0.9-1.4
					C37.3,33.5,37.7,34.3,37.6,35z"/>
			</g>
			<g id="XMLID_305_">
				<path id="XMLID_139_" class="st8" d="M36,33.6c0.1,0.4,0.9,0.4,1.2,1.2c0.3,0.8-0.2,1.8-1.6,2.2c-2.3,0.8-3.1-0.3-3.4-1
					c-0.3-0.9-0.1-1.4,0.1-1.4c0.2-0.1,0.6,0.7,1.5,0.5c0.6-0.1,0.8-0.4,0.7-0.6c-0.1-0.2-0.7-0.1-1-0.9c-0.2-0.5,0-1.3,0.8-1.6
					c0.8-0.3,1.3,0.4,1.6,0.5c0.3,0.1,0.4-0.1,0.6-0.1C36.8,32.4,36.7,33.2,36,33.6z"/>
				<circle id="XMLID_138_" class="st3" cx="35.2" cy="32.7" r="0.2"/>
				<path id="XMLID_137_" class="st4" d="M36.6,32.3c-0.2-0.1-0.4,0.1-0.6,0.1c-0.3,0.4-0.3,0.9,0,1.2
					C36.7,33.2,36.8,32.4,36.6,32.3z"/>
				<path id="XMLID_136_" class="st9" d="M34.6,35c0.4-0.4,0.9-0.3,1.2,0c0.3,0.3,0.2,0.8-0.2,1.2c-0.5,0.4-1.4,0.6-1.6,0.3
					C33.7,36.3,34.1,35.4,34.6,35z"/>
			</g>
			<g id="XMLID_300_">
				<path id="XMLID_135_" class="st8" d="M42.5,32.3c-0.3,0.3-1-0.1-1.6,0.5c-0.6,0.6-0.7,1.6,0.3,2.7c1.6,1.7,2.9,1.2,3.5,0.7
					c0.6-0.6,0.7-1.1,0.6-1.3c-0.2-0.2-0.9,0.4-1.5-0.2c-0.5-0.4-0.5-0.7-0.3-0.9c0.2-0.2,0.7,0.2,1.3-0.3c0.4-0.4,0.6-1.1,0-1.8
					c-0.6-0.6-1.4-0.2-1.7-0.3c-0.3-0.1-0.3-0.3-0.5-0.3C42.3,30.9,42.1,31.6,42.5,32.3z"/>
				<circle id="XMLID_134_" class="st3" cx="43.7" cy="31.8" r="0.2"/>
				<path id="XMLID_133_" class="st4" d="M42.5,30.9c0.2,0,0.3,0.3,0.5,0.3c0.1,0.5-0.2,0.9-0.5,1C42.1,31.6,42.3,30.9,42.5,30.9z"
					/>
				<path id="XMLID_132_" class="st9" d="M43,34.2c-0.2-0.5-0.7-0.7-1.1-0.5c-0.4,0.2-0.5,0.6-0.3,1.1c0.3,0.6,1,1.2,1.3,1
					C43.2,35.7,43.3,34.8,43,34.2z"/>
			</g>
			<g id="XMLID_295_">
				<path id="XMLID_131_" class="st10" d="M44.2,33.6c0.3,0.3,1-0.2,1.6,0.3c0.7,0.5,0.9,1.5,0,2.7c-1.4,1.9-2.7,1.5-3.4,1.1
					c-0.7-0.5-0.9-1.1-0.7-1.3c0.2-0.2,0.9,0.3,1.5-0.4c0.5-0.5,0.4-0.8,0.2-0.9c-0.2-0.1-0.7,0.3-1.3-0.2c-0.4-0.3-0.7-1-0.2-1.7
					c0.5-0.7,1.3-0.4,1.6-0.5c0.2-0.1,0.3-0.4,0.5-0.4C44.2,32.2,44.6,32.9,44.2,33.6z"/>
				<circle id="XMLID_130_" class="st3" cx="43" cy="33.3" r="0.2"/>
				<path id="XMLID_129_" class="st4" d="M44,32.2c-0.2,0-0.2,0.3-0.5,0.4c0,0.5,0.3,0.9,0.7,1C44.6,32.9,44.2,32.2,44,32.2z"/>
				<path id="XMLID_128_" class="st11" d="M43.9,35.5c0.2-0.5,0.6-0.8,1-0.7c0.4,0.1,0.6,0.5,0.5,1.1c-0.2,0.6-0.8,1.3-1.1,1.2
					C43.9,37.1,43.7,36.2,43.9,35.5z"/>
			</g>
			<g id="XMLID_290_">
				<path id="XMLID_127_" class="st12" d="M39.5,33.1c-0.2,0.4-0.9,0.3-1.2,1.1C38,35,38.3,36,39.7,36.5c2.2,0.9,3.1-0.1,3.4-0.8
					c0.3-0.8,0.2-1.3,0-1.4c-0.2-0.1-0.6,0.7-1.5,0.4c-0.6-0.2-0.8-0.5-0.7-0.7c0.1-0.2,0.7-0.1,1-0.8c0.2-0.5,0.1-1.3-0.7-1.6
					c-0.8-0.3-1.4,0.3-1.7,0.4c-0.3,0-0.4-0.2-0.6-0.1C38.8,31.9,38.8,32.7,39.5,33.1z"/>
				<circle id="XMLID_126_" class="st3" cx="40.4" cy="32.2" r="0.2"/>
				<path id="XMLID_125_" class="st4" d="M39,31.9c0.2-0.1,0.3,0.1,0.6,0.1c0.3,0.4,0.2,0.9-0.1,1.2C38.8,32.7,38.8,31.9,39,31.9z"
					/>
				<path id="XMLID_124_" class="st13" d="M40.8,34.6c-0.4-0.4-0.9-0.4-1.2-0.1c-0.3,0.3-0.2,0.8,0.2,1.2c0.5,0.4,1.4,0.7,1.6,0.4
					C41.6,35.9,41.3,35.1,40.8,34.6z"/>
			</g>
		</g>
		<rect id="XMLID_123_" x="20.9" y="32.1" class="st14" width="11.8" height="6.7"/>
		<rect id="XMLID_122_" x="31.7" y="36.1" class="st14" width="15.4" height="3.3"/>
		<g id="XMLID_251_">
			<linearGradient id="XMLID_424_" gradientUnits="userSpaceOnUse" x1="36.8377" y1="21.4435" x2="39.0404" y2="21.4435">
				<stop  offset="0" style="stop-color:#1A1A1A"/>
				<stop  offset="0.5" style="stop-color:#4D4D4D"/>
				<stop  offset="1" style="stop-color:#1A1A1A"/>
			</linearGradient>
			<path id="XMLID_284_" class="st15" d="M39,20.7c0-0.1-0.1-0.1-0.2,0L36.9,22c-0.1,0-0.1,0.1,0,0.2c0,0.1,0.1,0.1,0.2,0l1.9-1.4
				C39,20.8,39.1,20.8,39,20.7z M38.5,21.1l-1.1,0.8c0,0,0,0,0,0c0,0,0,0,0,0c0,0,0-0.1,0-0.1L38.5,21.1C38.5,21,38.5,21,38.5,21.1
				C38.5,21,38.5,21,38.5,21.1C38.6,21,38.6,21.1,38.5,21.1z"/>
			
				<linearGradient id="XMLID_425_" gradientUnits="userSpaceOnUse" x1="-3158.8665" y1="21.4435" x2="-3156.6638" y2="21.4435" gradientTransform="matrix(-1 0 0 1 -3115.8691 0)">
				<stop  offset="0" style="stop-color:#1A1A1A"/>
				<stop  offset="0.5" style="stop-color:#4D4D4D"/>
				<stop  offset="1" style="stop-color:#1A1A1A"/>
			</linearGradient>
			<path id="XMLID_281_" class="st16" d="M40.9,20.9l1.9,1.4c0.1,0,0.1,0,0.2,0c0-0.1,0-0.1,0-0.2L41,20.7c-0.1,0-0.1,0-0.2,0
				C40.8,20.8,40.8,20.8,40.9,20.9z M41.3,21C41.3,21,41.3,21,41.3,21C41.3,21,41.3,21,41.3,21l1.2,0.8c0,0,0,0,0,0.1c0,0,0,0,0,0
				c0,0,0,0,0,0L41.3,21C41.3,21.1,41.3,21,41.3,21z"/>
			<g id="XMLID_252_">
				<path id="XMLID_117_" class="st17" d="M40.1,26.7C40.1,26.7,40.1,26.6,40.1,26.7C40.1,26.6,40.1,26.6,40.1,26.7
					c0.6-0.1,1.1-0.3,1.6-0.7c0,0,0,0,0,0c0,0,0,0,0,0C41.3,26.5,40.7,26.7,40.1,26.7z"/>
				<path id="XMLID_116_" class="st17" d="M39.7,26.7C39.7,26.7,39.7,26.6,39.7,26.7C39.7,26.6,39.7,26.6,39.7,26.7
					c-0.6-0.1-1.1-0.3-1.6-0.7c0,0,0,0,0,0c0,0,0,0,0,0C38.6,26.5,39.1,26.7,39.7,26.7z"/>
				<path id="XMLID_115_" class="st18" d="M40.5,26.6c0,0,0,0.1-0.2,0.1c-0.1,0-0.3,0-0.3-0.1c0,0,0.2-0.1,0.3-0.1
					C40.4,26.6,40.5,26.6,40.5,26.6z"/>
				<path id="XMLID_114_" class="st18" d="M39.4,26.6c0,0,0,0.1,0.2,0.1c0.1,0,0.3,0,0.3-0.1c0,0-0.2-0.1-0.3-0.1
					C39.4,26.6,39.4,26.6,39.4,26.6z"/>
				<linearGradient id="XMLID_426_" gradientUnits="userSpaceOnUse" x1="42.4156" y1="26.0697" x2="42.4156" y2="21.9864">
					<stop  offset="0" style="stop-color:#000000"/>
					<stop  offset="0.5" style="stop-color:#4D4D4D"/>
					<stop  offset="1" style="stop-color:#000000"/>
				</linearGradient>
				<path id="XMLID_113_" class="st19" d="M41.8,26.1C41.8,26.1,41.8,26.1,41.8,26.1c-0.2-0.1-0.1-0.2-0.1-0.2c1-0.9,1.3-2.2,1-3.7
					c0-0.1,0-0.1,0.1-0.2c0.1,0,0.1,0,0.2,0.1c0.1,0.2,0.2,0.9,0.1,1.6C43,24.6,42.6,25.4,41.8,26.1C41.9,26.1,41.9,26.1,41.8,26.1z
					"/>
				<linearGradient id="XMLID_427_" gradientUnits="userSpaceOnUse" x1="37.4194" y1="26.0697" x2="37.4194" y2="21.9864">
					<stop  offset="0" style="stop-color:#000000"/>
					<stop  offset="0.5" style="stop-color:#4D4D4D"/>
					<stop  offset="1" style="stop-color:#000000"/>
				</linearGradient>
				<path id="XMLID_112_" class="st20" d="M38,26.1c0,0,0.1,0,0.1,0c0.1-0.1,0-0.1,0-0.2c-1-0.9-1.3-2.2-1-3.7c0-0.1,0-0.1-0.1-0.2
					c-0.1,0-0.1,0-0.2,0.1c-0.1,0.2-0.2,0.9-0.1,1.6C36.8,24.6,37.2,25.4,38,26.1C37.9,26.1,38,26.1,38,26.1z"/>
				<linearGradient id="XMLID_429_" gradientUnits="userSpaceOnUse" x1="37.7155" y1="19.349" x2="39.236" y2="19.349">
					<stop  offset="0" style="stop-color:#1A1A1A"/>
					<stop  offset="0.5" style="stop-color:#4D4D4D"/>
					<stop  offset="1" style="stop-color:#1A1A1A"/>
				</linearGradient>
				<path id="XMLID_111_" class="st21" d="M38,21.5c0,0.1-0.1,0.1-0.2,0.1c-0.1,0-0.1-0.1-0.1-0.2l1.2-4.3c0-0.1,0.1-0.1,0.2-0.1
					c0.1,0,0.1,0.1,0.1,0.2L38,21.5z"/>
				<linearGradient id="XMLID_430_" gradientUnits="userSpaceOnUse" x1="40.5991" y1="19.349" x2="42.1196" y2="19.349">
					<stop  offset="0" style="stop-color:#1A1A1A"/>
					<stop  offset="0.5" style="stop-color:#4D4D4D"/>
					<stop  offset="1" style="stop-color:#1A1A1A"/>
				</linearGradient>
				<path id="XMLID_110_" class="st22" d="M41.9,21.5c0,0.1,0.1,0.1,0.2,0.1c0.1,0,0.1-0.1,0.1-0.2l-1.2-4.3c0-0.1-0.1-0.1-0.2-0.1
					c-0.1,0-0.1,0.1-0.1,0.2L41.9,21.5z"/>
				<path id="XMLID_109_" class="st23" d="M40.6,17.1h0.1c0.1,0,0.1,0.1,0.1,0.1c0,0.1-0.1,0.1-0.1,0.1h-0.1V17.1z"/>
				<circle id="XMLID_108_" class="st24" cx="40.7" cy="17.2" r="0"/>
				<path id="XMLID_107_" class="st23" d="M40.8,20.6h0.1c0.1,0,0.1,0.1,0.1,0.1c0,0.1-0.1,0.1-0.1,0.1h-0.1V20.6z"/>
				<circle id="XMLID_106_" class="st24" cx="42" cy="21.5" r="0"/>
				<circle id="XMLID_105_" class="st24" cx="42.9" cy="22.1" r="0"/>
				<linearGradient id="XMLID_431_" gradientUnits="userSpaceOnUse" x1="39.3203" y1="18.4017" x2="40.5144" y2="18.4017">
					<stop  offset="0" style="stop-color:#000000"/>
					<stop  offset="1.993773e-002" style="stop-color:#050505"/>
					<stop  offset="0.1314" style="stop-color:#1D1D1D"/>
					<stop  offset="0.2" style="stop-color:#262626"/>
					<stop  offset="0.2299" style="stop-color:#212121"/>
					<stop  offset="0.3972" style="stop-color:#090909"/>
					<stop  offset="0.5" style="stop-color:#000000"/>
					<stop  offset="0.75" style="stop-color:#262626"/>
					<stop  offset="0.8357" style="stop-color:#1D1D1D"/>
					<stop  offset="0.9751" style="stop-color:#050505"/>
					<stop  offset="1" style="stop-color:#000000"/>
				</linearGradient>
				<rect id="XMLID_104_" x="39.3" y="17.4" class="st25" width="1.2" height="2"/>
				<linearGradient id="XMLID_432_" gradientUnits="userSpaceOnUse" x1="39.2387" y1="17.2116" x2="40.5961" y2="17.2116">
					<stop  offset="0" style="stop-color:#1A1A1A"/>
					<stop  offset="0.1216" style="stop-color:#303030"/>
					<stop  offset="0.2" style="stop-color:#393939"/>
					<stop  offset="0.222" style="stop-color:#333333"/>
					<stop  offset="0.2876" style="stop-color:#242424"/>
					<stop  offset="0.3674" style="stop-color:#1C1C1C"/>
					<stop  offset="0.5" style="stop-color:#1A1A1A"/>
					<stop  offset="0.6105" style="stop-color:#1C1C1C"/>
					<stop  offset="0.677" style="stop-color:#242424"/>
					<stop  offset="0.7316" style="stop-color:#333333"/>
					<stop  offset="0.75" style="stop-color:#393939"/>
					<stop  offset="0.848" style="stop-color:#303030"/>
					<stop  offset="1" style="stop-color:#1A1A1A"/>
				</linearGradient>
				<rect id="XMLID_103_" x="39.2" y="17" class="st26" width="1.4" height="0.3"/>
				<path id="XMLID_102_" class="st23" d="M39.2,17.1h-0.1c-0.1,0-0.1,0.1-0.1,0.1c0,0.1,0.1,0.1,0.1,0.1h0.1V17.1z"/>
				<circle id="XMLID_101_" class="st24" cx="39.1" cy="17.2" r="0"/>
				<path id="XMLID_100_" class="st23" d="M39,20.6h-0.1c-0.1,0-0.1,0.1-0.1,0.1c0,0.1,0.1,0.1,0.1,0.1H39V20.6z"/>
				<circle id="XMLID_99_" class="st24" cx="38.9" cy="20.8" r="0"/>
				<circle id="XMLID_98_" class="st24" cx="37.9" cy="21.5" r="0"/>
				<circle id="XMLID_97_" class="st24" cx="37" cy="22.1" r="0"/>
				<linearGradient id="XMLID_433_" gradientUnits="userSpaceOnUse" x1="39.5926" y1="19.9865" x2="40.2422" y2="19.9865">
					<stop  offset="0" style="stop-color:#B3B3B3"/>
					<stop  offset="0.1076" style="stop-color:#C3C3C3"/>
					<stop  offset="0.2" style="stop-color:#CCCCCC"/>
					<stop  offset="0.3614" style="stop-color:#BBBBBB"/>
					<stop  offset="0.5" style="stop-color:#B3B3B3"/>
					<stop  offset="0.75" style="stop-color:#CCCCCC"/>
					<stop  offset="0.8655" style="stop-color:#C3C3C3"/>
					<stop  offset="1" style="stop-color:#B3B3B3"/>
				</linearGradient>
				<rect id="XMLID_96_" x="39.6" y="19.4" class="st27" width="0.6" height="1.1"/>
				<linearGradient id="XMLID_434_" gradientUnits="userSpaceOnUse" x1="39.0481" y1="20.7682" x2="40.7866" y2="20.7682">
					<stop  offset="0" style="stop-color:#000000"/>
					<stop  offset="1.993773e-002" style="stop-color:#050505"/>
					<stop  offset="0.1314" style="stop-color:#1D1D1D"/>
					<stop  offset="0.2" style="stop-color:#262626"/>
					<stop  offset="0.2299" style="stop-color:#212121"/>
					<stop  offset="0.3972" style="stop-color:#090909"/>
					<stop  offset="0.5" style="stop-color:#000000"/>
					<stop  offset="0.75" style="stop-color:#262626"/>
					<stop  offset="0.8357" style="stop-color:#1D1D1D"/>
					<stop  offset="0.9751" style="stop-color:#050505"/>
					<stop  offset="1" style="stop-color:#000000"/>
				</linearGradient>
				<rect id="XMLID_95_" x="39" y="20.5" class="st28" width="1.7" height="0.4"/>
				<linearGradient id="XMLID_435_" gradientUnits="userSpaceOnUse" x1="39.9309" y1="22.111" x2="39.9309" y2="20.9889">
					<stop  offset="0" style="stop-color:#1A1A1A"/>
					<stop  offset="0.5" style="stop-color:#4D4D4D"/>
					<stop  offset="1" style="stop-color:#1A1A1A"/>
				</linearGradient>
				<polygon id="XMLID_94_" class="st29" points="39.8,21 39.8,22.1 39.9,22.1 39.9,21.9 40,21.9 40,22.1 40.1,22.1 40.1,21 				"/>
				<linearGradient id="XMLID_436_" gradientUnits="userSpaceOnUse" x1="39.9309" y1="25.7769" x2="39.9309" y2="21.9082">
					<stop  offset="0" style="stop-color:#000000"/>
					<stop  offset="0.5" style="stop-color:#4D4D4D"/>
					<stop  offset="1" style="stop-color:#000000"/>
				</linearGradient>
				<polygon id="XMLID_93_" class="st30" points="40,22.1 40,21.9 39.9,21.9 39.9,22.1 39.8,22.1 39.8,25.8 40.1,25.8 40.1,22.1 
									"/>
				<rect id="XMLID_92_" x="39.9" y="25.8" class="st17" width="0.2" height="0.3"/>
				<path id="XMLID_91_" class="st18" d="M40.1,26.3c0,0.1-0.1,0.3-0.2,0.3c-0.1,0-0.2-0.2-0.2-0.3c0-0.1,0.1-0.1,0.2-0.1
					S40.1,26.1,40.1,26.3z"/>
				<circle id="XMLID_90_" class="st24" cx="40.9" cy="20.8" r="0"/>
			</g>
		</g>
		<polygon id="XMLID_89_" class="st31" points="23.5,59.2 22.2,59.2 23,54.5 25.1,54.5 		"/>
		<polygon id="XMLID_88_" class="st31" points="45,59.2 46.3,59.2 45.5,54.5 43.4,54.5 		"/>
		<polygon id="XMLID_87_" class="st2" points="48,39.8 20.5,39.8 18.9,44.8 49.6,44.8 		"/>
		<linearGradient id="XMLID_437_" gradientUnits="userSpaceOnUse" x1="34.2515" y1="44.7863" x2="34.2515" y2="42.0626">
			<stop  offset="0" style="stop-color:#231F20"/>
			<stop  offset="1" style="stop-color:#231F20;stop-opacity:0"/>
		</linearGradient>
		<polygon id="XMLID_86_" class="st32" points="18.9,44.8 49.6,44.8 48.7,42.1 19.8,42.1 		"/>
		<path id="XMLID_85_" class="st33" d="M26.6,42.5"/>
		<path id="XMLID_84_" class="st34" d="M22.5,42.2c0-1.1,0.9-1.9,2.1-1.9c1.1,0,2.1,0.9,2.1,1.9v0.2c0,1.1-0.9,1.9-2.1,1.9
			c-1.1,0-2.1-0.9-2.1-1.9V42.2z"/>
		<linearGradient id="XMLID_438_" gradientUnits="userSpaceOnUse" x1="24.532" y1="40.2694" x2="24.532" y2="44.1518">
			<stop  offset="0" style="stop-color:#00A0E3"/>
			<stop  offset="1" style="stop-color:#0071BB"/>
		</linearGradient>
		<ellipse id="XMLID_83_" class="st35" cx="24.5" cy="42.2" rx="2.1" ry="1.9"/>
		<path id="XMLID_82_" class="st33" d="M22.5,42.5"/>
		<circle id="XMLID_81_" class="st36" cx="34.3" cy="5.6" r="3.8"/>
		<polygon id="XMLID_80_" class="st2" points="48,57.1 20.5,57.1 18.9,44.8 49.6,44.8 		"/>
		<linearGradient id="XMLID_439_" gradientUnits="userSpaceOnUse" x1="34.2514" y1="57.0903" x2="34.2514" y2="49.7497">
			<stop  offset="0" style="stop-color:#231F20"/>
			<stop  offset="1" style="stop-color:#231F20;stop-opacity:0"/>
		</linearGradient>
		<polygon id="XMLID_79_" class="st37" points="19.6,49.7 20.5,57.1 48,57.1 48.9,49.7 		"/>
		<polygon id="XMLID_78_" class="st38" points="21.8,61.8 20.5,61.8 21.4,57.1 23.5,57.1 		"/>
		<polygon id="XMLID_77_" class="st38" points="46.7,61.8 48,61.8 47.2,57.1 45,57.1 		"/>
		<path id="XMLID_76_" class="st39" d="M49.6,15.3H18.9c-0.1,0-0.2,0.1-0.2,0.2v1.1c0,0.1,0.1,0.2,0.2,0.2h30.7
			c0.1,0,0.2-0.1,0.2-0.2v-1.1C49.8,15.5,49.7,15.3,49.6,15.3z"/>
		<path id="XMLID_234_" class="st23" d="M18.9,16.9l1.6,22.9H48l1.6-22.9H18.9z M46.4,38.2H22.1l-1.4-19.7h27.2L46.4,38.2z"/>
		<linearGradient id="XMLID_440_" gradientUnits="userSpaceOnUse" x1="21.2615" y1="39.0124" x2="29.9922" y2="39.0124">
			<stop  offset="0" style="stop-color:#FFFFFF;stop-opacity:0"/>
			<stop  offset="0.5" style="stop-color:#FFFFFF"/>
			<stop  offset="1" style="stop-color:#FFFFFF;stop-opacity:0"/>
		</linearGradient>
		<rect id="XMLID_73_" x="21.3" y="38.2" class="st40" width="8.7" height="1.6"/>
		<path id="XMLID_231_" class="st41" d="M46.4,38.2H22.1l-1.4-19.7h27.2L46.4,38.2z"/>
		<path id="XMLID_208_" class="st42" d="M26.6,15.7c-0.2,0-0.4,0.2-0.4,0.4c0,0.2,0.2,0.4,0.4,0.4c0.2,0,0.4-0.2,0.4-0.4
			C27,15.9,26.8,15.7,26.6,15.7z M28,15.7c-0.2,0-0.4,0.2-0.4,0.4c0,0.2,0.2,0.4,0.4,0.4c0.2,0,0.4-0.2,0.4-0.4
			C28.4,15.9,28.2,15.7,28,15.7z M29.4,15.7c-0.2,0-0.4,0.2-0.4,0.4c0,0.2,0.2,0.4,0.4,0.4c0.2,0,0.4-0.2,0.4-0.4
			C29.8,15.9,29.6,15.7,29.4,15.7z M32.2,15.7c-0.2,0-0.4,0.2-0.4,0.4c0,0.2,0.2,0.4,0.4,0.4c0.2,0,0.4-0.2,0.4-0.4
			C32.6,15.9,32.4,15.7,32.2,15.7z M30.8,15.7c-0.2,0-0.4,0.2-0.4,0.4c0,0.2,0.2,0.4,0.4,0.4c0.2,0,0.4-0.2,0.4-0.4
			C31.2,15.9,31,15.7,30.8,15.7z M19.6,15.7c-0.2,0-0.4,0.2-0.4,0.4c0,0.2,0.2,0.4,0.4,0.4c0.2,0,0.4-0.2,0.4-0.4
			C20.1,15.9,19.9,15.7,19.6,15.7z M25.2,15.7c-0.2,0-0.4,0.2-0.4,0.4c0,0.2,0.2,0.4,0.4,0.4c0.2,0,0.4-0.2,0.4-0.4
			C25.6,15.9,25.4,15.7,25.2,15.7z M33.6,15.7c-0.2,0-0.4,0.2-0.4,0.4c0,0.2,0.2,0.4,0.4,0.4c0.2,0,0.4-0.2,0.4-0.4
			C34,15.9,33.8,15.7,33.6,15.7z M21,15.7c-0.2,0-0.4,0.2-0.4,0.4c0,0.2,0.2,0.4,0.4,0.4c0.2,0,0.4-0.2,0.4-0.4
			C21.4,15.9,21.3,15.7,21,15.7z M23.8,15.7c-0.2,0-0.4,0.2-0.4,0.4c0,0.2,0.2,0.4,0.4,0.4c0.2,0,0.4-0.2,0.4-0.4
			C24.2,15.9,24,15.7,23.8,15.7z M22.4,15.7c-0.2,0-0.4,0.2-0.4,0.4c0,0.2,0.2,0.4,0.4,0.4c0.2,0,0.4-0.2,0.4-0.4
			C22.8,15.9,22.6,15.7,22.4,15.7z M39.1,15.7c-0.2,0-0.4,0.2-0.4,0.4c0,0.2,0.2,0.4,0.4,0.4c0.2,0,0.4-0.2,0.4-0.4
			C39.6,15.9,39.4,15.7,39.1,15.7z M34.9,15.7c-0.2,0-0.4,0.2-0.4,0.4c0,0.2,0.2,0.4,0.4,0.4c0.2,0,0.4-0.2,0.4-0.4
			C35.4,15.9,35.2,15.7,34.9,15.7z M44.7,15.7c-0.2,0-0.4,0.2-0.4,0.4c0,0.2,0.2,0.4,0.4,0.4c0.2,0,0.4-0.2,0.4-0.4
			C45.1,15.9,44.9,15.7,44.7,15.7z M47.5,15.7c-0.2,0-0.4,0.2-0.4,0.4c0,0.2,0.2,0.4,0.4,0.4c0.2,0,0.4-0.2,0.4-0.4
			C47.9,15.9,47.7,15.7,47.5,15.7z M43.3,15.7c-0.2,0-0.4,0.2-0.4,0.4c0,0.2,0.2,0.4,0.4,0.4c0.2,0,0.4-0.2,0.4-0.4
			C43.7,15.9,43.6,15.7,43.3,15.7z M48.9,15.7c-0.2,0-0.4,0.2-0.4,0.4c0,0.2,0.2,0.4,0.4,0.4s0.4-0.2,0.4-0.4
			C49.3,15.9,49.1,15.7,48.9,15.7z M46.1,15.7c-0.2,0-0.4,0.2-0.4,0.4c0,0.2,0.2,0.4,0.4,0.4c0.2,0,0.4-0.2,0.4-0.4
			C46.5,15.9,46.3,15.7,46.1,15.7z M41.9,15.7c-0.2,0-0.4,0.2-0.4,0.4c0,0.2,0.2,0.4,0.4,0.4s0.4-0.2,0.4-0.4
			C42.4,15.9,42.2,15.7,41.9,15.7z M37.7,15.7c-0.2,0-0.4,0.2-0.4,0.4c0,0.2,0.2,0.4,0.4,0.4c0.2,0,0.4-0.2,0.4-0.4
			C38.2,15.9,38,15.7,37.7,15.7z M36.3,15.7c-0.2,0-0.4,0.2-0.4,0.4c0,0.2,0.2,0.4,0.4,0.4c0.2,0,0.4-0.2,0.4-0.4
			C36.8,15.9,36.6,15.7,36.3,15.7z M40.5,15.7c-0.2,0-0.4,0.2-0.4,0.4c0,0.2,0.2,0.4,0.4,0.4c0.2,0,0.4-0.2,0.4-0.4
			C41,15.9,40.8,15.7,40.5,15.7z"/>
		<g id="XMLID_206_">
			<path id="XMLID_49_" class="st39" d="M38.8,6.5h-9.1c-0.1,0-0.2,0.1-0.2,0.2v1.1c0,0.1,0.1,0.2,0.2,0.2h9.1C38.9,8,39,7.9,39,7.8
				V6.7C39,6.6,38.9,6.5,38.8,6.5z"/>
		</g>
		<circle id="XMLID_48_" class="st42" cx="30.5" cy="7.3" r="0.4"/>
		<circle id="XMLID_47_" class="st42" cx="32" cy="7.3" r="0.4"/>
		<circle id="XMLID_46_" class="st42" cx="33.5" cy="7.3" r="0.4"/>
		<circle id="XMLID_45_" class="st42" cx="35" cy="7.3" r="0.4"/>
		<circle id="XMLID_44_" class="st42" cx="36.5" cy="7.3" r="0.4"/>
		<circle id="XMLID_43_" class="st42" cx="38" cy="7.3" r="0.4"/>
		<g id="XMLID_194_">
			<polygon id="XMLID_42_" class="st43" points="31.6,8 29.8,8 18.9,15.3 24.3,15.3 			"/>
			<polygon id="XMLID_41_" class="st2" points="31.6,8 33.3,8 31.2,15.3 24.3,15.3 			"/>
			<polygon id="XMLID_40_" class="st43" points="37,8 38.8,8 49.6,15.3 44.2,15.3 			"/>
			<polygon id="XMLID_39_" class="st2" points="37,8 35.2,8 37.3,15.3 44.2,15.3 			"/>
			<polygon id="XMLID_38_" class="st43" points="37.3,15.3 35.2,8 33.3,8 31.2,15.3 			"/>
		</g>
		<ellipse id="XMLID_37_" class="st23" cx="24.5" cy="42.2" rx="1.1" ry="1"/>
		<linearGradient id="XMLID_441_" gradientUnits="userSpaceOnUse" x1="24.0541" y1="41.1744" x2="25.0099" y2="41.1744">
			<stop  offset="0" style="stop-color:#000000"/>
			<stop  offset="1.993773e-002" style="stop-color:#050505"/>
			<stop  offset="0.1314" style="stop-color:#1D1D1D"/>
			<stop  offset="0.2" style="stop-color:#262626"/>
			<stop  offset="0.2299" style="stop-color:#212121"/>
			<stop  offset="0.3972" style="stop-color:#090909"/>
			<stop  offset="0.5" style="stop-color:#000000"/>
			<stop  offset="0.75" style="stop-color:#262626"/>
			<stop  offset="0.8357" style="stop-color:#1D1D1D"/>
			<stop  offset="0.9751" style="stop-color:#050505"/>
			<stop  offset="1" style="stop-color:#000000"/>
		</linearGradient>
		<path id="XMLID_36_" class="st44" d="M25,42.2c0,0.3-0.2,0.5-0.5,0.5c-0.3,0-0.5-0.2-0.5-0.5v-2c0-0.3,0.2-0.5,0.5-0.5
			c0.3,0,0.5,0.2,0.5,0.5V42.2z"/>
		<path id="XMLID_35_" class="st2" d="M25.8,37.9c0,1.5-0.4,2.7-1.3,2.7c-0.9,0-1.3-1.2-1.3-2.7c0-0.7,0.6-1.3,1.3-1.3
			S25.8,37.2,25.8,37.9z"/>
		<path id="XMLID_34_" class="st5" d="M24.5,36.6c-0.7,0-1.3,0.6-1.3,1.3c0,0.1,0,0.1,0,0.2c0.4,0.2,0.8,0.3,1.3,0.3
			c0.4,0,0.9-0.1,1.3-0.3c0-0.1,0-0.1,0-0.2C25.8,37.2,25.2,36.6,24.5,36.6z"/>
		<path id="XMLID_33_" class="st5" d="M25.8,38.4c0-0.1,0-0.1,0-0.2c-0.4,0.2-0.8,0.2-1.3,0.2c-0.4,0-0.9-0.1-1.3-0.2
			c0,0.1,0,0.1,0,0.2c0.4,0.1,0.8,0.2,1.3,0.2S25.4,38.5,25.8,38.4z"/>
		<g id="XMLID_183_">
			<linearGradient id="XMLID_442_" gradientUnits="userSpaceOnUse" x1="28.0158" y1="42.1444" x2="30.9631" y2="42.1444">
				<stop  offset="0" style="stop-color:#000000"/>
				<stop  offset="1.993773e-002" style="stop-color:#050505"/>
				<stop  offset="0.1314" style="stop-color:#1D1D1D"/>
				<stop  offset="0.2" style="stop-color:#262626"/>
				<stop  offset="0.2299" style="stop-color:#212121"/>
				<stop  offset="0.3972" style="stop-color:#090909"/>
				<stop  offset="0.5" style="stop-color:#000000"/>
				<stop  offset="0.75" style="stop-color:#262626"/>
				<stop  offset="0.8357" style="stop-color:#1D1D1D"/>
				<stop  offset="0.9751" style="stop-color:#050505"/>
				<stop  offset="1" style="stop-color:#000000"/>
			</linearGradient>
			<path id="XMLID_32_" class="st45" d="M31,42.4c0,0.8-0.7,1.4-1.5,1.4c-0.8,0-1.5-0.6-1.5-1.4v-0.6c0-0.8,0.7-1.4,1.5-1.4
				c0.8,0,1.5,0.6,1.5,1.4V42.4z"/>
			<linearGradient id="XMLID_443_" gradientUnits="userSpaceOnUse" x1="29.4895" y1="40.4757" x2="29.4895" y2="43.2345">
				<stop  offset="0" style="stop-color:#BED630"/>
				<stop  offset="1" style="stop-color:#8BC53F"/>
			</linearGradient>
			<ellipse id="XMLID_31_" class="st46" cx="29.5" cy="41.9" rx="1.5" ry="1.4"/>
			<linearGradient id="XMLID_444_" gradientUnits="userSpaceOnUse" x1="29.4895" y1="43.017" x2="29.4895" y2="40.6932">
				<stop  offset="0" style="stop-color:#BED630"/>
				<stop  offset="1" style="stop-color:#8BC53F"/>
			</linearGradient>
			<ellipse id="XMLID_30_" class="st47" cx="29.5" cy="41.9" rx="1.2" ry="1.2"/>
			<linearGradient id="XMLID_445_" gradientUnits="userSpaceOnUse" x1="29.4895" y1="41.5934" x2="29.4895" y2="42.821">
				<stop  offset="0" style="stop-color:#ACC32B"/>
				<stop  offset="1" style="stop-color:#73A434"/>
			</linearGradient>
			<path id="XMLID_29_" class="st48" d="M30.5,41.6c0,0.5-0.5,1-1,1c-0.6,0-1-0.4-1-1v0.3c0,0.5,0.5,1,1,1c0.6,0,1-0.4,1-1V41.6z"/>
			<linearGradient id="XMLID_446_" gradientUnits="userSpaceOnUse" x1="29.4895" y1="42.5593" x2="29.4895" y2="40.6274">
				<stop  offset="0" style="stop-color:#ACC32B"/>
				<stop  offset="1" style="stop-color:#7FB439"/>
			</linearGradient>
			<ellipse id="XMLID_28_" class="st49" cx="29.5" cy="41.6" rx="1" ry="1"/>
		</g>
		<g id="XMLID_177_">
			<linearGradient id="XMLID_447_" gradientUnits="userSpaceOnUse" x1="32.2676" y1="42.1444" x2="35.215" y2="42.1444">
				<stop  offset="0" style="stop-color:#000000"/>
				<stop  offset="1.993773e-002" style="stop-color:#050505"/>
				<stop  offset="0.1314" style="stop-color:#1D1D1D"/>
				<stop  offset="0.2" style="stop-color:#262626"/>
				<stop  offset="0.2299" style="stop-color:#212121"/>
				<stop  offset="0.3972" style="stop-color:#090909"/>
				<stop  offset="0.5" style="stop-color:#000000"/>
				<stop  offset="0.75" style="stop-color:#262626"/>
				<stop  offset="0.8357" style="stop-color:#1D1D1D"/>
				<stop  offset="0.9751" style="stop-color:#050505"/>
				<stop  offset="1" style="stop-color:#000000"/>
			</linearGradient>
			<path id="XMLID_27_" class="st50" d="M35.2,42.4c0,0.8-0.7,1.4-1.5,1.4c-0.8,0-1.5-0.6-1.5-1.4v-0.6c0-0.8,0.7-1.4,1.5-1.4
				c0.8,0,1.5,0.6,1.5,1.4V42.4z"/>
			<linearGradient id="XMLID_448_" gradientUnits="userSpaceOnUse" x1="33.7413" y1="40.4757" x2="33.7413" y2="43.2345">
				<stop  offset="0" style="stop-color:#EC1C24"/>
				<stop  offset="1" style="stop-color:#C3161C"/>
			</linearGradient>
			<ellipse id="XMLID_26_" class="st51" cx="33.7" cy="41.9" rx="1.5" ry="1.4"/>
			<linearGradient id="XMLID_449_" gradientUnits="userSpaceOnUse" x1="33.7412" y1="43.017" x2="33.7412" y2="40.6932">
				<stop  offset="0" style="stop-color:#EC1C24"/>
				<stop  offset="1" style="stop-color:#C3161C"/>
			</linearGradient>
			<ellipse id="XMLID_25_" class="st52" cx="33.7" cy="41.9" rx="1.2" ry="1.2"/>
			<linearGradient id="XMLID_450_" gradientUnits="userSpaceOnUse" x1="33.7413" y1="41.5934" x2="33.7413" y2="42.821">
				<stop  offset="0" style="stop-color:#D71921"/>
				<stop  offset="1" style="stop-color:#9D0B0F"/>
			</linearGradient>
			<path id="XMLID_24_" class="st53" d="M34.8,41.6c0,0.5-0.5,1-1,1c-0.6,0-1-0.4-1-1v0.3c0,0.5,0.5,1,1,1c0.6,0,1-0.4,1-1V41.6z"/>
			<linearGradient id="XMLID_451_" gradientUnits="userSpaceOnUse" x1="33.7413" y1="42.5593" x2="33.7413" y2="40.6274">
				<stop  offset="0" style="stop-color:#D71921"/>
				<stop  offset="1" style="stop-color:#9D0B0F"/>
			</linearGradient>
			<ellipse id="XMLID_23_" class="st54" cx="33.7" cy="41.6" rx="1" ry="1"/>
		</g>
		<linearGradient id="XMLID_452_" gradientUnits="userSpaceOnUse" x1="38.0439" y1="42.1851" x2="48.2461" y2="42.1851">
			<stop  offset="0" style="stop-color:#000000"/>
			<stop  offset="1.993773e-002" style="stop-color:#050505"/>
			<stop  offset="0.1314" style="stop-color:#1D1D1D"/>
			<stop  offset="0.2" style="stop-color:#262626"/>
			<stop  offset="0.2299" style="stop-color:#212121"/>
			<stop  offset="0.3972" style="stop-color:#090909"/>
			<stop  offset="0.5" style="stop-color:#000000"/>
			<stop  offset="0.75" style="stop-color:#262626"/>
			<stop  offset="0.8357" style="stop-color:#1D1D1D"/>
			<stop  offset="0.9751" style="stop-color:#050505"/>
			<stop  offset="1" style="stop-color:#000000"/>
		</linearGradient>
		<polygon id="XMLID_22_" class="st55" points="48.2,43.6 38.4,43.6 38.1,40.6 38,41.8 38.3,43.8 48.2,43.8 		"/>
		<linearGradient id="XMLID_453_" gradientUnits="userSpaceOnUse" x1="43.1858" y1="43.562" x2="43.1858" y2="40.5633">
			<stop  offset="0" style="stop-color:#FCB813"/>
			<stop  offset="1" style="stop-color:#F6921E"/>
		</linearGradient>
		<path id="XMLID_174_" class="st56" d="M38.4,43.6h9.8l-1-3h-9.1L38.4,43.6z"/>
		<polygon id="XMLID_20_" class="st57" points="39.9,43.2 39.5,43.2 39.2,40.9 39.5,40.9 		"/>
		<polygon id="XMLID_19_" class="st23" points="40.8,41.2 41.3,43.2 43.8,43.2 43.8,43 41.4,43 40.9,40.9 		"/>
		<polygon id="XMLID_18_" class="st57" points="43.8,43 41.4,43 40.9,40.9 43.2,40.9 		"/>
		<rect id="XMLID_17_" x="22.7" y="46.5" class="st58" width="10" height="7.7"/>
		<polygon id="XMLID_16_" class="st39" points="24.3,51.9 24.3,47.3 23,46.8 23,53.9 		"/>
		<polygon id="XMLID_15_" class="st39" points="31,51.9 31,47.3 32.4,46.8 32.4,53.9 		"/>
		<polygon id="XMLID_14_" class="st18" points="31,47.3 24.3,47.3 23,46.8 32.4,46.8 		"/>
		<polygon id="XMLID_13_" class="st59" points="31,51.9 24.3,51.9 23,53.9 32.4,53.9 		"/>
		<rect id="XMLID_12_" x="24.3" y="47.3" class="st57" width="6.7" height="4.6"/>
		<linearGradient id="XMLID_454_" gradientUnits="userSpaceOnUse" x1="45.797" y1="40.8755" x2="45.797" y2="43.2916">
			<stop  offset="0" style="stop-color:#D0D2D3"/>
			<stop  offset="1" style="stop-color:#A6A8AB"/>
		</linearGradient>
		<path id="XMLID_11_" class="st60" d="M47,42.2c0,0.6-0.5,1.1-1.2,1.1c-0.6,0-1.2-0.5-1.2-1.1V42c0-0.6,0.5-1.1,1.2-1.1
			c0.6,0,1.2,0.5,1.2,1.1V42.2z"/>
		<linearGradient id="XMLID_455_" gradientUnits="userSpaceOnUse" x1="45.797" y1="43.0773" x2="45.797" y2="40.8755">
			<stop  offset="0" style="stop-color:#D0D2D3"/>
			<stop  offset="1" style="stop-color:#A6A8AB"/>
		</linearGradient>
		<ellipse id="XMLID_10_" class="st61" cx="45.8" cy="42" rx="1.2" ry="1.1"/>
		<rect id="XMLID_9_" x="44.8" y="41.9" class="st18" width="2" height="0.2"/>
		<linearGradient id="XMLID_456_" gradientUnits="userSpaceOnUse" x1="34.2549" y1="57.0903" x2="34.2549" y2="59.8189">
			<stop  offset="0" style="stop-color:#231F20"/>
			<stop  offset="1" style="stop-color:#231F20;stop-opacity:0"/>
		</linearGradient>
		<path id="XMLID_159_" class="st62" d="M47.2,57.1H45l1,2.7h1.6L47.2,57.1z M20.9,59.8h1.6l1-2.7h-2.1L20.9,59.8z"/>
		<linearGradient id="XMLID_457_" gradientUnits="userSpaceOnUse" x1="39.9784" y1="17.7295" x2="48.7092" y2="17.7295">
			<stop  offset="0" style="stop-color:#FFFFFF;stop-opacity:0"/>
			<stop  offset="0.5" style="stop-color:#FFFFFF"/>
			<stop  offset="1" style="stop-color:#FFFFFF;stop-opacity:0"/>
		</linearGradient>
		<rect id="XMLID_6_" x="40" y="16.9" class="st63" width="8.7" height="1.6"/>
		<path id="XMLID_154_" class="st64" d="M42.6,38.2l4.2-4.2l0.2-2.7L40,38.2H42.6z M20.8,20.2l0.6,7.9l9.6-9.6h-8.5L20.8,20.2z
			 M37.3,38.2H38l9-9l0.1-0.8L37.3,38.2z"/>
		<linearGradient id="XMLID_458_" gradientUnits="userSpaceOnUse" x1="34.2549" y1="8.0378" x2="34.2549" y2="9.3816">
			<stop  offset="0" style="stop-color:#231F20"/>
			<stop  offset="1" style="stop-color:#231F20;stop-opacity:0"/>
		</linearGradient>
		<polygon id="XMLID_2_" class="st65" points="40.8,9.4 38.8,8 29.8,8 27.8,9.4 		"/>
		<path id="XMLID_1_" class="st66" d="M31.1,5.6c0-1.7,1.4-3.1,3.1-3.1C36,2.4,31.1,7.3,31.1,5.6z"/>
	</g>
	<g id="XMLID_166_">
		<path id="XMLID_164_" class="st67" d="M6.2,15.4l2.5-0.7l0.1,0.5l0.3,1.1l0.1,0.3l0.1,0.5c0.1,0.4,0.5,0.6,0.9,0.5l2.6-0.7
			c0.4-0.1,0.6-0.5,0.5-0.9l-0.1-0.5l-0.1-0.3l-0.5-1.6l2.5-0.7c0.4-0.1,0.6-0.5,0.5-0.9l-0.1-0.5l-0.1-0.3L15,9.4L14.9,9l-0.1-0.3
			c0,0,0,0,0-0.1c0,0,0,0,0,0c0,0,0,0,0,0c0,0,0,0,0,0c0,0,0,0,0,0c0,0,0,0,0,0l0,0l0,0c0,0,0,0,0,0c0,0,0,0,0,0c0,0,0,0,0,0
			c0,0,0,0,0,0c0,0,0,0,0,0c0,0,0,0,0,0c0,0,0,0,0,0c0,0,0,0,0,0c0,0,0,0,0,0c0,0,0,0,0,0c0,0,0,0,0,0c0,0,0,0,0,0c0,0,0,0,0,0
			c0,0,0,0,0,0c0,0,0,0,0,0c0,0,0,0,0,0c0,0,0,0,0,0c0,0,0,0,0,0c0,0,0,0,0,0c0,0,0,0,0,0c0,0,0,0,0,0c0,0,0,0,0,0c0,0,0,0,0,0
			c0,0,0,0,0,0c0,0,0,0,0,0c0,0,0,0-0.1,0c0,0,0,0,0,0c0,0,0,0,0,0c0,0,0,0,0,0c0,0,0,0,0,0c0,0,0,0,0,0c0,0,0,0,0,0c0,0,0,0,0,0
			c0,0,0,0-0.1,0l-1.8,0.5l-0.7,0.2l-0.2-0.6L11,7.5l-0.1-0.2l-0.1-0.5l-0.1-0.3c0,0,0,0,0-0.1c0,0,0,0,0,0c0,0,0,0,0,0c0,0,0,0,0,0
			c0,0,0,0,0,0c0,0,0,0,0,0c0,0,0,0,0,0c0,0,0,0,0,0c0,0,0,0,0,0c0,0,0,0,0,0c0,0,0,0,0,0c0,0,0,0,0,0c0,0,0,0,0,0c0,0,0,0,0,0
			c0,0,0,0,0,0c0,0,0,0,0,0c0,0,0,0,0,0c0,0,0,0,0,0c0,0,0,0,0,0c0,0,0,0,0,0c0,0,0,0,0,0c0,0,0,0,0,0c0,0,0,0,0,0c0,0,0,0,0,0
			c0,0,0,0,0,0c0,0,0,0,0,0c0,0,0,0,0,0c0,0,0,0,0,0c0,0,0,0,0,0c0,0,0,0,0,0c0,0,0,0,0,0c0,0,0,0,0,0c0,0,0,0,0,0c0,0,0,0,0,0
			c0,0,0,0,0,0c0,0,0,0,0,0c0,0,0,0,0,0c0,0,0,0,0,0c0,0,0,0,0,0c0,0,0,0,0,0c0,0,0,0,0,0c0,0,0,0,0,0c0,0,0,0,0,0c0,0,0,0,0,0
			c0,0,0,0,0,0c0,0,0,0,0,0c0,0,0,0,0,0c0,0,0,0,0,0c0,0,0,0,0,0c0,0,0,0,0,0l0,0c0,0,0,0,0,0c0,0,0,0,0,0c0,0,0,0,0,0
			c0,0,0,0-0.1,0L7.2,6.7C6.8,6.9,6.6,7.3,6.7,7.7L6.8,8l0.1,0.5L7.4,10l-2.5,0.7c-0.4,0.1-0.6,0.5-0.5,0.9L4.5,12l0.1,0.5l0.5,1.7
			l0.1,0.3l0.1,0.5C5.4,15.3,5.8,15.5,6.2,15.4z"/>
		<g id="XMLID_167_">
			<g id="XMLID_227_">
				<path id="XMLID_163_" class="st68" d="M13.1,8.8l-2.5,0.7L9.9,7C9.8,6.6,9.4,6.4,9,6.5L6.4,7.2C6,7.4,5.8,7.8,5.9,8.2l0.7,2.5
					l-2.5,0.7c-0.4,0.1-0.6,0.5-0.5,0.9l0.7,2.6c0.1,0.4,0.5,0.6,0.9,0.5l2.5-0.7l0.7,2.5c0.1,0.4,0.5,0.6,0.9,0.5l2.6-0.7
					c0.4-0.1,0.6-0.5,0.5-0.9l-0.7-2.5l2.5-0.7c0.4-0.1,0.6-0.5,0.5-0.9l-0.7-2.6C14,8.9,13.5,8.7,13.1,8.8z"/>
				<path id="XMLID_162_" class="st69" d="M13,8.3L10.5,9L9.8,6.5C9.7,6.1,9.3,5.9,8.9,6L6.3,6.8C5.9,6.9,5.7,7.3,5.8,7.7l0.7,2.5
					L4,10.9c-0.4,0.1-0.6,0.5-0.5,0.9l0.7,2.6c0.1,0.4,0.5,0.6,0.9,0.5l2.5-0.7l0.7,2.5c0.1,0.4,0.5,0.6,0.9,0.5l2.6-0.7
					c0.4-0.1,0.6-0.5,0.5-0.9L11.7,13l2.5-0.7c0.4-0.1,0.6-0.5,0.5-0.9l-0.7-2.6C13.8,8.4,13.4,8.2,13,8.3z"/>
			</g>
			<g id="XMLID_168_">
				<path id="XMLID_161_" class="st70" d="M12.9,8l-2.5,0.7L9.7,6.2C9.6,5.8,9.2,5.6,8.8,5.7L6.2,6.4C5.8,6.5,5.6,7,5.7,7.4l0.7,2.5
					l-2.5,0.7c-0.4,0.1-0.6,0.5-0.5,0.9l0.7,2.6c0.1,0.4,0.5,0.6,0.9,0.5l2.5-0.7l0.7,2.5c0.1,0.4,0.5,0.6,0.9,0.5l2.6-0.7
					c0.4-0.1,0.6-0.5,0.5-0.9l-0.7-2.5l2.5-0.7c0.4-0.1,0.6-0.5,0.5-0.9l-0.7-2.6C13.7,8.1,13.3,7.9,12.9,8z"/>
				<g id="XMLID_217_" class="st71">
					<path id="XMLID_160_" class="st72" d="M9.7,6.2C9.6,5.9,9.3,5.6,8.9,5.7l-4.3,8.9c0.1,0,0.3,0,0.4,0l1.7-0.5L10,7.3L9.7,6.2z"
						/>
					<polygon id="XMLID_158_" class="st72" points="7.4,13.9 7.6,13.9 7.9,15.2 11.1,8.5 10.4,8.7 10.2,8 					"/>
				</g>
				<g id="XMLID_205_">
					<path id="XMLID_157_" class="st73" d="M9.1,5.8l0.9,3l0.5-0.1L9.7,6.2C9.6,5.9,9.3,5.7,9,5.7C9,5.7,9,5.8,9.1,5.8z"/>
					<path id="XMLID_156_" class="st73" d="M13.1,7.9c0,0.1,0.1,0.1,0.1,0.2l0.7,2.6c0.1,0.4-0.1,0.8-0.5,0.9l-2.5,0.7l0.7,2.5
						c0.1,0.4-0.1,0.8-0.5,0.9l-2.6,0.7c-0.1,0-0.1,0-0.2,0c0.2,0.3,0.5,0.4,0.9,0.3l2.6-0.7c0.4-0.1,0.6-0.5,0.5-0.9l-0.7-2.5
						l2.5-0.7c0.4-0.1,0.6-0.5,0.5-0.9l-0.7-2.6C13.7,8.1,13.4,7.9,13.1,7.9z"/>
					<path id="XMLID_155_" class="st73" d="M7.4,13.4l-3,0.9c-0.1,0-0.1,0-0.2,0c0.2,0.3,0.5,0.4,0.9,0.3l2.5-0.7L7.4,13.4z"/>
				</g>
				<g id="XMLID_169_">
					<path id="XMLID_153_" class="st72" d="M4.6,14.4l-0.7-2.6C3.7,11.4,4,11,4.4,10.9l2.5-0.7L6.1,7.7C6,7.3,6.2,6.9,6.6,6.8L9.2,6
						c0.1,0,0.3,0,0.4,0C9.5,5.7,9.1,5.6,8.8,5.7L6.2,6.4C5.8,6.5,5.6,7,5.7,7.4l0.7,2.5l-2.5,0.7c-0.4,0.1-0.6,0.5-0.5,0.9l0.7,2.6
						c0.1,0.3,0.3,0.5,0.5,0.5C4.6,14.5,4.6,14.5,4.6,14.4z"/>
					<path id="XMLID_152_" class="st72" d="M10,9.2l3.3-1c0.1,0,0.3,0,0.4,0C13.6,8,13.2,7.9,12.9,8l-3,0.9L10,9.2z"/>
					<path id="XMLID_150_" class="st72" d="M8.7,16.7l-1-3.4l-0.3,0.1l0.9,3c0.1,0.3,0.3,0.5,0.5,0.5C8.8,16.8,8.7,16.7,8.7,16.7z"
						/>
				</g>
			</g>
		</g>
	</g>
	<g id="XMLID_235_">
		<path id="XMLID_232_" class="st67" d="M56.9,4.6C56.9,4.6,57,4.5,56.9,4.6c0-0.1,0-0.1,0.1-0.1c0,0,0,0,0-0.1c0,0,0,0,0,0
			c0,0,0,0,0-0.1c0,0,0,0,0,0c0,0,0,0,0-0.1c0,0,0,0,0,0c0,0,0-0.1,0-0.1c0,0,0,0,0,0c0,0,0-0.1,0-0.1c0,0,0,0,0,0c0,0,0-0.1,0-0.1
			c0,0,0,0,0,0c0,0,0-0.1,0-0.1c0,0,0,0,0,0c0-0.1-0.1-0.2-0.1-0.3c0,0,0,0,0,0c0,0,0-0.1,0-0.1c0,0,0,0,0,0
			c-0.1-0.1-0.2-0.3-0.3-0.4c0,0,0,0,0,0c0,0,0,0,0,0C56.4,2.6,56,2.2,55.6,2c0,0-0.1,0-0.1-0.1c-0.5-0.3-1.1-0.4-1.6-0.5
			c0,0-0.1,0-0.1,0c0,0-0.1,0-0.1,0c0,0-0.1,0-0.1,0c-0.5,0.1-0.9,0.3-1.1,0.6L52,3c-0.2,0.4-0.2,0.9,0.1,1.4c0,0,0,0,0,0
			c0,0,0,0,0,0.1c0,0,0,0,0,0c0.3,0.4,0.7,0.8,1.3,1.2c1.2,0.7,2.6,0.6,3-0.2c0,0,0-0.1,0-0.1L56.9,4.6C56.9,4.7,56.9,4.6,56.9,4.6
			L56.9,4.6L56.9,4.6L56.9,4.6z"/>
		<path id="XMLID_230_" class="st67" d="M53.6,10.6C53.6,10.6,53.6,10.5,53.6,10.6c0-0.1,0-0.1,0.1-0.1c0,0,0,0,0-0.1c0,0,0,0,0,0
			c0,0,0,0,0-0.1c0,0,0,0,0,0c0,0,0,0,0-0.1c0,0,0,0,0,0c0,0,0-0.1,0-0.1c0,0,0,0,0,0c0,0,0-0.1,0-0.1c0,0,0,0,0,0c0,0,0-0.1,0-0.1
			c0,0,0,0,0,0c0,0,0-0.1,0-0.1c0,0,0,0,0,0c0-0.1-0.1-0.2-0.1-0.3c0,0,0,0,0,0c0,0,0-0.1,0-0.1c0,0,0,0,0,0
			c-0.1-0.1-0.2-0.3-0.3-0.4c0,0,0,0,0,0l0,0C53,8.6,52.7,8.2,52.2,8c0,0-0.1,0-0.1-0.1c-0.3-0.1-0.5-0.3-0.8-0.3c0,0,0,0-0.1,0
			c-0.2,0-0.3-0.1-0.5-0.1c0,0-0.1,0-0.1,0c0,0-0.1,0-0.1,0c-0.1,0-0.2,0-0.3,0c0,0,0,0-0.1,0c-0.5,0.1-0.9,0.3-1.1,0.6L48.6,9
			c-0.2,0.4-0.2,0.9,0.1,1.4c0,0,0,0,0,0c0,0,0,0,0,0.1c0,0,0,0,0,0c0.3,0.4,0.7,0.8,1.3,1.2c1.2,0.7,2.6,0.6,3-0.2c0,0,0-0.1,0-0.1
			L53.6,10.6C53.5,10.6,53.6,10.6,53.6,10.6L53.6,10.6L53.6,10.6C53.6,10.6,53.6,10.6,53.6,10.6z"/>
		<path id="XMLID_229_" class="st67" d="M63.8,8.4L63.8,8.4L63.8,8.4L63.8,8.4C63.8,8.4,63.8,8.3,63.8,8.4c0-0.1,0-0.1,0.1-0.1
			c0,0,0,0,0-0.1c0,0,0,0,0,0c0,0,0,0,0-0.1c0,0,0,0,0,0c0,0,0,0,0-0.1c0,0,0,0,0,0c0,0,0-0.1,0-0.1c0,0,0,0,0,0c0,0,0-0.1,0-0.1
			c0,0,0,0,0,0c0,0,0-0.1,0-0.1c0,0,0,0,0,0c0,0,0-0.1,0-0.1c0,0,0,0,0,0c0-0.1-0.1-0.2-0.1-0.3c0,0,0,0,0,0c0,0,0-0.1,0-0.1
			c0,0,0,0,0,0c-0.1-0.1-0.2-0.3-0.3-0.4c0,0,0,0,0,0c0,0,0,0,0,0c-0.3-0.3-0.6-0.7-1.1-0.9c0,0-0.1,0-0.1-0.1
			c-0.5-0.3-1.1-0.5-1.6-0.5c-0.1,0-0.1,0-0.2,0c-0.1,0-0.1,0-0.2,0c-0.2,0-0.4,0.1-0.5,0.2c-0.2,0.1-0.4,0.3-0.5,0.5l0,0l0,0
			l-0.5,0.9c-0.2,0.4-0.2,0.9,0.1,1.4c0,0,0,0,0,0c0,0,0,0,0,0.1c0,0,0,0,0,0c0.3,0.4,0.7,0.8,1.3,1.2c1.2,0.7,2.6,0.6,3-0.2
			c0,0,0-0.1,0-0.1L63.8,8.4C63.7,8.5,63.7,8.4,63.8,8.4z"/>
		<path id="XMLID_228_" class="st67" d="M60.4,14.4C60.4,14.4,60.5,14.3,60.4,14.4c0-0.1,0-0.1,0.1-0.1c0,0,0,0,0-0.1c0,0,0,0,0,0
			c0,0,0,0,0-0.1c0,0,0,0,0,0c0,0,0,0,0-0.1c0,0,0,0,0,0c0,0,0-0.1,0-0.1c0,0,0,0,0,0c0,0,0-0.1,0-0.1c0,0,0,0,0,0c0,0,0-0.1,0-0.1
			c0,0,0,0,0,0c0,0,0-0.1,0-0.1c0,0,0,0,0,0c0-0.1-0.1-0.2-0.1-0.3c0,0,0,0,0,0c0,0,0-0.1,0-0.1c0,0,0,0,0,0
			c-0.1-0.1-0.2-0.3-0.3-0.4c0,0,0,0,0,0l0,0c-0.3-0.3-0.6-0.7-1.1-0.9c0,0-0.1,0-0.1-0.1c-0.5-0.3-1.1-0.5-1.6-0.5
			c-0.1,0-0.1,0-0.2,0c0,0-0.1,0-0.1,0c-0.5,0.1-0.9,0.3-1.1,0.6l-0.5,0.9c-0.2,0.4-0.2,0.9,0.1,1.4c0,0,0,0,0,0c0,0,0,0,0,0.1
			c0,0,0,0,0,0c0.3,0.4,0.7,0.8,1.3,1.2c1.2,0.7,2.6,0.6,3-0.2c0,0,0-0.1,0-0.1L60.4,14.4C60.4,14.5,60.4,14.4,60.4,14.4L60.4,14.4
			L60.4,14.4C60.4,14.4,60.4,14.4,60.4,14.4z"/>
		<g id="XMLID_353_">
			<g id="XMLID_378_">
				<g id="XMLID_392_">
					<path id="XMLID_226_" class="st74" d="M55.4,5.4l0.5-0.8l-0.5-0.3l-3.5-1.9l-0.5-0.3L50.9,3c-0.5,0.8,0.2,2,1.4,2.7
						c1.2,0.7,2.6,0.6,3.1-0.2C55.4,5.4,55.4,5.4,55.4,5.4z"/>
					<path id="XMLID_225_" class="st75" d="M50.9,4.2c0.1,0.2,0.2,0.4,0.4,0.6l1.2-2.2L52,2.3L50.9,4.2z"/>
					<path id="XMLID_224_" class="st75" d="M51.4,5c0.1,0.1,0.1,0.1,0.2,0.2l1.3-2.3l-0.2-0.1L51.4,5z"/>
				</g>
				
					<ellipse id="XMLID_223_" transform="matrix(0.8739 0.4861 -0.4861 0.8739 8.3715 -25.6738)" class="st76" cx="53.7" cy="3.3" rx="2.6" ry="1.7"/>
				<path id="XMLID_222_" class="st77" d="M55.6,2.8c0.1,0.5,0.1,0.9-0.2,1.3c-0.6,0.9-2,0.9-3.4,0.2c0.2,0.2,0.5,0.4,0.7,0.5
					c1.2,0.7,2.6,0.6,3.1-0.2C56.2,4,56.1,3.4,55.6,2.8z"/>
				<g id="XMLID_379_">
					<path id="XMLID_221_" class="st78" d="M51.3,2.7c0,0.1,0,0.2,0.1,0.4l4-0.6c-0.1-0.1-0.2-0.2-0.4-0.3L51.3,2.7z"/>
					<path id="XMLID_220_" class="st78" d="M54.7,1.9c-0.1,0-0.1-0.1-0.2-0.1c-1.2-0.7-2.6-0.6-3.1,0.2c-0.1,0.1-0.1,0.2-0.1,0.3
						L54.7,1.9z"/>
				</g>
			</g>
			<g id="XMLID_354_">
				<g id="XMLID_368_">
					<path id="XMLID_219_" class="st74" d="M52,11.6l0.5-0.8l-0.5-0.3l-3.5-1.9L48,8.3l-0.5,0.9c-0.5,0.8,0.2,2,1.4,2.7
						c1.2,0.7,2.6,0.6,3.1-0.2C51.9,11.7,52,11.6,52,11.6z"/>
					<path id="XMLID_218_" class="st75" d="M47.4,10.5c0.1,0.2,0.2,0.4,0.4,0.6L49,8.9l-0.5-0.3L47.4,10.5z"/>
					<path id="XMLID_216_" class="st75" d="M48,11.2c0.1,0.1,0.1,0.1,0.2,0.2l1.3-2.3L49.2,9L48,11.2z"/>
				</g>
				
					<ellipse id="XMLID_215_" transform="matrix(0.8739 0.4861 -0.4861 0.8739 10.9629 -23.2035)" class="st76" cx="50.2" cy="9.5" rx="2.6" ry="1.7"/>
				<path id="XMLID_214_" class="st77" d="M52.2,9c0.1,0.5,0.1,0.9-0.2,1.3c-0.6,0.9-2,0.9-3.4,0.2c0.2,0.2,0.5,0.4,0.7,0.5
					c1.2,0.7,2.6,0.6,3.1-0.2C52.7,10.3,52.6,9.6,52.2,9z"/>
				<g id="XMLID_355_">
					<path id="XMLID_213_" class="st78" d="M47.8,8.9c0,0.1,0,0.2,0.1,0.4l4-0.6c-0.1-0.1-0.2-0.2-0.4-0.3L47.8,8.9z"/>
					<path id="XMLID_212_" class="st78" d="M51.2,8.2c-0.1,0-0.1-0.1-0.2-0.1c-1.2-0.7-2.6-0.6-3.1,0.2c-0.1,0.1-0.1,0.2-0.1,0.3
						L51.2,8.2z"/>
				</g>
			</g>
		</g>
		<g id="XMLID_236_">
			<g id="XMLID_329_">
				<g id="XMLID_343_">
					<path id="XMLID_211_" class="st74" d="M62.3,9.2l0.5-0.8l-0.5-0.3l-3.5-1.9l-0.5-0.3l-0.5,0.9c-0.5,0.8,0.2,2,1.4,2.7
						s2.6,0.6,3.1-0.2C62.2,9.2,62.3,9.2,62.3,9.2z"/>
					<path id="XMLID_210_" class="st75" d="M57.8,8c0.1,0.2,0.2,0.4,0.4,0.6l1.2-2.2l-0.5-0.3L57.8,8z"/>
					<path id="XMLID_209_" class="st75" d="M58.3,8.8c0.1,0.1,0.1,0.1,0.2,0.2l1.3-2.3l-0.2-0.1L58.3,8.8z"/>
				</g>
				
					<ellipse id="XMLID_207_" transform="matrix(0.8739 0.4861 -0.4861 0.8739 11.0836 -28.5188)" class="st76" cx="60.5" cy="7.1" rx="2.6" ry="1.7"/>
				<path id="XMLID_204_" class="st77" d="M62.5,6.6c0.1,0.5,0.1,0.9-0.2,1.3c-0.6,0.9-2,0.9-3.4,0.2c0.2,0.2,0.5,0.4,0.7,0.5
					c1.2,0.7,2.6,0.6,3.1-0.2C63,7.8,62.9,7.2,62.5,6.6z"/>
				<g id="XMLID_330_">
					<path id="XMLID_189_" class="st78" d="M58.1,6.5c0,0.1,0,0.2,0.1,0.4l4-0.6C62.1,6.2,62,6.1,61.8,6L58.1,6.5z"/>
					<path id="XMLID_178_" class="st78" d="M61.5,5.7c-0.1,0-0.1-0.1-0.2-0.1c-1.2-0.7-2.6-0.6-3.1,0.2c-0.1,0.1-0.1,0.2-0.1,0.3
						L61.5,5.7z"/>
				</g>
			</g>
			<g id="XMLID_237_">
				<g id="XMLID_318_">
					<path id="XMLID_176_" class="st74" d="M58.8,15.4l0.5-0.8l-0.5-0.3l-3.5-1.9l-0.5-0.3L54.3,13c-0.5,0.8,0.2,2,1.4,2.7
						c1.2,0.7,2.6,0.6,3.1-0.2C58.8,15.5,58.8,15.4,58.8,15.4z"/>
					<path id="XMLID_175_" class="st75" d="M54.3,14.3c0.1,0.2,0.2,0.4,0.4,0.6l1.2-2.2l-0.5-0.3L54.3,14.3z"/>
					<path id="XMLID_173_" class="st75" d="M54.8,15c0.1,0.1,0.1,0.1,0.2,0.2l1.3-2.3L56,12.8L54.8,15z"/>
				</g>
				
					<ellipse id="XMLID_172_" transform="matrix(0.8739 0.4861 -0.4861 0.8739 13.6749 -26.0485)" class="st76" cx="57" cy="13.3" rx="2.6" ry="1.7"/>
				<path id="XMLID_171_" class="st77" d="M59,12.8c0.1,0.5,0.1,0.9-0.2,1.3c-0.6,0.9-2,0.9-3.4,0.2c0.2,0.2,0.5,0.4,0.7,0.5
					c1.2,0.7,2.6,0.6,3.1-0.2C59.6,14.1,59.4,13.4,59,12.8z"/>
				<g id="XMLID_238_">
					<path id="XMLID_170_" class="st78" d="M54.7,12.7c0,0.1,0,0.2,0.1,0.4l4-0.6c-0.1-0.1-0.2-0.2-0.4-0.3L54.7,12.7z"/>
					<path id="XMLID_165_" class="st78" d="M58,12c-0.1,0-0.1-0.1-0.2-0.1c-1.2-0.7-2.6-0.6-3.1,0.2c-0.1,0.1-0.1,0.2-0.1,0.3L58,12
						z"/>
				</g>
			</g>
		</g>
	</g>
	<g id="XMLID_326_">
		<g id="XMLID_410_">
			<path id="XMLID_324_" class="st67" d="M8.4,41.1C8.4,41.1,8.4,41.1,8.4,41.1c0,0,0.1,0.1,0.1,0.1c0,0,0,0,0,0
				c0,0,0.1,0.1,0.1,0.1l0,0L9,41.5l0.6,0.4l4.6,3.1c0.9,0.6,1.9,0.5,2.5-0.1l0,0l0.8-1.2l0,0c0,0,0,0,0,0c0,0,0,0,0,0
				c0.3-0.7,0.1-1.4-0.4-2c0,0,0,0,0,0c0,0-0.1-0.1-0.1-0.1c0,0,0,0,0,0c0,0-0.1-0.1-0.1-0.1c0,0,0,0,0,0c0,0-0.1,0-0.1-0.1
				c0,0,0,0,0,0c0,0-0.1-0.1-0.1-0.1l-2-1.4l-0.7-0.5l-0.4-0.3l-1.2-0.8l-1.1-0.8c-0.8-0.6-1.9-0.5-2.6,0.2l0,0l-0.8,1.2l0,0
				C7.5,39.6,7.7,40.5,8.4,41.1z"/>
			<g id="XMLID_411_">
				<path id="XMLID_323_" class="st79" d="M16.3,42.2l-7.7-5.3L8,36.5l-0.9,1.3l0,0c-0.4,0.8,0,1.8,0.8,2.4l5.5,3.7
					c0.9,0.6,1.9,0.5,2.5-0.1l0,0l0.9-1.3L16.3,42.2z"/>
				<g id="XMLID_428_" class="st80">
					<g id="XMLID_384_">
						<path id="XMLID_387_" class="st81" d="M8.8,37l-1.6,2.2c0.2,0.3,0.4,0.7,0.8,0.9l0,0l1.7-2.5L8.8,37z"/>
						<polygon id="XMLID_385_" class="st81" points="10.1,37.9 8.3,40.4 8.9,40.8 10.7,38.3 						"/>
					</g>
				</g>
				<path id="XMLID_319_" class="st82" d="M16.1,40l-5.5-3.7c-0.9-0.6-2.2-0.4-2.8,0.5c-0.6,0.9-0.4,2.2,0.5,2.8l5.5,3.7
					c0.9,0.6,2.2,0.4,2.8-0.5C17.3,41.9,17.1,40.7,16.1,40z"/>
				<g id="XMLID_418_" class="st83">
					<g id="XMLID_388_">
						<path id="XMLID_390_" class="st84" d="M11.8,37.1l-4.2,1.6c0.1,0.4,0.4,0.7,0.8,1l4.7-1.8L11.8,37.1z"/>
						<polygon id="XMLID_389_" class="st84" points="13.3,38.2 8.7,39.9 9.4,40.4 14.1,38.7 						"/>
					</g>
				</g>
				<path id="XMLID_314_" class="st84" d="M7.7,37.1c0.6-0.9,1.9-1.2,2.8-0.5l5.5,3.7c0.6,0.4,0.9,1.1,0.9,1.8
					c0.1-0.7-0.2-1.5-0.9-2l-5.5-3.7c-0.9-0.6-2.2-0.4-2.8,0.5c-0.2,0.3-0.3,0.7-0.4,1.1C7.5,37.6,7.6,37.3,7.7,37.1z"/>
				<path id="XMLID_313_" class="st85" d="M17,41.6c0,0.3-0.1,0.6-0.3,0.8c-0.4,0.4-0.9,0.6-1.5,0.7c-0.5,0.1-1.1,0-1.6-0.3
					c0,0-5.5-3.7-5.5-3.7c-0.4-0.3-0.6-0.6-0.8-1c0,0.6,0.3,1.3,0.9,1.6l5.5,3.7c0.9,0.6,2.2,0.4,2.8-0.5C16.9,42.5,17,42,17,41.6z"
					/>
			</g>
		</g>
		<g id="XMLID_327_">
			<path id="XMLID_301_" class="st67" d="M3.9,47.5c0,0,0.1,0.1,0.1,0.1c0,0,0,0,0,0c0,0,0.1,0.1,0.1,0.1l0,0l0.3,0.2l0.6,0.4
				l4.6,3.1c0.9,0.6,1.9,0.5,2.5-0.1l0,0l0.8-1.2l0,0c0,0,0,0,0,0c0,0,0,0,0,0c0.3-0.7,0.1-1.4-0.4-2c0,0,0,0,0,0
				c0,0-0.1-0.1-0.1-0.1c0,0,0,0,0,0c0,0-0.1-0.1-0.1-0.1c0,0,0,0,0,0c0,0-0.1,0-0.1-0.1c0,0,0,0,0,0c0,0-0.1-0.1-0.1-0.1l-2-1.4
				l-0.7-0.5L9,45.6l-1.2-0.8L6.7,44c-0.8-0.6-1.9-0.5-2.6,0.2l0,0l-0.8,1.2l0,0C3,46,3.2,46.9,3.9,47.5C3.9,47.5,3.9,47.5,3.9,47.5
				z"/>
			<g id="XMLID_328_">
				<path id="XMLID_245_" class="st86" d="M11.6,48.9l-7.7-5.3l-0.6-0.4l-0.9,1.3l0,0c-0.4,0.8,0,1.8,0.8,2.4l5.5,3.7
					c0.9,0.6,1.9,0.5,2.5-0.1l0,0l0.9-1.3L11.6,48.9z"/>
				<g id="XMLID_386_" class="st80">
					<g id="XMLID_412_">
						<g id="XMLID_415_">
							<path id="XMLID_416_" class="st87" d="M4.1,43.7L2.5,46c0.2,0.3,0.4,0.7,0.8,0.9l0,0l1.7-2.5L4.1,43.7z"/>
						</g>
						<g id="XMLID_413_">
							<polygon id="XMLID_414_" class="st87" points="5.4,44.6 3.6,47.1 4.2,47.5 6,45 							"/>
						</g>
					</g>
				</g>
				<path id="XMLID_242_" class="st88" d="M11.4,46.7L5.9,43c-0.9-0.6-2.2-0.4-2.8,0.5c-0.6,0.9-0.4,2.2,0.5,2.8l5.5,3.7
					c0.9,0.6,2.2,0.4,2.8-0.5C12.6,48.6,12.4,47.4,11.4,46.7z"/>
				<g id="XMLID_341_" class="st80">
					<g id="XMLID_391_">
						<path id="XMLID_394_" class="st89" d="M7.1,43.8l-4.2,1.6c0.1,0.4,0.4,0.7,0.8,1l4.7-1.8L7.1,43.8z"/>
						<polygon id="XMLID_393_" class="st89" points="8.7,44.9 4,46.6 4.7,47.1 9.4,45.3 						"/>
					</g>
				</g>
				<path id="XMLID_239_" class="st89" d="M3.1,43.8c0.6-0.9,1.9-1.2,2.8-0.5l5.5,3.7c0.6,0.4,0.9,1.1,0.9,1.8
					c0.1-0.7-0.2-1.5-0.9-2L5.9,43c-0.9-0.6-2.2-0.4-2.8,0.5c-0.2,0.3-0.3,0.7-0.4,1.1C2.8,44.3,2.9,44,3.1,43.8z"/>
				<path id="XMLID_233_" class="st90" d="M12.3,48.2c0,0.3-0.1,0.6-0.3,0.8c-0.4,0.4-0.9,0.6-1.5,0.7c-0.5,0.1-1.1,0-1.6-0.3
					c0,0-5.5-3.7-5.5-3.7c-0.4-0.3-0.6-0.6-0.8-1c0,0.6,0.3,1.3,0.9,1.6l5.5,3.7c0.9,0.6,2.2,0.4,2.8-0.5
					C12.3,49.2,12.4,48.7,12.3,48.2z"/>
			</g>
		</g>
	</g>
	<g id="XMLID_325_">
		<path id="XMLID_421_" class="st67" d="M52.5,38.6l2.5-0.7l0.1,0.5l0.3,1.1l0.1,0.3l0.1,0.5c0.1,0.4,0.5,0.6,0.9,0.5l2.6-0.7
			c0.4-0.1,0.6-0.5,0.5-0.9l-0.1-0.5l-0.1-0.3L59,36.7l2.5-0.7c0.4-0.1,0.6-0.5,0.5-0.9l-0.1-0.5l-0.1-0.3l-0.5-1.7l-0.1-0.5
			l-0.1-0.3c0,0,0,0,0-0.1c0,0,0,0,0,0c0,0,0,0,0,0c0,0,0,0,0,0c0,0,0,0,0,0c0,0,0,0,0,0l0,0l0,0c0,0,0,0,0,0c0,0,0,0,0,0
			c0,0,0,0,0,0c0,0,0,0,0,0c0,0,0,0,0,0c0,0,0,0,0,0c0,0,0,0,0,0c0,0,0,0,0,0c0,0,0,0,0,0c0,0,0,0,0,0c0,0,0,0,0,0c0,0,0,0,0,0
			c0,0,0,0,0,0c0,0,0,0,0,0c0,0,0,0,0,0c0,0,0,0,0,0c0,0,0,0,0,0c0,0,0,0,0,0c0,0,0,0,0,0c0,0,0,0,0,0c0,0,0,0,0,0c0,0,0,0,0,0
			c0,0,0,0,0,0c0,0,0,0,0,0c0,0,0,0,0,0c0,0,0,0-0.1,0c0,0,0,0,0,0c0,0,0,0,0,0c0,0,0,0,0,0c0,0,0,0,0,0c0,0,0,0,0,0c0,0,0,0,0,0
			c0,0,0,0,0,0c0,0,0,0-0.1,0l-1.8,0.5L57.7,32l-0.2-0.6l-0.2-0.7l-0.1-0.2L57.1,30L57,29.7c0,0,0,0,0-0.1c0,0,0,0,0,0c0,0,0,0,0,0
			c0,0,0,0,0,0c0,0,0,0,0,0c0,0,0,0,0,0c0,0,0,0,0,0c0,0,0,0,0,0c0,0,0,0,0,0c0,0,0,0,0,0c0,0,0,0,0,0c0,0,0,0,0,0c0,0,0,0,0,0
			c0,0,0,0,0,0c0,0,0,0,0,0c0,0,0,0,0,0c0,0,0,0,0,0c0,0,0,0,0,0c0,0,0,0,0,0c0,0,0,0,0,0c0,0,0,0,0,0c0,0,0,0,0,0c0,0,0,0,0,0
			c0,0,0,0,0,0c0,0,0,0,0,0c0,0,0,0,0,0c0,0,0,0,0,0c0,0,0,0,0,0c0,0,0,0,0,0c0,0,0,0,0,0c0,0,0,0,0,0c0,0,0,0,0,0c0,0,0,0,0,0
			c0,0,0,0,0,0c0,0,0,0,0,0c0,0,0,0,0,0c0,0,0,0,0,0c0,0,0,0,0,0c0,0,0,0,0,0c0,0,0,0,0,0c0,0,0,0,0,0c0,0,0,0,0,0c0,0,0,0,0,0
			c0,0,0,0,0,0c0,0,0,0,0,0c0,0,0,0,0,0c0,0,0,0,0,0c0,0,0,0,0,0c0,0,0,0,0,0c0,0,0,0,0,0l0,0c0,0,0,0,0,0c0,0,0,0,0,0c0,0,0,0,0,0
			c0,0,0,0-0.1,0l-2.6,0.7c-0.4,0.1-0.6,0.5-0.5,0.9l0.1,0.3l0.1,0.5l0.5,1.6l-2.5,0.7c-0.4,0.1-0.6,0.5-0.5,0.9l0.1,0.3l0.1,0.5
			l0.5,1.7l0.1,0.3l0.1,0.5C51.7,38.5,52.1,38.7,52.5,38.6z"/>
		<g id="XMLID_331_">
			<g id="XMLID_406_">
				<path id="XMLID_417_" class="st68" d="M59.4,31.9l-2.5,0.7l-0.7-2.5c-0.1-0.4-0.5-0.6-0.9-0.5l-2.6,0.7
					c-0.4,0.1-0.6,0.5-0.5,0.9l0.7,2.5l-2.5,0.7c-0.4,0.1-0.6,0.5-0.5,0.9l0.7,2.6c0.1,0.4,0.5,0.6,0.9,0.5l2.5-0.7l0.7,2.5
					c0.1,0.4,0.5,0.6,0.9,0.5l2.6-0.7c0.4-0.1,0.6-0.5,0.5-0.9l-0.7-2.5l2.5-0.7c0.4-0.1,0.6-0.5,0.5-0.9l-0.7-2.6
					C60.2,32.1,59.8,31.8,59.4,31.9z"/>
				<path id="XMLID_407_" class="st69" d="M59.3,31.5l-2.5,0.7l-0.7-2.5c-0.1-0.4-0.5-0.6-0.9-0.5l-2.6,0.7
					c-0.4,0.1-0.6,0.5-0.5,0.9l0.7,2.5l-2.5,0.7c-0.4,0.1-0.6,0.5-0.5,0.9l0.7,2.6c0.1,0.4,0.5,0.6,0.9,0.5l2.5-0.7l0.7,2.5
					c0.1,0.4,0.5,0.6,0.9,0.5l2.6-0.7c0.4-0.1,0.6-0.5,0.5-0.9L58,36.2l2.5-0.7c0.4-0.1,0.6-0.5,0.5-0.9L60.2,32
					C60.1,31.6,59.7,31.3,59.3,31.5z"/>
			</g>
			<g id="XMLID_332_">
				<path id="XMLID_402_" class="st70" d="M59.2,31.1l-2.5,0.7L56,29.4c-0.1-0.4-0.5-0.6-0.9-0.5l-2.6,0.7c-0.4,0.1-0.6,0.5-0.5,0.9
					l0.7,2.5l-2.5,0.7c-0.4,0.1-0.6,0.5-0.5,0.9l0.7,2.6c0.1,0.4,0.5,0.6,0.9,0.5l2.5-0.7l0.7,2.5c0.1,0.4,0.5,0.6,0.9,0.5l2.6-0.7
					c0.4-0.1,0.6-0.5,0.5-0.9l-0.7-2.5l2.5-0.7c0.4-0.1,0.6-0.5,0.5-0.9l-0.7-2.6C60,31.2,59.6,31,59.2,31.1z"/>
				<g id="XMLID_395_" class="st71">
					<path id="XMLID_399_" class="st72" d="M56,29.4c-0.1-0.4-0.4-0.6-0.8-0.5L51,37.8c0.1,0,0.3,0,0.4,0l1.7-0.5l3.3-6.8L56,29.4z"
						/>
					<polygon id="XMLID_396_" class="st72" points="53.7,37.1 53.8,37 54.2,38.3 57.4,31.6 56.7,31.8 56.5,31.2 					"/>
				</g>
				<g id="XMLID_369_">
					<path id="XMLID_381_" class="st73" d="M55.3,29l0.9,3l0.5-0.1L56,29.4c-0.1-0.3-0.4-0.6-0.7-0.5C55.3,28.9,55.3,28.9,55.3,29z"
						/>
					<path id="XMLID_373_" class="st73" d="M59.4,31.1c0,0.1,0.1,0.1,0.1,0.2l0.7,2.6c0.1,0.4-0.1,0.8-0.5,0.9l-2.5,0.7l0.7,2.5
						c0.1,0.4-0.1,0.8-0.5,0.9l-2.6,0.7c-0.1,0-0.1,0-0.2,0c0.2,0.3,0.5,0.4,0.9,0.3l2.6-0.7c0.4-0.1,0.6-0.5,0.5-0.9l-0.7-2.5
						l2.5-0.7c0.4-0.1,0.6-0.5,0.5-0.9l-0.7-2.6C60,31.3,59.7,31.1,59.4,31.1z"/>
					<path id="XMLID_370_" class="st73" d="M53.7,36.5l-3,0.9c-0.1,0-0.1,0-0.2,0c0.2,0.3,0.5,0.4,0.9,0.3l2.5-0.7L53.7,36.5z"/>
				</g>
				<g id="XMLID_333_">
					<path id="XMLID_363_" class="st72" d="M50.9,37.6L50.1,35c-0.1-0.4,0.1-0.8,0.5-0.9l2.5-0.7l-0.7-2.5c-0.1-0.4,0.1-0.8,0.5-0.9
						l2.6-0.7c0.1,0,0.3,0,0.4,0c-0.2-0.3-0.5-0.4-0.9-0.3l-2.6,0.7c-0.4,0.1-0.6,0.5-0.5,0.9l0.7,2.5l-2.5,0.7
						c-0.4,0.1-0.6,0.5-0.5,0.9l0.7,2.6c0.1,0.3,0.3,0.5,0.5,0.5C50.9,37.7,50.9,37.6,50.9,37.6z"/>
					<path id="XMLID_337_" class="st72" d="M56.3,32.4l3.3-1c0.1,0,0.3,0,0.4,0c-0.2-0.3-0.5-0.4-0.9-0.3l-3,0.9L56.3,32.4z"/>
					<path id="XMLID_334_" class="st72" d="M55,39.8l-1-3.4l-0.3,0.1l0.9,3c0.1,0.3,0.3,0.5,0.5,0.5C55.1,40,55,39.9,55,39.8z"/>
				</g>
			</g>
		</g>
	</g>
</g>
</svg>
