<?xml version="1.0" encoding="utf-8"?>
<!-- Generator: Adobe Illustrator 19.0.0, SVG Export Plug-In . SVG Version: 6.00 Build 0)  -->
<svg version="1.1" xmlns="http://www.w3.org/2000/svg" xmlns:xlink="http://www.w3.org/1999/xlink" x="0px" y="0px"
	 viewBox="0 0 64 64" style="enable-background:new 0 0 64 64;" xml:space="preserve">
<style type="text/css">
	.st0{fill:#EFEFEF;}
	.st1{fill:#1F2021;}
	.st2{fill:#545454;}
	.st3{fill:#FFA83B;}
	.st4{fill:#C0DEF2;}
	.st5{fill:#9FCAE2;}
	.st6{fill:#FFE697;}
	.st7{fill:#ED6969;}
	.st8{fill:#DB5D5D;}
	.st9{fill:#C0C6CC;}
	.st10{fill:#AFB6BA;}
	.st11{fill:#B9C0C6;}
	.st12{fill:#576493;}
	.st13{fill:#4B597F;}
	.st14{fill:#FFF27B;}
	.st15{fill:#FFE73B;}
	.st16{fill:#FFFFFF;}
</style>
<g id="Layer_2">
	<rect class="st0" width="64" height="64"/>
</g>
<g id="Layer_1">
	<g>
		<g>
			<g>
				<path class="st1" d="M90.2,20.2c0,1.7-1.5,2.7-2.4,3.1c-0.3,0.1-0.9,0.6-3.2,0.6c-2.5,0-2.9-0.3-3.5-0.6
					c-1.2-0.5-2.4-1.4-2.4-3.1V2.5c0-1.7,1-3.1,2.3-3.1h6.7c1.3,0,2.4,1.4,2.4,3.1V20.2z"/>
			</g>
			<g>
				<path class="st2" d="M88.8,3.7c-0.5-0.2-1.5-0.7-4.2-0.7c-0.1,0-0.1,0-0.2,0c-0.1,0-0.1,0-0.2,0c-2.7,0-3.7,0.5-4.2,0.7
					c-0.4,0.2-0.8,0.4-0.8,0.8V5v9.9v0.6c0,0.4,0.4,0.6,0.8,0.8c0.5,0.2,1.5,0.7,4.2,0.7c0.1,0,0.1,0,0.2,0c0.1,0,0.1,0,0.2,0
					c2.7,0,3.7-0.5,4.2-0.7c0.4-0.2,0.8-0.4,0.8-0.8v-0.6V5V4.5C89.6,4,89.2,3.8,88.8,3.7z"/>
			</g>
			<g>
				<path class="st1" d="M87.7,6.4c-0.4-0.1-1.1-0.3-3.1-0.3c0,0-0.1,0-0.1,0c0,0-0.1,0-0.1,0c-2,0-2.8,0.2-3.1,0.3
					c-0.3,0.1-0.6,0.2-0.6,0.4v0.3v4.5v0.3c0,0.2,0.3,0.3,0.6,0.4c0.4,0.1,1.1,0.3,3.1,0.3c0,0,0.1,0,0.1,0c0,0,0.1,0,0.1,0
					c2,0,2.7-0.2,3.1-0.3c0.3-0.1,0.6-0.2,0.6-0.4v-0.3V7.1V6.8C88.2,6.6,88,6.5,87.7,6.4z"/>
			</g>
			<g>
				<path class="st1" d="M88.9-0.1c0,0.4-0.4,0.8-0.8,0.8h-7.2c-0.4,0-0.8-0.4-0.8-0.8v-0.1c0-0.4,0.4-0.8,0.8-0.8h7.2
					C88.6-0.9,88.9-0.6,88.9-0.1L88.9-0.1z"/>
			</g>
			<g>
				<g>
					<path class="st1" d="M80.7,6.9c-0.6-1.8-1.6-3-1.6-3l0.3-0.3c0,0,1.1,1.2,1.7,3.1L80.7,6.9z"/>
				</g>
				<g>
					<path class="st1" d="M88.2,6.9l-0.4-0.1c0.6-1.9,1.6-3.1,1.7-3.1L89.7,4c0,0,0,0,0,0l0,0C89.7,4,88.7,5.1,88.2,6.9z"/>
				</g>
				<g>
					<path class="st1" d="M79.5,16.3l-0.4-0.2c0,0,1-1.6,1.6-4.2l0.4,0.1C80.6,14.6,79.5,16.2,79.5,16.3z"/>
				</g>
				<g>
					<path class="st1" d="M89.4,16.3c0-0.1-1.1-1.7-1.6-4.3l0.4-0.1c0.6,2.5,1.6,4.1,1.6,4.2L89.4,16.3z"/>
				</g>
			</g>
			<g>
				<g>
					<path class="st3" d="M87.9,23.2c0,0-0.1-2.1,2.1-2.2C90,21.1,89.9,22.4,87.9,23.2z"/>
				</g>
				<g>
					<path class="st3" d="M80.9,23.2c0,0,0.1-2.1-2.1-2.2C78.8,21.1,78.9,22.4,80.9,23.2z"/>
				</g>
			</g>
			<g>
				<g>
					<path class="st1" d="M82,21c0,0.1-0.1,0.2-0.2,0.2h0c-0.1,0-0.2-0.1-0.2-0.2v-3c0-0.1,0.1-0.2,0.2-0.2h0c0.1,0,0.2,0.1,0.2,0.2
						V21z"/>
				</g>
				<g>
					<path class="st1" d="M87.3,21c0,0.1-0.1,0.2-0.2,0.2h0c-0.1,0-0.2-0.1-0.2-0.2v-3c0-0.1,0.1-0.2,0.2-0.2h0
						c0.1,0,0.2,0.1,0.2,0.2V21z"/>
				</g>
			</g>
		</g>
		<g>
			<g>
				<path class="st4" d="M40.5,20.3c0,1.7-1.5,2.7-2.4,3.1c-0.3,0.1-0.9,0.6-3.2,0.6c-2.5,0-2.9-0.3-3.5-0.6C30.1,23,29,22,29,20.3
					V2.6c0-1.7,1-1.9,2.3-1.9h6.7c1.3,0,2.4,0.3,2.4,1.9V20.3z"/>
			</g>
			<g>
				<path class="st2" d="M39.1,3.8c-0.5-0.2-1.5-0.7-4.2-0.7c-0.1,0-0.1,0-0.2,0c-0.1,0-0.1,0-0.2,0c-2.7,0-3.7,0.5-4.2,0.7
					c-0.4,0.2-0.8,0.4-0.8,0.8v0.6V15v0.6c0,0.4,0.4,0.6,0.8,0.8c0.5,0.2,1.5,0.7,4.2,0.7c0.1,0,0.1,0,0.2,0c0.1,0,0.1,0,0.2,0
					c2.7,0,3.7-0.5,4.2-0.7c0.4-0.2,0.8-0.4,0.8-0.8V15V5.1V4.6C39.9,4.1,39.5,3.9,39.1,3.8z"/>
			</g>
			<g>
				<path class="st4" d="M37.9,6.6c-0.4-0.1-1.1-0.3-3.1-0.3c0,0-0.1,0-0.1,0c0,0-0.1,0-0.1,0c-2,0-2.7,0.2-3.1,0.3
					c-0.3,0.1-0.6,0.2-0.6,0.4v0.3v4.5V12c0,0.2,0.3,0.3,0.6,0.4c0.4,0.1,1.1,0.3,3.1,0.3c0,0,0.1,0,0.1,0c0,0,0.1,0,0.1,0
					c2,0,2.7-0.2,3.1-0.3c0.3-0.1,0.6-0.2,0.6-0.4v-0.3V7.2V6.9C38.5,6.7,38.2,6.6,37.9,6.6z"/>
			</g>
			<g>
				<path class="st5" d="M39.2,1.2c0,0.4-0.4,0.8-0.8,0.8h-7.2c-0.4,0-0.8-0.4-0.8-0.8V1.1c0-0.4,0.4-0.8,0.8-0.8h7.2
					C38.8,0.3,39.2,0.7,39.2,1.2L39.2,1.2z"/>
			</g>
			<g>
				<g>
					<path class="st4" d="M31,7.1c-0.6-1.8-1.6-3-1.6-3l0.3-0.3c0,0,1.1,1.2,1.7,3.1L31,7.1z"/>
				</g>
				<g>
					<path class="st4" d="M38.4,7.1L38,6.9c0.6-1.9,1.6-3.1,1.7-3.1L40,4.1c0,0,0,0,0,0l0,0C40,4.1,39,5.3,38.4,7.1z"/>
				</g>
				<g>
					<path class="st4" d="M29.8,16.4l-0.4-0.2c0,0,1-1.6,1.6-4.2l0.4,0.1C30.8,14.7,29.8,16.4,29.8,16.4z"/>
				</g>
				<g>
					<path class="st4" d="M39.6,16.4c0-0.1-1.1-1.7-1.6-4.3l0.4-0.1c0.6,2.5,1.6,4.1,1.6,4.2L39.6,16.4z"/>
				</g>
			</g>
			<g>
				<g>
					<path class="st6" d="M38.2,23.4c0,0-0.1-2.1,2.1-2.2C40.3,21.2,40.2,22.5,38.2,23.4z"/>
				</g>
				<g>
					<path class="st6" d="M31.2,23.4c0,0,0.1-2.1-2.1-2.2C29.1,21.2,29.2,22.5,31.2,23.4z"/>
				</g>
			</g>
			<g>
				<g>
					<path class="st5" d="M32.3,21.1c0,0.1-0.1,0.2-0.2,0.2h0c-0.1,0-0.2-0.1-0.2-0.2v-3c0-0.1,0.1-0.2,0.2-0.2h0
						c0.1,0,0.2,0.1,0.2,0.2V21.1z"/>
				</g>
				<g>
					<path class="st5" d="M37.5,21.1c0,0.1-0.1,0.2-0.2,0.2h0c-0.1,0-0.2-0.1-0.2-0.2v-3c0-0.1,0.1-0.2,0.2-0.2h0
						c0.1,0,0.2,0.1,0.2,0.2V21.1z"/>
				</g>
			</g>
		</g>
		<g>
			<g>
				<path class="st7" d="M15.1,4.3c0-1.7,1.5-2.7,2.4-3.1c0.3-0.1,0.9-0.6,3.2-0.6c2.5,0,2.9,0.3,3.5,0.5c1.2,0.4,2.4,1.4,2.4,3.1
					l0,15.4c0,1.7-1,3.1-2.3,3.1l-6.7,0c-1.3,0-2.4-1.4-2.4-3.1L15.1,4.3z"/>
			</g>
			<g>
				<path class="st2" d="M16.5,20.8c0.5,0.2,1.5,0.7,4.2,0.7c0.1,0,0.1,0,0.2,0c0.1,0,0.1,0,0.2,0c2.7,0,3.7-0.5,4.2-0.7
					c0.4-0.2,0.8-0.4,0.8-0.8l0-0.6l0-9.9l0-0.6c0-0.4-0.4-0.6-0.8-0.8C24.7,8,23.7,7.5,21,7.5c-0.1,0-0.1,0-0.2,0
					c-0.1,0-0.1,0-0.2,0C18,7.5,17,8,16.5,8.2c-0.4,0.2-0.8,0.4-0.8,0.8l0,0.6l0,9.9l0,0.6C15.7,20.4,16.1,20.6,16.5,20.8z"/>
			</g>
			<g>
				<path class="st7" d="M17.7,18c0.4,0.1,1.1,0.3,3.1,0.3c0,0,0.1,0,0.1,0c0,0,0.1,0,0.1,0c2,0,2.7-0.2,3.1-0.3
					c0.3-0.1,0.6-0.2,0.6-0.4l0-0.3l0-4.5l0-0.3c0-0.2-0.3-0.3-0.6-0.4c-0.4-0.1-1.1-0.3-3.1-0.3c0,0-0.1,0-0.1,0c0,0-0.1,0-0.1,0
					c-2,0-2.7,0.2-3.1,0.3c-0.3,0.1-0.6,0.2-0.6,0.4l0,0.3l0,4.5l0,0.3C17.1,17.8,17.4,17.9,17.7,18z"/>
			</g>
			<g>
				<g>
					<path class="st7" d="M24.6,17.5c0.6,1.8,1.6,3,1.6,3l-0.3,0.3c0,0-1.1-1.2-1.7-3.1L24.6,17.5z"/>
				</g>
				<g>
					<path class="st7" d="M17.2,17.5l0.4,0.1C17,19.5,16,20.7,16,20.8l-0.3-0.3l0,0l0,0C15.6,20.5,16.6,19.3,17.2,17.5z"/>
				</g>
				<g>
					<path class="st7" d="M25.8,8.1l0.4,0.2c0,0-1,1.6-1.6,4.2l-0.4-0.1C24.7,9.8,25.8,8.2,25.8,8.1z"/>
				</g>
				<g>
					<path class="st7" d="M15.9,8.1c0,0.1,1.1,1.7,1.6,4.3l-0.4,0.1c-0.6-2.5-1.6-4.1-1.6-4.1L15.9,8.1z"/>
				</g>
			</g>
			<g>
				<g>
					<path class="st6" d="M17.4,1.2c0,0,0.1,2.1-2.1,2.2C15.3,3.3,15.4,2.1,17.4,1.2z"/>
				</g>
				<g>
					<path class="st6" d="M24.4,1.2c0,0-0.1,2.1,2.1,2.2C26.5,3.3,26.4,2.1,24.4,1.2z"/>
				</g>
			</g>
			<g>
				<g>
					<path class="st8" d="M23.3,3.4c0-0.1,0.1-0.2,0.2-0.2l0,0c0.1,0,0.2,0.1,0.2,0.2l0,3c0,0.1-0.1,0.2-0.2,0.2l0,0
						c-0.1,0-0.2-0.1-0.2-0.2L23.3,3.4z"/>
				</g>
				<g>
					<path class="st8" d="M18,3.4c0-0.1,0.1-0.2,0.2-0.2l0,0c0.1,0,0.2,0.1,0.2,0.2l0,3c0,0.1-0.1,0.2-0.2,0.2l0,0
						c-0.1,0-0.2-0.1-0.2-0.2L18,3.4z"/>
				</g>
			</g>
		</g>
		<g>
			<g>
				<path class="st9" d="M12.1,21.5c0,1.7-1.5,2.7-2.4,3.1c-0.3,0.1-0.9,0.6-3.2,0.6c-2.5,0-2.9-0.3-3.5-0.6
					c-1.2-0.5-2.4-1.4-2.4-3.1V3.9c0-1.7,1-3.1,2.3-3.1h6.7c1.3,0,2.4,1.4,2.4,3.1V21.5z"/>
			</g>
			<g>
				<path class="st2" d="M10.7,5c-0.5-0.2-1.5-0.7-4.2-0.7c-0.1,0-0.1,0-0.2,0c-0.1,0-0.1,0-0.2,0C3.5,4.3,2.5,4.8,2,5
					C1.6,5.2,1.2,5.4,1.2,5.8v0.6v9.9v0.6c0,0.4,0.4,0.6,0.8,0.8c0.5,0.2,1.5,0.7,4.2,0.7c0.1,0,0.1,0,0.2,0c0.1,0,0.1,0,0.2,0
					c2.7,0,3.7-0.5,4.2-0.7c0.4-0.2,0.8-0.4,0.8-0.8v-0.6V6.4V5.8C11.5,5.4,11.2,5.2,10.7,5z"/>
			</g>
			<g>
				<path class="st9" d="M9.6,7.8C9.2,7.7,8.5,7.5,6.5,7.5c0,0-0.1,0-0.1,0c0,0-0.1,0-0.1,0c-2,0-2.7,0.2-3.1,0.3
					C2.8,7.9,2.6,8,2.6,8.2v0.3v4.5v0.3c0,0.2,0.3,0.3,0.6,0.4c0.4,0.1,1.1,0.3,3.1,0.3c0,0,0.1,0,0.1,0c0,0,0.1,0,0.1,0
					c2,0,2.7-0.2,3.1-0.3c0.3-0.1,0.6-0.2,0.6-0.4v-0.3V8.4V8.2C10.2,8,9.9,7.9,9.6,7.8z"/>
			</g>
			<g>
				<path class="st10" d="M10.9,1.3c0,0.4-0.4,0.8-0.8,0.8H2.8C2.4,2.1,2,1.7,2,1.3V1.2c0-0.4,0.4-0.8,0.8-0.8h7.2
					C10.5,0.4,10.9,0.8,10.9,1.3L10.9,1.3z"/>
			</g>
			<g>
				<g>
					<path class="st9" d="M2.7,8.3c-0.6-1.8-1.6-3-1.6-3L1.4,5c0,0,1.1,1.2,1.7,3.1L2.7,8.3z"/>
				</g>
				<g>
					<path class="st9" d="M10.1,8.3L9.7,8.2c0.6-1.9,1.6-3.1,1.7-3.1l0.3,0.3l0,0l0,0C11.7,5.3,10.7,6.5,10.1,8.3z"/>
				</g>
				<g>
					<path class="st9" d="M1.5,17.7l-0.4-0.2c0,0,1-1.6,1.6-4.2l0.4,0.1C2.5,16,1.5,17.6,1.5,17.7z"/>
				</g>
				<g>
					<path class="st9" d="M11.3,17.7c0-0.1-1.1-1.7-1.6-4.3l0.4-0.1c0.6,2.5,1.6,4.1,1.6,4.1L11.3,17.7z"/>
				</g>
			</g>
			<g>
				<g>
					<path class="st6" d="M9.9,24.6c0,0-0.1-2.1,2.1-2.2C12,22.5,11.9,23.7,9.9,24.6z"/>
				</g>
				<g>
					<path class="st6" d="M2.9,24.6c0,0,0.1-2.1-2.1-2.2C0.8,22.4,0.9,23.7,2.9,24.6z"/>
				</g>
			</g>
			<g>
				<g>
					<path class="st11" d="M4,22.4c0,0.1-0.1,0.2-0.2,0.2h0c-0.1,0-0.2-0.1-0.2-0.2v-3c0-0.1,0.1-0.2,0.2-0.2h0
						c0.1,0,0.2,0.1,0.2,0.2V22.4z"/>
				</g>
				<g>
					<path class="st11" d="M9.2,22.4c0,0.1-0.1,0.2-0.2,0.2h0c-0.1,0-0.2-0.1-0.2-0.2v-3c0-0.1,0.1-0.2,0.2-0.2h0
						c0.1,0,0.2,0.1,0.2,0.2V22.4z"/>
				</g>
			</g>
		</g>
		<g>
			<g>
				<path class="st7" d="M53.8,60.5c0,1.7-1.5,2.7-2.4,3.1c-0.3,0.1-0.9,0.6-3.2,0.6c-2.5,0-2.9-0.3-3.5-0.6
					c-1.2-0.5-2.4-1.4-2.4-3.1V45.1c0-1.7,1-3.1,2.3-3.1h6.7c1.3,0,2.4,1.4,2.4,3.1V60.5z"/>
			</g>
			<g>
				<path class="st2" d="M52.4,43.9c-0.5-0.2-1.5-0.7-4.2-0.7c-0.1,0-0.1,0-0.2,0c-0.1,0-0.1,0-0.2,0c-2.7,0-3.7,0.5-4.2,0.7
					c-0.4,0.2-0.8,0.4-0.8,0.8v0.6v9.9v0.6c0,0.4,0.4,0.6,0.8,0.8c0.5,0.2,1.5,0.7,4.2,0.7c0.1,0,0.1,0,0.2,0c0.1,0,0.1,0,0.2,0
					c2.7,0,3.7-0.5,4.2-0.7c0.4-0.2,0.8-0.4,0.8-0.8v-0.6v-9.9v-0.6C53.2,44.3,52.8,44.1,52.4,43.9z"/>
			</g>
			<g>
				<path class="st7" d="M51.3,46.7c-0.4-0.1-1.1-0.3-3.1-0.3c0,0-0.1,0-0.1,0c0,0-0.1,0-0.1,0c-2,0-2.7,0.2-3.1,0.3
					c-0.3,0.1-0.6,0.2-0.6,0.4v0.3v4.5v0.3c0,0.2,0.3,0.3,0.6,0.4c0.4,0.1,1.1,0.3,3.1,0.3c0,0,0.1,0,0.1,0c0,0,0.1,0,0.1,0
					c2,0,2.7-0.2,3.1-0.3c0.3-0.1,0.6-0.2,0.6-0.4v-0.3v-4.5v-0.3C51.9,46.9,51.6,46.8,51.3,46.7z"/>
			</g>
			<g>
				<g>
					<path class="st7" d="M44.3,47.2c-0.6-1.8-1.6-3-1.6-3l0.3-0.3c0,0,1.1,1.2,1.7,3.1L44.3,47.2z"/>
				</g>
				<g>
					<path class="st7" d="M51.8,47.2l-0.4-0.1c0.6-1.9,1.6-3.1,1.7-3.1l0.3,0.3l0,0l0,0C53.3,44.3,52.3,45.4,51.8,47.2z"/>
				</g>
				<g>
					<path class="st7" d="M43.1,56.6l-0.4-0.2c0,0,1-1.6,1.6-4.2l0.4,0.1C44.2,54.9,43.2,56.5,43.1,56.6z"/>
				</g>
				<g>
					<path class="st7" d="M53,56.6c0-0.1-1.1-1.7-1.6-4.3l0.4-0.1c0.6,2.5,1.6,4.1,1.6,4.1L53,56.6z"/>
				</g>
			</g>
			<g>
				<g>
					<path class="st6" d="M51.5,63.5c0,0-0.1-2.1,2.1-2.2C53.7,61.4,53.5,62.6,51.5,63.5z"/>
				</g>
				<g>
					<path class="st6" d="M44.6,63.5c0,0,0.1-2.1-2.1-2.2C42.5,61.3,42.5,62.6,44.6,63.5z"/>
				</g>
			</g>
			<g>
				<g>
					<path class="st8" d="M45.6,61.3c0,0.1-0.1,0.2-0.2,0.2h0c-0.1,0-0.2-0.1-0.2-0.2v-3c0-0.1,0.1-0.2,0.2-0.2h0
						c0.1,0,0.2,0.1,0.2,0.2V61.3z"/>
				</g>
				<g>
					<path class="st8" d="M50.9,61.3c0,0.1-0.1,0.2-0.2,0.2h0c-0.1,0-0.2-0.1-0.2-0.2v-3c0-0.1,0.1-0.2,0.2-0.2h0
						c0.1,0,0.2,0.1,0.2,0.2V61.3z"/>
				</g>
			</g>
		</g>
		<g>
			<g>
				<path class="st9" d="M53.8,21.4c0,1.7-1.5,2.7-2.4,3.1c-0.3,0.1-0.9,0.6-3.2,0.6c-2.5,0-2.9-0.3-3.5-0.6
					c-1.2-0.5-2.4-1.4-2.4-3.1V3.7c0-1.7,1-3.1,2.3-3.1h6.7c1.3,0,2.4,1.4,2.4,3.1V21.4z"/>
			</g>
			<g>
				<path class="st2" d="M52.4,4.9c-0.5-0.2-1.5-0.7-4.2-0.7c-0.1,0-0.1,0-0.2,0c-0.1,0-0.1,0-0.2,0c-2.7,0-3.7,0.5-4.2,0.7
					c-0.4,0.2-0.8,0.4-0.8,0.8v0.6v9.9v0.6c0,0.4,0.4,0.6,0.8,0.8c0.5,0.2,1.5,0.7,4.2,0.7c0.1,0,0.1,0,0.2,0c0.1,0,0.1,0,0.2,0
					c2.7,0,3.7-0.5,4.2-0.7c0.4-0.2,0.8-0.4,0.8-0.8v-0.6V6.2V5.6C53.2,5.2,52.8,5,52.4,4.9z"/>
			</g>
			<g>
				<path class="st9" d="M51.2,7.6c-0.4-0.1-1.1-0.3-3.1-0.3c0,0-0.1,0-0.1,0c0,0-0.1,0-0.1,0c-2,0-2.7,0.2-3.1,0.3
					c-0.3,0.1-0.6,0.2-0.6,0.4v0.3v4.5V13c0,0.2,0.3,0.3,0.6,0.4c0.4,0.1,1.1,0.3,3.1,0.3c0,0,0.1,0,0.1,0c0,0,0.1,0,0.1,0
					c2,0,2.7-0.2,3.1-0.3c0.3-0.1,0.6-0.2,0.6-0.4v-0.3V8.2V8C51.8,7.8,51.5,7.7,51.2,7.6z"/>
			</g>
			<g>
				<path class="st10" d="M52.5,1.1c0,0.4-0.4,0.8-0.8,0.8h-7.2c-0.4,0-0.8-0.4-0.8-0.8V1.1c0-0.4,0.4-0.8,0.8-0.8h7.2
					C52.1,0.3,52.5,0.6,52.5,1.1L52.5,1.1z"/>
			</g>
			<g>
				<g>
					<path class="st9" d="M44.3,8.1c-0.6-1.8-1.6-3-1.6-3l0.3-0.3c0,0,1.1,1.2,1.7,3.1L44.3,8.1z"/>
				</g>
				<g>
					<path class="st9" d="M51.7,8.1L51.3,8c0.6-1.9,1.6-3.1,1.7-3.1l0.3,0.3l0,0l0,0C53.3,5.2,52.3,6.3,51.7,8.1z"/>
				</g>
				<g>
					<path class="st9" d="M43.1,17.5l-0.4-0.2c0,0,1-1.6,1.6-4.2l0.4,0.1C44.1,15.8,43.1,17.4,43.1,17.5z"/>
				</g>
				<g>
					<path class="st9" d="M52.9,17.5c0-0.1-1.1-1.7-1.6-4.3l0.4-0.1c0.6,2.5,1.6,4.1,1.6,4.1L52.9,17.5z"/>
				</g>
			</g>
			<g>
				<g>
					<path class="st6" d="M51.5,24.4c0,0-0.1-2.1,2.1-2.2C53.6,22.3,53.5,23.6,51.5,24.4z"/>
				</g>
				<g>
					<path class="st6" d="M44.5,24.4c0,0,0.1-2.1-2.1-2.2C42.4,22.3,42.5,23.6,44.5,24.4z"/>
				</g>
			</g>
			<g>
				<g>
					<path class="st11" d="M45.6,22.2c0,0.1-0.1,0.2-0.2,0.2h0c-0.1,0-0.2-0.1-0.2-0.2v-3c0-0.1,0.1-0.2,0.2-0.2h0
						c0.1,0,0.2,0.1,0.2,0.2V22.2z"/>
				</g>
				<g>
					<path class="st11" d="M50.8,22.2c0,0.1-0.1,0.2-0.2,0.2h0c-0.1,0-0.2-0.1-0.2-0.2v-3c0-0.1,0.1-0.2,0.2-0.2h0
						c0.1,0,0.2,0.1,0.2,0.2V22.2z"/>
				</g>
			</g>
		</g>
	</g>
	<g>
		<g>
			<path class="st12" d="M26.6,42.2c0-1.7-1.5-2.7-2.4-3.1c-0.3-0.1-0.9-0.6-3.2-0.6c-2.5,0-2.9,0.3-3.5,0.6
				c-1.2,0.5-2.4,1.4-2.4,3.1v17.7c0,1.7,1,3.1,2.3,3.1h6.7c1.3,0,2.4-1.4,2.4-3.1V42.2z"/>
		</g>
		<g>
			<path class="st2" d="M25.2,58.7c-0.5,0.2-1.5,0.7-4.2,0.7c-0.1,0-0.1,0-0.2,0c-0.1,0-0.1,0-0.2,0c-2.7,0-3.7-0.5-4.2-0.7
				c-0.4-0.2-0.8-0.4-0.8-0.8v-0.6v-9.9v-0.6c0-0.4,0.4-0.6,0.8-0.8c0.5-0.2,1.5-0.7,4.2-0.7c0.1,0,0.1,0,0.2,0c0.1,0,0.1,0,0.2,0
				c2.7,0,3.7,0.5,4.2,0.7c0.4,0.2,0.8,0.4,0.8,0.8v0.6v9.9v0.6C26,58.4,25.6,58.6,25.2,58.7z"/>
		</g>
		<g>
			<path class="st12" d="M24.1,55.9c-0.4,0.1-1.1,0.3-3.1,0.3c0,0-0.1,0-0.1,0c0,0-0.1,0-0.1,0c-2,0-2.8-0.2-3.1-0.3
				c-0.3-0.1-0.6-0.2-0.6-0.4v-0.3v-4.5v-0.3c0-0.2,0.3-0.3,0.6-0.4c0.4-0.1,1.1-0.3,3.1-0.3c0,0,0.1,0,0.1,0c0,0,0.1,0,0.1,0
				c2,0,2.7,0.2,3.1,0.3c0.3,0.1,0.6,0.2,0.6,0.4v0.3v4.5v0.3C24.6,55.8,24.4,55.9,24.1,55.9z"/>
		</g>
		<g>
			<path class="st13" d="M25.3,62.5c0-0.4-0.4-0.8-0.8-0.8h-7.2c-0.4,0-0.8,0.4-0.8,0.8v0.1c0,0.4,0.4,0.8,0.8,0.8h7.2
				C25,63.3,25.3,63,25.3,62.5L25.3,62.5z"/>
		</g>
		<g>
			<g>
				<path class="st12" d="M17.1,55.4c-0.6,1.8-1.6,3-1.6,3l0.3,0.3c0,0,1.1-1.2,1.7-3.1L17.1,55.4z"/>
			</g>
			<g>
				<path class="st12" d="M24.6,55.4l-0.4,0.1c0.6,1.9,1.6,3.1,1.7,3.1l0.3-0.3c0,0,0,0,0,0l0,0C26.1,58.4,25.1,57.2,24.6,55.4z"/>
			</g>
			<g>
				<path class="st12" d="M15.9,46.1l-0.4,0.2c0,0,1,1.6,1.6,4.2l0.4-0.1C17,47.8,15.9,46.1,15.9,46.1z"/>
			</g>
			<g>
				<path class="st12" d="M25.8,46.1c0,0.1-1.1,1.7-1.6,4.3l0.4,0.1c0.6-2.5,1.6-4.1,1.6-4.1L25.8,46.1z"/>
			</g>
		</g>
		<g>
			<g>
				<path class="st6" d="M24.3,39.1c0,0-0.1,2.1,2.1,2.2C26.4,41.3,26.3,40,24.3,39.1z"/>
			</g>
			<g>
				<path class="st6" d="M17.3,39.1c0,0,0.1,2.1-2.1,2.2C15.2,41.3,15.3,40,17.3,39.1z"/>
			</g>
		</g>
		<g>
			<g>
				<path class="st13" d="M18.4,41.4c0-0.1-0.1-0.2-0.2-0.2h0c-0.1,0-0.2,0.1-0.2,0.2v3c0,0.1,0.1,0.2,0.2,0.2h0
					c0.1,0,0.2-0.1,0.2-0.2V41.4z"/>
			</g>
			<g>
				<path class="st13" d="M23.7,41.4c0-0.1-0.1-0.2-0.2-0.2h0c-0.1,0-0.2,0.1-0.2,0.2v3c0,0.1,0.1,0.2,0.2,0.2h0
					c0.1,0,0.2-0.1,0.2-0.2V41.4z"/>
			</g>
		</g>
	</g>
	<g>
		<g>
			<path class="st14" d="M12.1,42.2c0-1.7-1.5-2.7-2.4-3.1c-0.3-0.1-0.9-0.6-3.2-0.6c-2.5,0-2.9,0.3-3.5,0.6
				c-1.2,0.5-2.4,1.4-2.4,3.1v17.7c0,1.7,1,3.1,2.3,3.1h6.7c1.3,0,2.4-1.4,2.4-3.1V42.2z"/>
		</g>
		<g>
			<path class="st2" d="M10.7,58.7c-0.5,0.2-1.5,0.7-4.2,0.7c-0.1,0-0.1,0-0.2,0c-0.1,0-0.1,0-0.2,0c-2.7,0-3.7-0.5-4.2-0.7
				c-0.4-0.2-0.8-0.4-0.8-0.8v-0.6v-9.9v-0.6c0-0.4,0.4-0.6,0.8-0.8c0.5-0.2,1.5-0.7,4.2-0.7c0.1,0,0.1,0,0.2,0c0.1,0,0.1,0,0.2,0
				c2.7,0,3.7,0.5,4.2,0.7c0.4,0.2,0.8,0.4,0.8,0.8v0.6v9.9v0.6C11.5,58.4,11.1,58.6,10.7,58.7z"/>
		</g>
		<g>
			<path class="st14" d="M9.6,55.9c-0.4,0.1-1.1,0.3-3.1,0.3c0,0-0.1,0-0.1,0c0,0-0.1,0-0.1,0c-2,0-2.8-0.2-3.1-0.3
				c-0.3-0.1-0.6-0.2-0.6-0.4v-0.3v-4.5v-0.3c0-0.2,0.3-0.3,0.6-0.4c0.4-0.1,1.1-0.3,3.1-0.3c0,0,0.1,0,0.1,0c0,0,0.1,0,0.1,0
				c2,0,2.7,0.2,3.1,0.3c0.3,0.1,0.6,0.2,0.6,0.4v0.3v4.5v0.3C10.2,55.8,9.9,55.9,9.6,55.9z"/>
		</g>
		<g>
			<path class="st15" d="M10.8,62.5c0-0.4-0.4-0.8-0.8-0.8H2.8C2.3,61.7,2,62,2,62.5v0.1c0,0.4,0.4,0.8,0.8,0.8H10
				C10.5,63.3,10.8,63,10.8,62.5L10.8,62.5z"/>
		</g>
		<g>
			<g>
				<path class="st14" d="M2.6,55.4c-0.6,1.8-1.6,3-1.6,3l0.3,0.3c0,0,1.1-1.2,1.7-3.1L2.6,55.4z"/>
			</g>
			<g>
				<path class="st14" d="M10.1,55.4l-0.4,0.1c0.6,1.9,1.6,3.1,1.7,3.1l0.3-0.3c0,0,0,0,0,0l0,0C11.6,58.4,10.6,57.2,10.1,55.4z"/>
			</g>
			<g>
				<path class="st14" d="M1.4,46.1L1,46.3c0,0,1,1.6,1.6,4.2l0.4-0.1C2.5,47.8,1.5,46.1,1.4,46.1z"/>
			</g>
			<g>
				<path class="st14" d="M11.3,46.1c0,0.1-1.1,1.7-1.6,4.3l0.4,0.1c0.6-2.5,1.6-4.1,1.6-4.2L11.3,46.1z"/>
			</g>
		</g>
		<g>
			<g>
				<path class="st3" d="M9.8,39.1c0,0-0.1,2.1,2.1,2.2C12,41.3,11.8,40,9.8,39.1z"/>
			</g>
			<g>
				<path class="st3" d="M2.9,39.1c0,0,0.1,2.1-2.1,2.2C0.8,41.3,0.8,40,2.9,39.1z"/>
			</g>
		</g>
		<g>
			<g>
				<path class="st15" d="M3.9,41.4c0-0.1-0.1-0.2-0.2-0.2h0c-0.1,0-0.2,0.1-0.2,0.2v3c0,0.1,0.1,0.2,0.2,0.2h0
					c0.1,0,0.2-0.1,0.2-0.2V41.4z"/>
			</g>
			<g>
				<path class="st15" d="M9.2,41.4c0-0.1-0.1-0.2-0.2-0.2h0c-0.1,0-0.2,0.1-0.2,0.2v3c0,0.1,0.1,0.2,0.2,0.2h0
					c0.1,0,0.2-0.1,0.2-0.2V41.4z"/>
			</g>
		</g>
	</g>
	<g>
		<path class="st16" d="M29.9,42.9c1.1,0,1.9-0.9,1.9-1.9S31,39,29.9,39C28.8,39,28,39.9,28,41S28.8,42.9,29.9,42.9z M29.9,40
			c0.5,0,1,0.4,1,1s-0.4,1-1,1s-1-0.4-1-1S29.4,40,29.9,40z"/>
		<path class="st16" d="M38.2,54.2c0,0-0.1-0.2-0.1-0.2h-0.9l-1.5-5l-4.6-0.2l-0.5-4.3c0.2,0,0.5,0.2,0.9,0.6
			c0.2,0.2,0.5,0.5,0.8,0.8c1.1,1.2,2.4,2.5,3.9,2.5c0,0,0.1,0,0.1,0c0.2,0,0.4-0.2,0.4-0.5c0-0.3-0.3-0.5-0.5-0.5c0,0-0.2,0-0.2,0
			v0c-1,0.1-2.1-1.1-3.2-2.2c-0.3-0.3-0.5-0.6-0.7-0.8c-0.6-0.6-1.2-0.9-1.7-0.8c-0.4,0.1-0.6,0.3-0.7,0.5l-0.1,0.1l0.6,5.6l4.7,0.1
			l1.5,5.1h1.7c0,1,0,0.2,0.1,0.2c0.2,0,0.4-0.2,0.4-0.5C38.6,54.4,38.4,54.2,38.2,54.2z"/>
		<path class="st16" d="M34.5,52.4c-0.3-0.2-0.7,0.1-0.8,0.2c-0.8,1.1-2.1,1.9-3.5,1.9c-2.3,0-4.2-1.9-4.2-4.2
			c0-1.5,0.8-2.9,2.1-3.6c0.2,0,0.5-0.2,0.5-0.5c0-0.3-0.2-0.5-0.5-0.5c-0.1,0-0.2,0.1-0.3,0.1c-1.6,0.9-2.7,2.6-2.7,4.6
			c0,2.9,2.3,5.2,5.2,5.2c1.9,0,3.5-1,4.5-2.5C34.8,52.8,34.7,52.6,34.5,52.4z"/>
	</g>
	<g>
		<path class="st16" d="M84.2,42.9c1.1,0,1.9-0.9,1.9-1.9S85.2,39,84.2,39s-1.9,0.9-1.9,1.9S83.1,42.9,84.2,42.9z M84.2,40
			c0.5,0,1,0.4,1,1s-0.4,1-1,1s-1-0.4-1-1S83.6,40,84.2,40z"/>
		<path class="st16" d="M92.5,54.2c0,0-0.1-0.2-0.1-0.2h-0.9l-1.5-5l-4.6-0.2l-0.5-4.3c0.2,0,0.5,0.2,0.9,0.6
			c0.2,0.2,0.5,0.5,0.8,0.8c1.1,1.2,2.4,2.5,3.9,2.5c0,0,0.1,0,0.1,0c0.2,0,0.4-0.2,0.4-0.5c0-0.3,0-0.5-0.2-0.5c0,0,0.2,0,0.2,0v0
			c-1,0.1-2.5-1.1-3.5-2.2c-0.3-0.3-0.7-0.6-0.9-0.8c-0.6-0.6-1.3-0.9-1.8-0.8c-0.4,0.1-0.7,0.3-0.8,0.5l-0.1,0.1l0.6,5.6l4.7,0.1
			l1.5,5.1h1.7c0,1,0,0.2,0.1,0.2c0.2,0,0.4-0.2,0.4-0.5C92.8,54.4,92.7,54.2,92.5,54.2z"/>
		<path class="st16" d="M88.8,52.4c-0.3-0.2-0.7,0.1-0.8,0.2c-0.8,1.1-2.1,1.9-3.5,1.9c-2.3,0-4.2-1.9-4.2-4.2
			c0-1.5,0.8-2.9,2.1-3.6c0.2,0,0.5-0.2,0.5-0.5c0-0.3-0.2-0.5-0.5-0.5c-0.1,0-0.2,0.1-0.3,0.1c-1.6,0.9-2.7,2.6-2.7,4.6
			c0,2.9,2.3,5.2,5.2,5.2c1.9,0,3.5-1,4.5-2.5C89,52.8,89,52.6,88.8,52.4z"/>
	</g>
	<g>
		<g>
			<path class="st7" d="M29.3,45c0-1.7,1.5-2.7,2.4-3.1c0.3-0.1,0.9-0.6,3.2-0.5c2.5,0,2.9,0.3,3.5,0.6c1.2,0.5,2.4,1.4,2.4,3.1
				l0,15.4c0,1.7-1.1,3.1-2.4,3.1l-6.7,0c-1.3,0-2.4-1.4-2.4-3.1L29.3,45z"/>
		</g>
		<g>
			<path class="st2" d="M30.7,61.6c0.5,0.2,1.5,0.7,4.2,0.7c0.1,0,0.1,0,0.2,0c0.1,0,0.1,0,0.2,0c2.7,0,3.7-0.5,4.2-0.7
				c0.4-0.2,0.8-0.4,0.8-0.8l0-0.6l0-9.9l0-0.6c0-0.4-0.4-0.6-0.8-0.8c-0.5-0.2-1.5-0.7-4.2-0.7c-0.1,0-0.1,0-0.2,0
				c-0.1,0-0.1,0-0.2,0c-2.7,0-3.7,0.5-4.2,0.7c-0.4,0.2-0.8,0.4-0.8,0.8l0,0.6l0,9.9l0,0.6C29.9,61.2,30.3,61.4,30.7,61.6z"/>
		</g>
		<g>
			<path class="st7" d="M31.8,58.8c0.4,0.1,1.1,0.3,3.1,0.3c0,0,0.1,0,0.1,0c0,0,0.1,0,0.1,0c2,0,2.8-0.2,3.1-0.3
				c0.3-0.1,0.6-0.2,0.6-0.4l0-0.3l0-4.5l0-0.3c0-0.2-0.3-0.3-0.6-0.4c-0.4-0.1-1.1-0.3-3.1-0.3c0,0-0.1,0-0.1,0c0,0-0.1,0-0.1,0
				c-2,0-2.7,0.2-3.1,0.3c-0.3,0.1-0.6,0.2-0.6,0.4l0,0.3l0,4.5l0,0.3C31.2,58.6,31.5,58.7,31.8,58.8z"/>
		</g>
		<g>
			<g>
				<path class="st7" d="M38.8,58.3c0.6,1.8,1.5,3,1.6,3L40,61.6c0-0.1-1.1-1.2-1.6-3.1L38.8,58.3z"/>
			</g>
			<g>
				<path class="st7" d="M31.3,58.3l0.4,0.1c-0.6,1.9-1.6,3.1-1.7,3.1l-0.3-0.3l0,0l0,0C29.8,61.2,30.8,60.1,31.3,58.3z"/>
			</g>
			<g>
				<path class="st7" d="M40,48.9l0.4,0.2c0,0-1,1.6-1.6,4.1l-0.4-0.1C38.9,50.6,40,49,40,48.9z"/>
			</g>
			<g>
				<path class="st7" d="M30.2,48.9c0,0.1,1.1,1.7,1.6,4.3l-0.4,0.1c-0.6-2.5-1.6-4.1-1.6-4.2L30.2,48.9z"/>
			</g>
		</g>
		<g>
			<g>
				<path class="st6" d="M31.6,42c0,0,0.1,2.1-2.1,2.1C29.5,44.1,29.6,42.9,31.6,42z"/>
			</g>
			<g>
				<path class="st6" d="M38.6,42c0,0-0.1,2.1,2.1,2.2C40.7,44.2,40.6,42.9,38.6,42z"/>
			</g>
		</g>
		<g>
			<g>
				<path class="st8" d="M37.5,44.2c0-0.1,0.1-0.2,0.2-0.2l0,0c0.1,0,0.2,0.1,0.2,0.2l0,3c0,0.1-0.1,0.2-0.2,0.2l0,0
					c-0.1,0-0.2-0.1-0.2-0.2L37.5,44.2z"/>
			</g>
			<g>
				<path class="st8" d="M32.3,44.2c0-0.1,0.1-0.2,0.2-0.2l0,0c0.1,0,0.2,0.1,0.2,0.2l0,3c0,0.1-0.1,0.2-0.2,0.2l0,0
					c-0.1,0-0.2-0.1-0.2-0.2L32.3,44.2z"/>
			</g>
		</g>
	</g>
	<g>
		<g>
			<path class="st12" d="M41.8,26.7c-1.7-0.1-2.8,1.4-3.2,2.3c-0.2,0.3-0.6,0.9-0.7,3.2c-0.1,2.5,0.2,2.9,0.4,3.5
				c0.4,1.2,1.3,2.4,3,2.5l17.7,0.6c1.7,0.1,3.1-0.9,3.1-2.2l0.2-6.7c0-1.3-1.3-2.4-3-2.5L41.8,26.7z"/>
		</g>
		<g>
			<path class="st2" d="M58.3,28.7c0.2,0.5,0.7,1.5,0.6,4.2c0,0.1,0,0.1,0,0.2c0,0.1,0,0.1,0,0.2c-0.1,2.7-0.6,3.7-0.9,4.2
				c-0.2,0.4-0.4,0.8-0.8,0.8l-0.6,0l-9.9-0.4l-0.6,0c-0.4,0-0.6-0.4-0.8-0.8c-0.2-0.5-0.7-1.5-0.6-4.2c0-0.1,0-0.1,0-0.2
				c0-0.1,0-0.1,0-0.2c0.1-2.7,0.6-3.7,0.9-4.2c0.2-0.4,0.4-0.8,0.8-0.8l0.6,0l9.9,0.4l0.6,0C57.9,27.9,58.1,28.2,58.3,28.7z"/>
		</g>
		<g>
			<path class="st12" d="M55.5,29.7c0.1,0.4,0.3,1.1,0.2,3.1c0,0,0,0.1,0,0.1c0,0,0,0.1,0,0.1c-0.1,2-0.3,2.7-0.4,3.1
				c-0.1,0.3-0.2,0.6-0.4,0.6l-0.3,0l-4.5-0.2l-0.3,0c-0.2,0-0.3-0.3-0.3-0.6c-0.1-0.4-0.3-1.1-0.2-3.1c0,0,0-0.1,0-0.1
				c0,0,0-0.1,0-0.1c0.1-2,0.3-2.7,0.4-3.1c0.1-0.3,0.2-0.6,0.4-0.6l0.3,0l4.5,0.2l0.3,0C55.3,29.1,55.4,29.4,55.5,29.7z"/>
		</g>
		<g>
			<path class="st13" d="M62,28.7c-0.4,0-0.8,0.3-0.8,0.8l-0.3,7.2c0,0.4,0.3,0.8,0.8,0.8l0.1,0c0.4,0,0.8-0.3,0.8-0.8l0.3-7.2
				C62.9,29.1,62.5,28.7,62,28.7L62,28.7z"/>
		</g>
		<g>
			<g>
				<path class="st12" d="M54.7,36.6c1.8,0.6,2.9,1.7,2.9,1.7l0.3-0.3c0,0-1.2-1.1-3.1-1.8L54.7,36.6z"/>
			</g>
			<g>
				<path class="st12" d="M55,29.2l0.1,0.4c1.9-0.5,3.1-1.5,3.2-1.5L58,27.7c0,0,0,0,0,0l0,0C58,27.7,56.8,28.7,55,29.2z"/>
			</g>
			<g>
				<path class="st12" d="M45.3,37.5l0.2,0.4c0,0,1.7-1,4.2-1.4L49.6,36C47,36.5,45.4,37.4,45.3,37.5z"/>
			</g>
			<g>
				<path class="st12" d="M45.7,27.6c0.1,0,1.7,1.1,4.2,1.8L50,29c-2.5-0.7-4.1-1.7-4.1-1.7L45.7,27.6z"/>
			</g>
		</g>
		<g>
			<g>
				<path class="st6" d="M38.7,28.8c0,0,2.1,0.2,2.2-2.1C40.9,26.8,39.6,26.8,38.7,28.8z"/>
			</g>
			<g>
				<path class="st6" d="M38.4,35.8c0,0,2.2-0.1,2.1,2.2C40.5,38,39.2,37.9,38.4,35.8z"/>
			</g>
		</g>
		<g>
			<g>
				<path class="st13" d="M40.7,34.8c-0.1,0-0.2,0.1-0.2,0.2l0,0c0,0.1,0.1,0.2,0.2,0.2l3,0.1c0.1,0,0.2-0.1,0.2-0.2l0,0
					c0-0.1-0.1-0.2-0.2-0.2L40.7,34.8z"/>
			</g>
			<g>
				<path class="st13" d="M40.9,29.6c-0.1,0-0.2,0.1-0.2,0.2l0,0c0,0.1,0.1,0.2,0.2,0.2l3,0.1c0.1,0,0.2-0.1,0.2-0.2l0,0
					c0-0.1-0.1-0.2-0.2-0.2L40.9,29.6z"/>
			</g>
		</g>
	</g>
</g>
</svg>
