<svg xmlns="http://www.w3.org/2000/svg" version="1" viewBox="0 0 480 480"><path fill="#f5f8fb" d="M120 335v-75h39c23 0 46 7 55 16 20 19 20 24 1 50-12 19-12 24 0 40 8 11 15 25 15 32 0 23-29 12-47-18-9-16-21-30-25-30s-8 14-8 30c0 20-5 30-15 30-12 0-15-15-15-75zm67-21c7-18-17-38-31-24-11 11-1 40 14 40 6 0 13-7 17-16zm93 76c-11-11-21-28-21-37-4-66 19-95 75-91 50 4 62 28 13 28-45 0-64 22-51 58 7 21 17 27 39 28 48 2 51 4 31 19-27 21-62 19-86-5zM74 203c60-161 70-167 110-68 14 36 26 70 26 75 0 16-27 12-34-5-7-20-62-20-70 0-3 8-13 15-22 15-11 0-14-5-10-17zm79-63c-3-11-9-17-14-14-14 8-10 34 5 34 9 0 12-7 9-20zm89 8c2-59 6-73 20-76 12-2 24 11 41 44l24 47 24-44c13-24 32-45 42-47 15-3 17 6 17 72 0 61-3 76-15 76-11 0-15-12-15-42l-1-43-20 38c-11 20-24 37-29 37s-18-17-29-37l-20-38-1 43c0 35-3 42-20 42-19 0-21-5-18-72z"/><g fill="#0355a2"><path d="M5 467c-3-7-4-114-3-237L5 5h470v470l-233 3C59 480 8 478 5 467zm145-87c0-16 4-30 8-30s16 14 25 30c18 30 47 41 47 18 0-7-7-21-15-32-12-16-12-21 0-40 19-26 19-31-1-50-9-9-32-16-55-16h-39v75c0 60 3 75 15 75 10 0 15-10 15-30zm216 15c20-15 17-17-31-19-22-1-32-7-39-28-13-36 6-58 51-58 49 0 37-24-13-28-56-4-79 25-75 91 2 25 37 57 64 57 13 0 32-7 43-15zM106 205c4-9 19-15 35-15 17 0 32 6 35 15 7 17 34 21 34 5 0-5-12-39-26-75-40-99-50-93-110 68-4 12-1 17 10 17 9 0 19-7 22-15zm174-27l1-43 20 38c11 20 24 37 29 37s18-17 29-37l20-38 1 43c0 30 4 42 15 42 12 0 15-15 15-76 0-66-2-75-17-72-10 2-29 23-42 47l-24 44-24-47c-17-33-29-46-41-44-14 3-18 17-20 76-3 67-1 72 18 72 17 0 20-7 20-42z"/><path d="M153 314c-8-20 8-36 26-25 15 10 8 41-9 41-6 0-13-7-17-16zm-23-168c0-24 17-28 23-6 3 13 0 20-9 20-8 0-14-6-14-14z"/></g></svg>